<svg width="75" height="33" viewBox="0 0 75 33" fill="none" xmlns="http://www.w3.org/2000/svg">
<path d="M67.1249 27.3255H64.4873C64.1791 27.3255 63.8879 27.1758 63.7338 26.9095C62.9973 25.7114 60.6337 22.3167 57.6193 22.3167C54.605 22.3167 52.3442 25.7946 51.6248 27.0427C51.4707 27.3089 51.1795 27.4753 50.8541 27.4753H49.3126L50.8884 19.5377L56.1978 19.0219L58.784 20.0036L66.4741 23.9475L67.1249 27.3255Z" fill="#38444C"/>
<path d="M21.1213 27.3255H18.5008C18.1925 27.3255 17.9185 27.1758 17.7472 26.9095C17.0108 25.7114 14.6643 22.3167 11.6499 22.3167C8.65268 22.3167 6.39189 25.7946 5.68968 27.0427C5.53553 27.3089 5.24437 27.4753 4.93608 27.4753H3.39463L4.97033 19.5377L10.2626 19.0219L12.8488 20.0036L20.4876 23.9475L21.1213 27.3255Z" fill="#38444C"/>
<path d="M57.7392 33C54.879 33.0166 52.5326 31.0197 51.9674 28.4904C51.5049 26.4269 51.9845 24.5964 53.4403 23.0322C54.3652 22.0338 55.5469 21.4846 56.9343 21.3016C60.1884 20.8689 62.963 23.2319 63.4426 26.0775C63.8194 28.2907 63.1343 30.1544 61.4216 31.6354C60.5995 32.3676 59.589 32.7836 58.4757 32.9334C58.2017 32.9833 57.9276 32.9833 57.7392 33Z" fill="#1D262D"/>
<path d="M51.9674 27.1592C51.9331 27.492 52.0187 27.8747 52.0873 28.2741C52.1558 28.6235 52.2585 28.973 52.3955 29.2892C53.3033 31.4691 55.3585 32.8503 57.7735 32.8336C59.0923 32.817 60.2912 32.3843 61.2846 31.5357C62.9288 30.1378 63.5796 28.3573 63.2884 26.2938C63.1 24.8794 62.4321 23.6646 61.2674 22.7494C59.8459 21.6178 58.2188 21.1685 56.4204 21.5845C53.7657 22.167 51.9674 24.4467 51.9674 27.1592Z" fill="#1D262D"/>
<path d="M53.2348 26.9761C53.2519 24.5133 55.2387 22.7161 57.6707 22.7161C60.2398 22.7161 62.2266 24.8128 62.0724 27.3755C61.9354 29.6053 59.9658 31.4358 57.3796 31.3193C55.1359 31.2361 53.1834 29.2226 53.2348 26.9761Z" fill="#1D262D"/>
<path d="M57.7221 31.1528C59.8801 31.2194 61.9354 29.4555 61.9525 27.0426C61.9697 24.8793 60.2398 22.7659 57.3282 22.8824C55.2215 22.9656 53.3889 24.663 53.3718 26.9594C53.3547 29.2724 55.2558 31.1861 57.7221 31.1528Z" fill="#666666"/>
<path d="M62.7575 28.7733C62.7232 28.557 62.7575 28.4072 62.9288 28.2075C62.9801 28.4405 62.963 28.6069 62.7575 28.7733Z" fill="#B3B3B3"/>
<path d="M59.4177 25.0458C59.863 25.4119 60.1884 25.8279 60.3254 26.3604C60.5652 27.259 60.3768 28.091 59.7431 28.7899C59.6575 28.8732 59.589 28.9564 59.6575 29.0895C59.7088 29.2226 59.6061 29.2892 59.5205 29.3391C58.4757 29.9049 57.4138 30.0546 56.3177 29.5388C56.1635 29.4722 56.0265 29.3724 56.0779 29.1727C56.1121 29.0396 55.9922 28.9896 55.9237 28.9231C55.3585 28.3906 55.0503 27.7582 55.0674 26.9928C55.0845 26.1774 55.4271 25.5117 56.0779 24.9959C56.1121 24.9626 56.1635 24.9293 56.2149 24.896C56.0436 24.6631 56.2149 24.5466 56.4033 24.4634C57.1398 24.1306 57.8934 24.0973 58.6641 24.2803C58.8696 24.3302 59.0923 24.3469 59.2635 24.4634C59.5205 24.6631 59.5547 24.7463 59.4177 25.0458Z" fill="#1D262D"/>
<path d="M58.1332 29.6053C57.4309 29.7218 56.7972 29.5387 56.1807 29.1726C56.1635 29.3058 56.2492 29.339 56.3177 29.3723C56.8657 29.6719 57.4481 29.7218 58.0646 29.6719C58.0989 29.6719 58.116 29.6219 58.1332 29.6053C58.647 29.6885 59.058 29.4389 59.4862 29.2059C59.5547 29.1726 59.5547 29.1061 59.4691 29.0562C59.0752 29.3557 58.647 29.5554 58.1332 29.6053Z" fill="#B3B3B3"/>
<path d="M60.2912 27.1092C60.2912 25.7613 59.1608 24.663 57.7906 24.6297C56.4204 24.5964 55.2387 25.5949 55.2044 26.9927C55.1873 28.3406 56.369 29.4721 57.7735 29.4721C59.1265 29.4721 60.2912 28.3905 60.2912 27.1092Z" fill="#B3B3B3"/>
<path d="M59.2807 24.9292C59.4177 24.7961 59.3492 24.7295 59.2464 24.663C59.0923 24.5465 58.9039 24.4965 58.6984 24.4466C57.979 24.2802 57.2597 24.2469 56.5746 24.5298C56.4718 24.5797 56.3177 24.5964 56.2663 24.8127C57.3282 24.3301 58.3216 24.3301 59.2807 24.9292Z" fill="#B3B3B3"/>
<path d="M58.784 26.9428C58.784 27.5252 58.2702 28.0078 57.6878 27.9911C57.1226 27.9745 56.6088 27.5086 56.626 26.9761C56.6431 26.3104 57.1569 25.9443 57.7392 25.9443C58.3558 25.961 58.784 26.3604 58.784 26.9428Z" fill="#1D262D"/>
<path d="M57.705 27.7914C58.2017 27.7914 58.5956 27.442 58.6127 26.976C58.6127 26.5101 58.2017 26.1107 57.7221 26.1107C57.2425 26.1107 56.8315 26.4768 56.8315 26.9428C56.8315 27.4253 57.2083 27.7914 57.705 27.7914Z" fill="#1D262D"/>
<path d="M11.7013 33C8.84108 33.0166 6.49465 31.0197 5.92946 28.4904C5.46702 26.4269 5.94658 24.5964 7.4024 23.0322C8.32726 22.0338 9.50904 21.4846 10.8963 21.3016C14.1505 20.8689 16.9251 23.2319 17.4047 26.0775C17.7815 28.2907 17.0964 30.1544 15.3837 31.6354C14.5616 32.3676 13.5511 32.7836 12.4378 32.9334C12.1638 32.9833 11.8897 32.9833 11.7013 33Z" fill="#1D262D"/>
<path d="M5.92946 27.1592C5.8952 27.492 5.98084 27.8747 6.04935 28.2741C6.11786 28.6235 6.22062 28.973 6.35764 29.2892C7.26538 31.4691 9.32064 32.8503 11.7356 32.8336C13.0544 32.817 14.2533 32.3843 15.2467 31.5357C16.8909 30.1378 17.5417 28.3573 17.2505 26.2938C17.0621 24.8794 16.3942 23.6646 15.2295 22.7494C13.808 21.6178 12.1809 21.1685 10.3825 21.5845C7.72781 22.167 5.92946 24.4467 5.92946 27.1592Z" fill="#1D262D"/>
<path d="M7.19687 26.9761C7.214 24.5133 9.20075 22.7161 11.6328 22.7161C14.2019 22.7161 16.1886 24.8128 16.0345 27.3755C15.8975 29.6053 13.9279 31.4358 11.3417 31.3193C9.09799 31.2361 7.14549 29.2226 7.19687 26.9761Z" fill="#1D262D"/>
<path d="M11.6842 31.1528C13.8422 31.2194 15.8975 29.4555 15.9146 27.0426C15.9317 24.8793 14.2019 22.7659 11.2903 22.8824C9.20075 22.9656 7.36814 24.663 7.33389 26.9594C7.31676 29.2724 9.21788 31.1861 11.6842 31.1528Z" fill="#666666"/>
<path d="M16.7196 28.7733C16.6853 28.557 16.7196 28.4072 16.8909 28.2075C16.9422 28.4405 16.9251 28.6069 16.7196 28.7733Z" fill="#B3B3B3"/>
<path d="M13.3798 25.0458C13.8251 25.4119 14.1505 25.8279 14.2875 26.3604C14.5273 27.259 14.3389 28.091 13.7052 28.7899C13.6196 28.8732 13.5511 28.9564 13.6196 29.0895C13.6709 29.2226 13.5682 29.2892 13.4825 29.3391C12.4378 29.9049 11.3759 30.0546 10.2798 29.5388C10.1256 29.4722 9.9886 29.3724 10.04 29.1727C10.0742 29.0396 9.95435 28.9896 9.88584 28.9231C9.32064 28.3906 9.01235 27.7582 9.02948 26.9928C9.04661 26.1774 9.38915 25.5117 10.04 24.9959C10.0742 24.9626 10.1256 24.9293 10.177 24.896C10.0057 24.6631 10.177 24.5466 10.3654 24.4634C11.1019 24.1306 11.8555 24.0973 12.6262 24.2803C12.8317 24.3302 13.0544 24.3469 13.2256 24.4634C13.4825 24.6631 13.5168 24.7463 13.3798 25.0458Z" fill="#1D262D"/>
<path d="M12.0952 29.6053C11.393 29.7218 10.7593 29.5387 10.1427 29.1726C10.1256 29.3058 10.2113 29.339 10.2798 29.3723C10.8278 29.6719 11.4102 29.7218 12.0267 29.6719C12.061 29.6719 12.0781 29.6219 12.0952 29.6053C12.6091 29.6885 13.0201 29.4389 13.4483 29.2059C13.5168 29.1726 13.5168 29.1061 13.4312 29.0562C13.0372 29.3557 12.6091 29.5554 12.0952 29.6053Z" fill="#B3B3B3"/>
<path d="M14.2533 27.1092C14.2533 25.7613 13.1229 24.663 11.7527 24.6297C10.3825 24.5964 9.20075 25.5949 9.1665 26.9927C9.14937 28.3406 10.3311 29.4721 11.7356 29.4721C13.0886 29.4721 14.2533 28.3905 14.2533 27.1092Z" fill="#B3B3B3"/>
<path d="M13.2428 24.9292C13.3798 24.7961 13.3113 24.7295 13.2085 24.663C13.0544 24.5465 12.866 24.4965 12.6604 24.4466C11.9411 24.2802 11.2218 24.2469 10.5367 24.5298C10.4339 24.5797 10.2798 24.5964 10.2284 24.8127C11.2903 24.3301 12.2836 24.3301 13.2428 24.9292Z" fill="#B3B3B3"/>
<path d="M12.7461 26.9428C12.7461 27.5252 12.2323 28.0078 11.6499 27.9911C11.0847 27.9745 10.5709 27.5086 10.5881 26.9761C10.6052 26.3104 11.119 25.9443 11.7013 25.9443C12.3179 25.961 12.7461 26.3604 12.7461 26.9428Z" fill="#1D262D"/>
<path d="M11.6842 27.7914C12.1809 27.7914 12.5748 27.442 12.5919 26.976C12.5919 26.5101 12.1809 26.1107 11.7013 26.1107C11.2218 26.1107 10.8107 26.4768 10.8107 26.9428C10.7936 27.4253 11.1704 27.7914 11.6842 27.7914Z" fill="#1D262D"/>
<path d="M75.0034 26.6433C74.9692 26.1773 74.8664 26.0775 74.404 26.0109C74.3526 25.9111 74.3869 25.8113 74.3869 25.7114C74.3869 23.0822 74.3869 20.4363 74.3869 17.8071C74.3869 17.5575 74.3184 17.3412 74.2327 17.1248C74.0786 16.7088 73.7018 16.4758 73.2393 16.4758C72.7255 16.4758 72.2117 16.4758 71.6294 16.4758C71.7493 16.2928 71.8007 16.143 71.852 15.9766C71.9205 15.6438 71.8692 15.544 71.5438 15.4108C71.0471 15.1945 70.5332 14.9948 70.0366 14.7785C69.1802 14.429 68.4266 13.9132 67.6045 13.5138C67.7073 13.2975 67.9984 13.1144 67.673 12.8482C67.8443 12.7317 67.9984 12.6152 68.1526 12.4821C68.6664 12.0827 69.1973 11.6667 69.4714 11.0676C69.7454 10.4686 69.4714 9.90278 68.8377 9.68645C68.6321 9.61989 68.4095 9.5866 68.1697 9.5866C68.2211 9.47012 68.3238 9.4202 68.3923 9.35364C68.7178 9.08739 69.0432 8.82113 69.3343 8.50496C69.8653 7.93918 69.8824 7.43996 69.3857 6.87418C69.5056 6.74105 69.6255 6.60793 69.7283 6.45816C70.0537 6.05878 70.2935 5.59284 70.3962 5.09362C70.4647 4.77745 70.3277 4.66097 70.0194 4.74417C69.6426 4.84401 69.3001 5.0437 68.9575 5.22675C68.615 5.4098 68.2553 5.5762 67.8271 5.70933C67.947 5.52628 68.0327 5.4098 68.1183 5.27667C68.3238 4.92722 68.5122 4.57776 68.5122 4.16175C68.5122 3.96206 68.4266 3.8955 68.2382 3.94542C67.0393 4.26159 65.8233 4.428 64.5901 4.57776C64.2304 4.61105 63.8708 4.67761 63.5111 4.62769C63.5453 4.47792 63.7166 4.37808 63.631 4.22831C63.5282 4.07854 63.357 4.17839 63.2199 4.19503C62.7918 4.22831 62.3807 4.27823 61.9525 4.31151C61.9697 4.17839 62.0382 4.11183 62.0895 4.04526C62.3122 3.76237 62.4492 3.4462 62.5691 3.11339C62.7575 2.56424 62.7232 2.51432 62.1409 2.63081C60.7536 2.93034 59.3492 3.04682 57.9448 3.01354C56.6431 2.96362 55.3414 2.96362 54.0226 3.0801C53.5431 3.13003 53.0635 3.13003 52.5497 3.22987C52.8237 2.88042 53.0635 2.56424 53.2862 2.23143C53.4403 1.99846 53.3547 1.86534 53.0635 1.84869C52.6182 1.83205 52.1729 1.88198 51.7276 1.91526C50.306 2.0151 48.8845 2.13159 47.4458 2.04838C46.3839 1.98182 45.322 1.91526 44.2601 1.88198C43.301 1.84869 42.359 1.78213 41.417 1.54916C41.5712 1.18307 41.4684 1.04994 41.0745 1.06658C40.7833 1.08322 40.4921 1.09986 40.1839 1.13315C38.6253 1.31619 37.0667 1.28291 35.5253 1.08322C35.0114 1.01666 34.4976 0.916817 33.9667 0.966739C33.5214 1.01666 33.4357 1.11651 33.6241 1.51588C33.7612 1.81541 33.9496 2.0983 34.1551 2.34791C34.9601 3.29643 35.6451 4.32815 36.2617 5.39316C36.6557 6.09206 36.9468 6.82425 37.3065 7.57308C37.1695 7.57308 37.0838 7.57308 36.9811 7.57308C33.881 7.57308 30.781 7.57308 27.6981 7.57308C27.2357 7.57308 26.8931 7.73949 26.6362 8.08894C26.3793 8.40512 26.1396 8.72129 25.8826 9.03746C24.2898 11.0011 22.6799 12.9813 21.0699 14.9449C20.9671 15.0614 20.8644 15.1279 20.6931 15.1279C18.9975 15.1279 17.2848 15.1446 15.5892 15.1612C11.8383 15.1945 8.07036 15.2112 4.3195 15.2278C3.48027 15.2278 2.70954 15.4441 2.00733 15.8601C1.39075 16.2262 0.996823 16.7421 0.876933 17.4576C0.808424 17.8737 0.859806 18.2897 0.842679 18.7057C0.842679 18.7889 0.859806 18.8721 0.757043 18.922C0.534389 19.0385 0.46588 19.2382 0.414499 19.4545C0.243227 20.0702 0.311736 20.7026 0.277481 21.3183C0.243227 21.7842 0.328863 22.2502 0.363117 22.7161C0.380244 23.0489 0.46588 23.3651 0.739916 23.598C0.791297 23.6313 0.825552 23.6812 0.825552 23.7478C0.825552 24.2137 0.808424 24.663 0.89406 25.1456C0.77417 25.1456 0.688534 25.1456 0.602898 25.1456C0.191845 25.1456 -0.0308084 25.3453 0.00344601 25.7613C0.0205732 26.1274 0.0719548 26.4935 0.123336 26.8763C0.157591 27.1591 0.208972 27.442 0.277481 27.7249C0.397372 28.2075 0.585771 28.4571 1.04821 28.4904C1.52777 28.5403 2.02446 28.5403 2.50402 28.4405C2.65816 28.4072 2.82943 28.3573 2.88082 28.1909C2.9322 28.0577 3.00071 28.0577 3.1206 28.0577C3.51452 28.0577 3.92557 28.0577 4.3195 28.0577C4.49077 28.0577 4.55928 28.0245 4.59353 27.8414C4.74768 26.7431 5.0731 25.6948 5.62117 24.7296C6.54604 23.0988 7.96759 22.2668 9.88584 22.2502C10.8278 22.2335 11.7527 22.2834 12.6776 22.4166C13.3284 22.4998 13.9792 22.583 14.5958 22.8492C16.8224 23.8144 18.3124 25.4784 19.1688 27.6584C19.2715 27.9413 19.3914 28.0078 19.6826 28.0078C29.8219 28.0078 39.9612 28.0078 50.1005 28.0078C50.2033 28.0078 50.3232 27.9912 50.4088 28.0245C50.5972 28.1077 50.6314 28.0078 50.6486 27.8581C50.8198 26.7598 51.1453 25.7114 51.6933 24.7296C52.6182 23.1155 54.0226 22.2834 55.9409 22.2668C56.5061 22.2668 57.0713 22.2668 57.6365 22.3167C58.4414 22.3833 59.2635 22.4665 60.0514 22.6662C61.1818 22.9491 62.1238 23.5481 62.9459 24.3469C63.9735 25.3287 64.8641 26.4103 65.2238 27.8248C65.2752 28.0078 65.378 28.0245 65.5492 28.0245C67.9642 28.0245 70.362 28.0245 72.7769 28.0245C72.8625 28.0245 72.9482 27.9912 72.9996 28.091C73.1366 28.3074 73.3421 28.3739 73.5819 28.4072C73.7874 28.4238 73.9758 28.3906 74.1813 28.3906C74.6095 28.3906 74.815 28.2242 74.9178 27.8081C75.0034 27.4088 75.0206 27.026 75.0034 26.6433ZM39.9955 16.4592C39.9955 14.479 39.9955 12.4987 39.9955 10.4519C41.417 12.349 42.5817 14.3292 43.5237 16.4592C42.359 16.4592 41.1772 16.4592 39.9955 16.4592Z" fill="#1D262D"/>
<path d="M34.0523 1.16642C33.9324 1.16642 33.7954 1.14978 33.6755 1.26626C33.7954 1.58244 33.9667 1.84869 34.1551 2.0983C34.4976 2.53096 34.8573 2.96361 35.1998 3.39627C36.0733 4.56112 36.7413 5.84245 37.3236 7.1737C37.375 7.30683 37.4264 7.47323 37.6148 7.57308C37.7347 7.35675 37.6833 7.14042 37.6833 6.92409C37.6833 6.79097 37.5805 6.6412 37.7347 6.54136C37.8888 6.44151 37.9402 6.67448 38.0943 6.65784C38.18 6.22518 38.1115 5.77589 38.0943 5.32659C36.7413 3.96205 35.4054 2.56424 34.1037 1.14978C34.0694 1.16642 34.0694 1.16642 34.0523 1.16642Z" fill="#63AA52"/>
<path d="M58.4928 15.0781C55.2215 14.7785 51.6591 14.3459 49.3298 12.0994C49.2441 12.349 49.1414 12.5986 49.0557 12.8316C48.8673 13.3308 48.2336 13.5305 47.7883 13.2143C44.9452 11.1842 42.4275 8.73798 40.338 5.97563C40.338 6.00891 40.338 6.02555 40.338 6.05883C40.2866 6.60797 39.6015 6.85758 39.1905 6.45821C38.8822 6.15867 38.5739 5.8425 38.2656 5.54297C38.2999 5.85914 38.3341 6.15867 38.3341 6.47485C38.317 6.84094 38.2656 6.89086 37.9059 6.92414C37.9059 7.15711 37.9402 7.37344 37.8546 7.58977C37.8888 7.60641 37.9059 7.60641 37.9231 7.62305C38.2999 7.62305 38.6767 7.65633 39.0535 7.62305C39.5501 7.55649 39.9783 8.08899 39.9955 8.53829C40.0126 8.93766 40.0126 9.33704 40.0126 9.73642C40.0126 9.95274 40.064 10.1192 40.201 10.3022C41.5883 12.166 42.7529 14.1462 43.7292 16.2429C43.8148 16.426 43.9005 16.4925 44.1231 16.4925C46.7436 16.4759 49.3812 16.4759 52.0016 16.4759C56.5575 16.4759 61.1304 16.4759 65.6863 16.4759C66.0802 16.4759 66.2514 16.3594 66.3885 15.9767C66.0973 15.8602 66.0973 15.8269 66.32 15.6106C66.5597 15.3942 66.7995 15.1779 67.005 14.9449C64.2476 15.5773 61.3017 15.3277 58.4928 15.0781Z" fill="#63AA52"/>
<path d="M70.1565 5.19348C70.1736 5.11028 70.225 5.04371 70.1736 4.94387C69.8824 4.99379 69.6255 5.14356 69.3686 5.29332C68.9062 5.55957 68.4437 5.79254 67.9299 5.95895C67.7758 6.00887 67.6387 6.00887 67.4504 5.94231C67.7415 5.35989 68.2553 4.87731 68.2725 4.1784C67.9984 4.24496 67.7586 4.29488 67.5189 4.34481C66.2686 4.64434 65.0012 4.7941 63.7166 4.86067C63.5625 4.87731 63.4083 4.86067 63.3056 4.74418C63.2028 4.6277 63.357 4.52785 63.3227 4.41137C62.8774 4.44465 62.4492 4.47793 62.021 4.52785C61.884 4.54449 61.747 4.52785 61.6785 4.41137C61.61 4.27824 61.7299 4.19504 61.7984 4.0952C62.0895 3.71246 62.2951 3.29644 62.4321 2.81386C62.3122 2.83051 62.2266 2.84715 62.1409 2.86379C61.0105 3.09676 59.8801 3.24652 58.7155 3.24652C56.6602 3.24652 54.6221 3.16332 52.5839 3.42957C52.4812 3.44621 52.3955 3.42957 52.327 3.32973C52.2757 3.24652 52.327 3.16332 52.3784 3.09676C52.4127 3.04683 52.4641 2.99691 52.4983 2.93035C52.6867 2.64746 52.9436 2.41449 53.0806 2.08168C52.9436 2.08168 52.8066 2.06503 52.6867 2.08168C51.5563 2.16488 50.4259 2.24808 49.2955 2.298C47.874 2.34793 46.4695 2.23144 45.0651 2.14824C43.8662 2.08168 42.6502 2.09832 41.4684 1.79878C41.2115 1.73222 41.006 1.7655 40.8176 1.93191C41.006 2.16488 41.006 2.24808 40.749 2.43113C40.338 2.71402 39.8756 2.88043 39.4131 3.04683C39.3617 3.06347 39.3104 3.08012 39.2761 2.98027C39.7385 2.69738 40.3037 2.54761 40.7319 2.18152C40.6292 2.08168 40.4236 2.11496 40.4408 1.94855C40.4408 1.81542 40.612 1.79878 40.7148 1.73222C40.8347 1.66566 40.9546 1.61574 41.0745 1.53253C41.1601 1.48261 41.28 1.43269 41.28 1.28292C40.9888 1.21636 40.6977 1.28292 40.4065 1.3162C38.9678 1.49925 37.5291 1.49925 36.0905 1.34949C35.4225 1.28292 34.7717 1.09988 34.0866 1.13316C35.3882 2.54761 36.707 3.94543 38.0772 5.30996C38.0772 5.21012 38.0772 5.11028 38.0772 5.02707C38.2142 5.04371 38.2142 5.14356 38.2314 5.21012C38.2485 5.30996 38.2656 5.40981 38.2827 5.50965C38.6082 5.82582 38.9164 6.142 39.2419 6.45817C39.6358 6.84091 40.3037 6.60794 40.3551 6.05879C40.3551 6.02551 40.3551 5.97559 40.3723 5.94231C42.4618 8.70466 44.9966 11.1675 47.8397 13.1976C48.2679 13.5138 48.8845 13.3141 49.0729 12.8315C49.1585 12.5819 49.2613 12.3157 49.3469 12.0661C51.6762 14.3292 55.2387 14.7452 58.51 15.0448C61.3359 15.311 64.2647 15.544 66.9879 14.9116C67.0907 14.7951 67.1763 14.6787 67.2448 14.5289C67.3133 14.3958 67.399 14.2626 67.3305 14.1295C67.2448 13.9964 67.0907 14.063 66.9708 14.0796C66.8852 14.0962 66.8338 14.0796 66.7824 14.013C66.731 13.9298 66.7824 13.8799 66.8338 13.8466C66.9023 13.7967 66.9708 13.7468 67.0393 13.6802C67.2448 13.5138 67.4504 13.3474 67.5874 13.0978C67.4675 13.0479 67.2962 13.1644 67.2448 13.0146C67.1934 12.8482 67.3647 12.7816 67.4675 12.7151C67.7244 12.5154 67.9813 12.3157 68.2382 12.116C68.615 11.8165 69.0089 11.5336 69.2487 11.1009C69.557 10.5351 69.3343 10.0193 68.7006 9.86951C68.478 9.81958 68.2382 9.76966 67.9984 9.83622C67.9128 9.86951 67.81 9.85287 67.7758 9.76966C67.7415 9.68646 67.7929 9.6199 67.8443 9.56997C67.8957 9.52005 67.947 9.47013 67.9984 9.43685C68.3752 9.0874 68.752 8.75458 69.1288 8.40513C69.3001 8.25536 69.4371 8.07231 69.5056 7.87263C69.6084 7.60638 69.557 7.32348 69.3686 7.17372C69.0603 6.92411 69.0603 6.92411 69.3343 6.60794C69.6769 6.19192 69.9852 5.74262 70.1565 5.19348Z" fill="#76BD66"/>
<path d="M40.1667 26.4935C40.2524 26.4935 40.3209 26.4935 40.3894 26.4935C42.359 26.4935 44.3115 26.5102 46.2811 26.5102C47.6856 26.5102 49.1071 26.5102 50.5116 26.5102C50.7 26.5102 50.7685 26.4436 50.8027 26.2772C50.9397 25.8113 51.1281 25.3453 51.3508 24.9127C51.9331 23.7977 52.721 22.8991 53.9541 22.4332C54.7591 22.1337 55.5983 22.0837 56.4376 22.0671C57.3967 22.0505 58.3387 22.1836 59.2807 22.3334C60.2398 22.4831 61.1304 22.7827 61.9183 23.3152C63.0829 24.0973 64.0249 25.0957 64.7443 26.2938C64.7956 26.3937 64.8299 26.4935 64.984 26.4769C66.0117 26.427 67.0393 26.4602 68.0669 26.4602C69.5741 26.4602 71.0813 26.4602 72.5885 26.4602C72.6741 26.4602 72.7769 26.5102 72.8283 26.4103C72.9311 26.2106 73.1366 26.1607 73.3421 26.1274C73.4963 26.0941 73.6504 26.1108 73.8045 26.0941C74.1642 26.0775 74.1642 26.0941 74.1642 25.7281C74.1642 25.4784 74.1471 25.2122 74.1471 24.9626C74.1471 23.1654 74.1471 21.3682 74.1471 19.571C74.1471 19.4379 74.1642 19.3048 74.1128 19.1716C74.0443 19.1716 73.9929 19.1716 73.9416 19.1716C69.6598 19.2049 65.3608 19.1716 61.079 19.2049C54.2453 19.2548 47.4287 19.2049 40.5949 19.2049C40.4408 19.2049 40.2866 19.2216 40.1325 19.2382C40.1667 21.6677 40.1667 24.064 40.1667 26.4935Z" fill="#E9164D"/>
<path d="M39.9783 19.2715C39.8927 19.2216 39.7899 19.2216 39.7043 19.2382C39.4988 19.2548 39.4131 19.1883 39.3789 18.9886C39.3446 18.739 39.259 18.4727 39.2247 18.2231C39.0021 17.025 38.6938 15.8435 38.5225 14.6454C38.2999 13.0645 38.0772 11.4837 37.8374 9.90279C37.7175 9.0874 37.1523 8.62146 36.296 8.62146C33.6413 8.62146 30.9865 8.62146 28.349 8.62146C28.2633 8.62146 28.1606 8.62146 28.0578 8.62146C28.1948 8.97091 28.1948 9.12068 27.9893 9.45349C27.5782 10.1191 27.1158 10.7681 26.6705 11.4337C25.7799 12.7317 24.8893 14.0297 24.0329 15.3443C23.502 16.143 23.4335 17.208 24.2042 17.9735C24.5638 18.3396 24.718 18.7723 24.718 19.3048C24.7009 21.6012 24.718 23.8976 24.718 26.194C24.718 26.2938 24.718 26.3937 24.718 26.5102C29.8219 26.5102 34.9087 26.5102 39.9955 26.5102C39.9783 24.064 39.9783 21.6677 39.9783 19.2715Z" fill="#E9164D"/>
<path d="M24.4953 19.1217C23.9473 19.1217 23.3992 19.1217 22.8511 19.1217C16.1886 19.1217 9.54329 19.1217 2.88081 19.1217C2.60678 19.1217 2.34987 19.0884 2.14435 18.8721C2.07584 18.8055 2.00733 18.7223 1.93882 18.6391C1.73329 18.4228 1.52777 18.506 1.28799 18.5892C1.08246 18.6557 1.03108 18.7889 1.03108 18.9885C1.03108 19.5044 1.01395 20.0203 1.01395 20.5361C1.01395 21.7675 1.03108 22.9989 1.0482 24.2137C1.0482 24.5132 1.0482 24.8128 1.0482 25.1123C1.21948 25.1622 1.33937 25.1622 1.45926 25.1622C1.76755 25.1622 2.07584 25.1622 2.367 25.1456C2.88081 25.1456 3.06921 25.4784 3.01783 25.9443C2.98358 26.1773 2.89794 26.4103 2.84656 26.6266C2.76092 27.026 2.69242 27.442 2.91507 27.8081C3.41176 27.8081 3.89132 27.8081 4.37088 27.8081C4.38801 27.7748 4.38801 27.7415 4.38801 27.7083C4.54215 26.7265 4.81619 25.7779 5.27862 24.896C5.82669 23.8143 6.59742 22.9324 7.77919 22.4498C8.61843 22.1003 9.50904 22.0671 10.3825 22.0504C11.3245 22.0338 12.2665 22.1669 13.2085 22.3C14.1676 22.4498 15.0583 22.7493 15.8632 23.2818C17.0964 24.1139 18.0726 25.1789 18.8091 26.4436C20.6931 26.4436 22.5942 26.4436 24.4953 26.4436C24.4953 24.014 24.4953 21.5845 24.4953 19.1217Z" fill="#E9164D"/>
<path d="M39.0535 16.5424C39.0535 16.6089 39.0363 16.6422 39.0535 16.6755C39.2076 17.391 39.3618 18.1066 39.4988 18.8221C39.533 19.0551 39.6529 19.0884 39.8413 19.0717C40.2866 19.0551 40.7319 19.0551 41.1772 19.0551C46.1784 19.0385 51.1966 19.0717 56.1978 19.0385C57.8249 19.0218 59.452 19.0218 61.0962 19.0218C65.3608 19.0218 69.6084 19.0218 73.8731 19.0218C73.9758 19.0218 74.0786 19.0551 74.2156 18.9719C74.2156 18.6058 74.2156 18.2231 74.2156 17.8403C74.2156 17.7238 74.1985 17.6074 74.1985 17.4909C74.1471 16.975 73.7532 16.6256 73.2222 16.6256C72.5714 16.6256 71.9206 16.6256 71.2697 16.6256C67.4846 16.6256 63.6995 16.6256 59.9144 16.6256C57.2597 16.6256 54.605 16.6256 51.9674 16.6256C47.9596 16.6256 43.9518 16.6256 39.9269 16.6256C39.6187 16.6256 39.3275 16.7088 39.0535 16.5424Z" fill="#E9164D"/>
<path d="M24.4953 18.9719C24.4953 18.922 24.4953 18.9054 24.4953 18.8887C24.4611 18.4561 24.1699 18.1732 23.913 17.8737C23.5533 17.441 23.3992 16.9751 23.4677 16.4259C23.5191 16.0432 23.639 15.6771 23.8445 15.2777C23.6732 15.3776 23.5362 15.3609 23.3992 15.3609C22.3887 15.3609 21.3782 15.3609 20.3677 15.3609C17.576 15.3776 14.7842 15.3609 11.9925 15.3942C9.47479 15.4275 6.95709 15.4108 4.43939 15.4108C3.90845 15.4108 3.3775 15.494 2.88081 15.6771C1.44213 16.1929 0.825551 17.1415 1.03108 18.5559C1.08246 18.5393 1.13384 18.5226 1.1681 18.4894C1.66478 18.273 1.83606 18.2897 2.1786 18.7057C2.34987 18.9054 2.57253 18.9719 2.81231 18.9553C3.03496 18.9553 3.25761 18.9719 3.48027 18.9719C5.05597 18.9719 6.61454 18.9553 8.19025 18.9387C9.30351 18.9387 10.4168 18.922 11.5301 18.922C15.1439 18.922 18.7577 18.9054 22.3544 18.9387C23.0909 18.9387 23.7931 18.9387 24.4953 18.9719Z" fill="#E9164D"/>
<path d="M1.0482 18.5393C1.09959 18.5227 1.15097 18.506 1.18522 18.4727C1.68191 18.2564 1.85318 18.2731 2.19573 18.6891C2.367 18.8888 2.58965 18.9553 2.82943 18.9387C3.05209 18.9387 3.27474 18.9553 3.49739 18.9553C5.0731 18.9553 6.63167 18.9387 8.20737 18.922C9.32064 18.922 10.4339 18.9054 11.5472 18.9054C15.161 18.9054 18.7749 18.8888 22.3716 18.922C23.0738 18.922 23.7589 18.9387 24.4782 18.9553C24.4782 18.9054 24.4782 18.8888 24.4782 18.8721C24.4611 18.5559 24.2727 18.3063 24.0843 18.0734H1.01395C1.01395 18.2398 1.03108 18.3895 1.0482 18.5393Z" fill="#EF5270"/>
<path d="M50.6657 26.6932C40.0811 26.6267 29.4965 26.66 18.8947 26.6433C19.0831 27.0427 19.2544 27.4088 19.3572 27.7915C29.7363 27.7915 40.0982 27.7915 50.4602 27.7915C50.5116 27.4254 50.5801 27.0593 50.6657 26.6932Z" fill="#B3B3B3"/>
<path d="M39.8071 16.4759C39.8584 16.1264 39.7728 15.8269 39.7728 15.5107C39.7728 13.8799 39.7728 12.2491 39.7728 10.6017C39.7728 9.91943 39.8413 9.23717 39.7728 8.5549C39.7385 8.13888 39.4474 7.78943 39.0706 7.78943C35.217 7.78943 31.3633 7.78943 27.5097 7.78943C27.3556 7.78943 27.2357 7.83935 27.1158 7.90591C26.8418 8.1056 26.6705 8.38849 26.4478 8.70467C26.739 8.58818 26.9617 8.48834 27.2357 8.50498C30.3186 8.52162 33.4015 8.43841 36.4844 8.48834C37.1181 8.50498 37.786 8.83779 37.9402 9.60326C37.9916 9.85287 38.0258 10.1025 38.0601 10.3521C38.2314 11.4504 38.3855 12.532 38.5568 13.6303C38.6767 14.4124 38.7794 15.1945 38.8993 15.9766C38.9507 16.3427 39.1391 16.4759 39.5159 16.4759C39.6187 16.4759 39.7043 16.4759 39.8071 16.4759Z" fill="#E9164D"/>
<path d="M21.1213 15.1945C21.892 15.1945 22.5942 15.1778 23.2793 15.1945C23.7589 15.2111 24.0672 15.0114 24.3241 14.6287C25.129 13.3973 25.9169 12.1659 26.7733 10.9511C27.1672 10.3853 27.5269 9.8029 27.8865 9.20384C28.1092 8.8211 27.955 8.58813 27.5097 8.58813C26.8418 8.58813 26.3108 8.83775 25.8826 9.35361C24.6837 10.8346 23.4506 12.3156 22.2346 13.7967C21.892 14.246 21.5323 14.6953 21.1213 15.1945Z" fill="white"/>
<path d="M64.9498 26.6266C65.0868 26.9594 65.2238 27.2589 65.3266 27.5751C65.378 27.7582 65.4636 27.8247 65.6691 27.8247C67.9813 27.8247 70.2935 27.8247 72.6056 27.8247C72.6913 27.8247 72.7769 27.8414 72.8283 27.8081C72.9824 27.3921 72.9482 27.0093 72.7427 26.6266C70.1565 26.6266 67.5702 26.6266 64.9498 26.6266Z" fill="#B3B3B3"/>
<path d="M67.5531 13.7968C67.8614 14.1462 67.7586 14.479 67.5702 14.8285C67.3818 15.1779 67.0735 15.4442 66.7995 15.7104C66.7481 15.7604 66.6454 15.7936 66.6625 15.8768C66.6968 16.0932 66.5769 16.2596 66.4741 16.4426C66.5769 16.4925 66.6796 16.4759 66.7653 16.4759C68.2039 16.4759 69.6426 16.4593 71.0813 16.4759C71.3553 16.4759 71.4752 16.3761 71.5437 16.1597C71.5609 16.1098 71.578 16.0599 71.5951 16.01C71.6979 15.777 71.6123 15.6605 71.3725 15.5607C70.6018 15.2445 69.8482 14.895 69.0946 14.5622C68.5807 14.3126 68.0669 14.0464 67.5531 13.7968Z" fill="#CF9059"/>
<path d="M51.0939 5.85912C51.111 5.72599 51.2309 5.69271 51.3337 5.64279C51.8475 5.3599 52.3784 5.09365 52.8066 4.69427C53.0806 4.44466 53.0635 4.36146 52.7038 4.26161C52.4641 4.19505 52.2243 4.14513 51.9674 4.07857C51.7961 4.02864 51.7618 3.9288 51.8817 3.81231C51.9674 3.72911 52.0187 3.59599 52.19 3.57935C52.2585 3.74575 52.0187 3.77903 52.0359 3.9288C52.2928 3.99536 52.5668 4.04528 52.8237 4.12849C53.2005 4.24497 53.269 4.47794 52.995 4.76083C52.5839 5.17685 52.0701 5.40982 51.5734 5.69271C51.5049 5.74263 51.4193 5.77591 51.3508 5.80919C51.7618 6.07545 51.7618 6.24185 51.385 6.54138C51.3337 6.59131 51.2651 6.62459 51.2138 6.65787C51.0425 6.77435 50.8541 6.82428 50.9226 7.12381C50.974 7.34014 50.7856 7.55646 50.6143 7.70623C50.3232 7.98912 49.9977 8.25537 49.7066 8.52162C49.7408 8.63811 49.8607 8.67139 49.9292 8.73795C50.1861 8.93764 50.2204 9.15397 49.9806 9.3703C49.6381 9.68647 49.2099 9.88616 48.7646 10.0526C48.7132 10.0692 48.6447 10.1025 48.5933 10.0193C48.5933 9.9028 48.7132 9.9028 48.7988 9.86952C49.1242 9.71975 49.4497 9.55334 49.7408 9.33702C50.0149 9.13733 50.0149 9.02084 49.7408 8.8378C49.3983 8.60483 49.3983 8.53826 49.7066 8.27201C49.9806 8.03904 50.2546 7.83936 50.4944 7.57311C50.6314 7.4067 50.8541 7.24029 50.6314 6.97404C50.5801 6.90748 50.6828 6.82428 50.7513 6.77435C50.9397 6.64123 51.1281 6.5081 51.3165 6.37498C51.5563 6.17529 51.5392 6.14201 51.2651 6.00888C51.1966 5.95896 51.1281 5.94232 51.0939 5.85912Z" fill="#1D262D"/>
<path d="M59.8287 7.39004C60.1542 7.63965 60.1542 7.82269 59.863 8.15551C59.7089 8.32191 59.5376 8.45504 59.3321 8.6048C59.4348 8.68801 59.5718 8.73793 59.5547 8.87106C59.5376 9.00418 59.4519 9.10402 59.3492 9.18723C59.1608 9.33699 58.9724 9.52004 58.7155 9.56996C58.8867 9.28707 59.2293 9.18723 59.3663 8.8877C58.9895 8.68801 59.0066 8.70465 59.3492 8.42176C59.5376 8.27199 59.726 8.10559 59.8459 7.88926C59.9144 7.75613 59.9144 7.67293 59.7431 7.62301C59.6575 7.60636 59.5547 7.58972 59.5547 7.47324C59.5376 7.35676 59.6403 7.32347 59.726 7.27355C60.1542 7.02394 60.5652 6.77433 60.9078 6.42488C61.0105 6.30839 61.1133 6.20855 61.079 6.05878C61.0277 5.90902 60.8735 5.92566 60.7536 5.89238C60.6337 5.85909 60.5138 5.85909 60.3939 5.84245C60.3254 5.84245 60.2741 5.80917 60.2569 5.74261C60.2398 5.67605 60.2912 5.64277 60.3426 5.59284C60.4625 5.50964 60.5823 5.42644 60.7022 5.34323C60.9934 5.14355 61.3188 4.9605 61.4901 4.62769C61.6442 4.69425 61.5928 4.79409 61.5415 4.8773C61.3873 5.12691 61.1304 5.26003 60.9078 5.42644C60.8221 5.493 60.7194 5.52628 60.6509 5.62613C60.7194 5.70933 60.8221 5.69269 60.9249 5.70933C61.3531 5.80917 61.4558 6.12535 61.1475 6.44152C60.9078 6.70777 60.6166 6.9241 60.3083 7.12379C60.137 7.20699 59.9829 7.29019 59.8287 7.39004Z" fill="#1D262D"/>
<path d="M45.5618 14.9116C45.2192 15.8435 45.2535 15.727 45.0994 15.7436C45.0651 15.727 45.048 15.677 45.0822 15.6604C45.2192 15.4607 45.2878 15.2444 45.3563 15.0114C45.3905 14.845 45.459 14.6786 45.7159 14.7784C45.853 14.8284 45.8872 14.7119 45.9215 14.612C46.0414 14.2293 46.0414 13.8299 46.0756 13.4306C46.0927 13.2142 46.1099 13.0645 46.4181 13.0977C46.7093 13.131 47.1375 12.6817 47.2231 12.2823C47.2745 12.0327 47.2916 11.7831 47.3259 11.5335C47.343 11.417 47.3601 11.3338 47.4972 11.2839C47.6342 11.234 47.6513 11.1009 47.7027 10.9844C47.7541 10.8513 47.7027 10.6848 47.8397 10.5684C47.9596 10.818 47.874 11.2673 47.6342 11.4004C47.4972 11.4836 47.4972 11.5668 47.48 11.6833C47.4458 12.1659 47.3944 12.6318 47.0005 12.9813C46.7607 13.1976 46.6751 13.2475 46.2983 13.2808C46.2126 13.547 46.2298 13.8466 46.1955 14.1295C46.1612 14.3125 46.1441 14.4789 46.0756 14.6453C45.9557 14.9282 45.8872 14.9781 45.5618 14.9116Z" fill="#1D262D"/>
<path d="M53.3033 12.8649C53.3033 13.0978 53.132 13.2809 52.8922 13.2809C52.6011 13.2975 52.3613 13.0812 52.3442 12.8149C52.3442 12.582 52.5326 12.3989 52.7895 12.3989C53.0635 12.3989 53.3033 12.6153 53.3033 12.8649Z" fill="#F9FBFC"/>
<path d="M43.1297 6.67453C42.8728 6.67453 42.7016 6.52476 42.7016 6.30843C42.7016 6.07546 42.9413 5.90906 43.2496 5.90906C43.438 5.90906 43.5922 6.07546 43.5922 6.27515C43.575 6.50812 43.3866 6.67453 43.1297 6.67453Z" fill="#F9FBFC"/>
<path d="M64.6586 15.3941C64.6586 15.6271 64.4874 15.8268 64.2818 15.8268C64.0763 15.8268 63.905 15.6105 63.905 15.3609C63.905 15.1612 64.042 15.0613 64.2304 15.0447C64.4874 15.0447 64.6586 15.1944 64.6586 15.3941Z" fill="#F9FBFC"/>
<path d="M54.7248 15.2944C54.7248 15.078 54.8961 14.9116 55.0845 14.9116C55.2729 14.9116 55.4271 15.0614 55.4271 15.2611C55.4271 15.5273 55.29 15.7104 55.1016 15.7104C54.8961 15.6937 54.7248 15.5107 54.7248 15.2944Z" fill="#F9FBFC"/>
<path d="M60.6166 12.6318C60.6166 12.8148 60.4453 12.948 60.2398 12.948C60.0514 12.9313 59.8973 12.7816 59.8973 12.5985C59.8973 12.4155 60.0514 12.2823 60.2398 12.2823C60.4453 12.2823 60.6337 12.4488 60.6166 12.6318Z" fill="#F9FBFC"/>
<path d="M65.8061 6.84089C65.8061 7.04058 65.652 7.27355 65.515 7.27355C65.3608 7.27355 65.1553 7.0905 65.1724 6.92409C65.1896 6.74105 65.2752 6.59128 65.4807 6.59128C65.652 6.57464 65.789 6.67448 65.8061 6.84089Z" fill="#F9FBFC"/>
<path d="M55.1702 4.57773C55.1702 4.39468 55.3243 4.22827 55.5127 4.22827C55.7011 4.22827 55.821 4.32812 55.8381 4.5278C55.8552 4.67757 55.6497 4.86062 55.4784 4.86062C55.3072 4.86062 55.1702 4.72749 55.1702 4.57773Z" fill="#F9FBFC"/>
<path d="M39.9955 4.36142C39.9783 4.56111 39.8584 4.66095 39.6529 4.67759C39.4645 4.67759 39.3104 4.52783 39.3275 4.36142C39.3446 4.16173 39.4816 4.06189 39.6872 4.06189C39.8756 4.07853 39.9955 4.17837 39.9955 4.36142Z" fill="#F9FBFC"/>
<path d="M49.895 15.4441C49.8778 15.6271 49.7922 15.7602 49.5867 15.7436C49.3983 15.727 49.2955 15.6105 49.2955 15.4274C49.2955 15.261 49.3983 15.1445 49.5867 15.1445C49.7922 15.1445 49.8778 15.261 49.895 15.4441Z" fill="#F9FBFC"/>
<path d="M65.3437 14.1794C65.5321 14.1794 65.6177 14.2793 65.6006 14.4457C65.5835 14.6121 65.5664 14.7785 65.3266 14.7619C65.1382 14.7452 65.0012 14.662 65.0012 14.479C65.0183 14.246 65.1896 14.2127 65.3437 14.1794Z" fill="#F9FBFC"/>
<path d="M50.5287 13.0978C50.7171 13.1144 50.837 13.181 50.837 13.3807C50.837 13.597 50.6657 13.6469 50.4944 13.6469C50.3232 13.6469 50.2375 13.5471 50.2375 13.3807C50.2375 13.1976 50.3403 13.1144 50.5287 13.0978Z" fill="#F9FBFC"/>
<path d="M43.5922 10.2855C43.4209 10.2688 43.3181 10.1856 43.3181 10.0192C43.3181 9.83617 43.4209 9.73633 43.6093 9.73633C43.7806 9.73633 43.8833 9.83617 43.8833 10.0026C43.9005 10.169 43.7977 10.2688 43.5922 10.2855Z" fill="#F9FBFC"/>
<path d="M40.064 6.42493C40.2181 6.45821 40.338 6.52477 40.338 6.69118C40.338 6.85758 40.2352 6.95743 40.064 6.95743C39.9098 6.95743 39.8071 6.85758 39.8071 6.70782C39.7899 6.52477 39.9098 6.44157 40.064 6.42493Z" fill="#F9FBFC"/>
<path d="M48.3364 4.99383C48.3193 5.14359 48.2336 5.2268 48.0795 5.2268C47.9082 5.2268 47.8055 5.12695 47.8055 4.96055C47.8055 4.81078 47.9082 4.6943 48.0624 4.71094C48.2679 4.71094 48.3193 4.84406 48.3364 4.99383Z" fill="#F9FBFC"/>
<path d="M55.3072 9.65313C55.153 9.61985 55.0331 9.53665 55.0503 9.37024C55.0674 9.23712 55.153 9.13727 55.3072 9.15391C55.4613 9.17055 55.547 9.2704 55.5641 9.42016C55.547 9.56993 55.4442 9.63649 55.3072 9.65313Z" fill="#F9FBFC"/>
<path d="M37.0496 3.4129C36.8954 3.37962 36.7927 3.29642 36.8098 3.14665C36.8269 2.99688 36.9126 2.91368 37.0667 2.93032C37.2208 2.94696 37.3065 3.04681 37.3065 3.17993C37.2894 3.31306 37.2037 3.4129 37.0496 3.4129Z" fill="#F9FBFC"/>
<path d="M63.7166 7.98913C63.5796 7.97249 63.494 7.92257 63.494 7.7728C63.494 7.62304 63.5967 7.53983 63.7338 7.52319C63.8708 7.52319 63.9907 7.58976 63.9735 7.75616C63.9735 7.90593 63.8708 7.98913 63.7166 7.98913Z" fill="#F9FBFC"/>
<path d="M37.7347 2.2647C37.8888 2.28134 37.9916 2.33127 37.9744 2.46439C37.9573 2.59752 37.8717 2.68072 37.7347 2.68072C37.5976 2.68072 37.4949 2.59752 37.512 2.46439C37.5291 2.31463 37.6319 2.24806 37.7347 2.2647Z" fill="#F9FBFC"/>
<path d="M62.3122 12.5819C62.1923 12.5653 62.0724 12.5154 62.0724 12.3656C62.0724 12.2491 62.1409 12.1659 62.2608 12.1825C62.3978 12.1992 62.5348 12.2657 62.5348 12.4322C62.552 12.5486 62.4492 12.5653 62.3122 12.5819Z" fill="#F9FBFC"/>
<path d="M52.2414 8.38851C52.1215 8.37187 52.0187 8.32194 52.0187 8.18882C52.0016 8.05569 52.0701 7.95585 52.2243 7.93921C52.3613 7.93921 52.4469 8.02241 52.4469 8.15554C52.4469 8.3053 52.3784 8.37187 52.2414 8.38851Z" fill="#F9FBFC"/>
<path d="M57.1912 6.47477C57.0541 6.45813 56.9514 6.39157 56.9685 6.2418C56.9685 6.12532 57.0541 6.04211 57.1912 6.04211C57.3282 6.04211 57.3967 6.12532 57.3967 6.25844C57.3796 6.39157 57.3282 6.45813 57.1912 6.47477Z" fill="#F9FBFC"/>
<path d="M44.3286 11.8331C44.3115 11.9496 44.243 12.0161 44.1231 11.9995C44.0203 11.9828 43.9176 11.9329 43.9176 11.7998C43.9176 11.6833 43.9861 11.6001 44.106 11.6167C44.2259 11.6167 44.3115 11.6833 44.3286 11.8331Z" fill="#F9FBFC"/>
<path d="M46.4695 4.47791C46.3668 4.47791 46.2811 4.42799 46.2811 4.3115C46.264 4.19502 46.3325 4.11182 46.4524 4.11182C46.5723 4.11182 46.6579 4.17838 46.6579 4.29486C46.6579 4.39471 46.5894 4.46127 46.4695 4.47791Z" fill="#F9FBFC"/>
<path d="M40.1839 7.55639C40.1839 7.63959 40.1325 7.68951 40.0297 7.68951C39.9441 7.68951 39.8927 7.62295 39.8927 7.53974C39.8927 7.45654 39.9441 7.38998 40.0468 7.40662C40.1325 7.40662 40.1839 7.45654 40.1839 7.55639Z" fill="#F9FBFC"/>
<path d="M48.1651 16.1263C48.1651 16.0431 48.2165 15.9932 48.3021 15.9766C48.3878 15.9766 48.4563 16.0098 48.4734 16.093C48.4734 16.1762 48.422 16.2428 48.3364 16.2428C48.2508 16.2595 48.1994 16.2095 48.1651 16.1263Z" fill="#F9FBFC"/>
<path d="M71.1841 24.663C70.7902 24.663 70.3962 24.6797 70.0023 24.663C69.7283 24.6464 69.4885 24.5465 69.3686 24.2803C69.2487 23.9974 69.2487 23.7145 69.42 23.4649C69.5399 23.2985 69.7111 23.2652 69.8995 23.2486C70.6018 23.2153 71.304 23.2819 72.0062 23.2985C72.1946 23.2985 72.3316 23.3983 72.4172 23.5647C72.7255 24.0806 72.3487 24.6797 71.6808 24.7129C71.5095 24.7296 71.3382 24.7129 71.1498 24.7129C71.1841 24.6963 71.1841 24.6797 71.1841 24.663Z" fill="#1D262D"/>
<path d="M70.4305 23.4482C70.4305 23.4316 70.4305 23.415 70.4305 23.3983C70.2763 23.3983 70.1222 23.3983 69.968 23.3983C69.6426 23.415 69.4542 23.598 69.4542 23.9142C69.4542 24.2803 69.694 24.4966 70.1051 24.5132C70.4476 24.5299 70.8073 24.5299 71.1498 24.5465C71.4067 24.5632 71.6465 24.5798 71.9034 24.5132C72.246 24.43 72.3659 24.2636 72.3316 23.831C72.3145 23.5647 72.1775 23.4482 71.8349 23.4316C71.3725 23.4316 70.91 23.4482 70.4305 23.4482Z" fill="#FFE83E"/>
<path d="M30.6783 16.1762C30.7468 16.326 30.7981 16.4259 30.8667 16.5423C30.9694 16.7088 30.9352 16.792 30.7296 16.792C30.2329 16.7753 29.7876 16.6755 29.4451 16.2927C29.4108 16.2428 29.3595 16.2095 29.3252 16.1596C29.3081 16.143 29.291 16.143 29.2738 16.1263C29.0854 16.2761 28.9142 16.4259 28.7258 16.5756C28.6572 16.6255 28.5716 16.6921 28.486 16.7254C28.349 16.7587 28.2291 16.742 28.1263 16.6422C28.0407 16.5423 28.0578 16.4425 28.1092 16.326C28.1263 16.2761 28.1777 16.2428 28.1606 16.1762C27.7666 16.1762 27.3898 16.1762 26.9959 16.1762C26.2081 16.1762 25.7456 15.5938 25.934 14.8616C25.9683 14.7285 26.071 14.6287 26.1395 14.5122C26.9617 12.9812 27.7838 11.4503 28.6401 9.936C28.8628 9.55326 29.2053 9.3203 29.702 9.3203C31.8429 9.3203 33.9838 9.33694 36.1418 9.3203C36.9468 9.30365 37.2722 9.63647 37.375 10.4186C37.512 11.5002 37.649 12.5985 37.786 13.6801C37.8546 14.196 37.9059 14.6952 37.9573 15.2111C38.0258 15.7602 37.5634 16.1929 36.9982 16.1929C34.8744 16.1596 32.802 16.1762 30.6783 16.1762Z" fill="#1D262D"/>
<path d="M33.0247 9.45349C31.9628 9.45349 30.918 9.48677 29.8562 9.45349C29.2396 9.43685 28.8799 9.7031 28.623 10.1857C27.8865 11.5835 27.1158 12.9647 26.3622 14.3458C26.2423 14.5455 26.2252 14.7619 26.2252 14.9782C26.2252 15.3276 26.3793 15.4774 26.7561 15.5606C27.1672 15.6605 27.5954 15.6605 28.0235 15.6937C28.2462 15.7104 28.486 15.727 28.6915 15.6438C28.8628 15.5773 28.9998 15.5273 28.9484 15.2444C28.8628 14.7951 28.9142 14.3292 29.1711 13.9298C29.2224 13.8633 29.2567 13.7634 29.3595 13.7634C29.4794 13.7634 29.4794 13.8633 29.5136 13.9298C29.7705 14.429 30.0274 14.9449 30.2672 15.4441C30.3357 15.5939 30.4214 15.6272 30.5755 15.6272C32.0656 15.6272 33.5556 15.6272 35.0457 15.6272C35.6623 15.6272 36.2789 15.6272 36.8954 15.6272C37.3921 15.6272 37.7518 15.311 37.7004 14.9116C37.6148 14.1794 37.512 13.4472 37.4264 12.6984C37.3236 11.8664 37.238 11.0343 37.1352 10.219C37.0838 9.7863 36.8441 9.40356 36.3302 9.40356C35.2512 9.47013 34.138 9.45349 33.0247 9.45349Z" fill="white"/>
<path d="M30.7468 16.609C30.233 15.7603 29.7876 14.8783 29.3766 13.9797C29.0169 14.3791 28.9998 15.2111 29.3252 15.8601C29.5992 16.3594 30.1473 16.6589 30.7468 16.609Z" fill="#CE061A"/>
<path d="M37.7004 15.5273C37.3407 15.7603 36.9982 15.8269 36.6214 15.8269C34.686 15.8102 32.7335 15.8269 30.7981 15.8269C30.7125 15.8269 30.6097 15.7936 30.5241 15.8435C30.5412 16.0266 30.6611 16.0266 30.7981 16.0266C32.8877 16.0266 34.9772 16.0266 37.0667 16.0266C37.3407 16.0266 37.5634 15.8602 37.7004 15.5273Z" fill="#E9164D"/>
<path d="M28.5031 15.8269C28.0235 15.8103 27.5782 15.8269 27.1158 15.777C26.3622 15.6938 26.1567 15.544 26.1053 14.9449C25.8826 15.4275 26.2766 15.9933 26.8589 16.0099C27.3042 16.0266 27.7666 16.0099 28.2119 16.0099C28.349 16.0266 28.4346 15.96 28.5031 15.8269Z" fill="#E9164D"/>
<path d="M29.0341 15.6438C28.7771 15.8435 28.5202 16.0432 28.2976 16.2761C28.2291 16.3593 28.1434 16.4592 28.2462 16.559C28.349 16.6589 28.4689 16.5923 28.5545 16.5091C28.7943 16.3427 28.9998 16.143 29.2053 15.9267C29.1368 15.8435 29.1026 15.7436 29.0341 15.6438Z" fill="#CE061A"/>
<path d="M4.95321 18.2564C4.55928 18.2897 4.11397 18.2065 3.65154 18.2065C3.48027 18.2065 3.29187 18.1732 3.20623 17.9902C3.10347 17.8072 3.15485 17.6407 3.32612 17.5409C3.46314 17.4577 3.61728 17.4078 3.77143 17.4078C4.54215 17.3911 5.31288 17.4078 6.0836 17.491C6.272 17.5076 6.40902 17.5908 6.42614 17.7739C6.44327 17.9569 6.34051 18.1067 6.13498 18.1732C5.84382 18.2731 5.55266 18.2564 5.2615 18.2564C5.17586 18.2564 5.09022 18.2564 4.95321 18.2564Z" fill="#1D262D"/>
<path d="M5.12448 18.0734C5.31288 18.0734 5.58691 18.09 5.87807 18.0734C6.04935 18.0568 6.28913 18.0068 6.25487 17.7905C6.23775 17.5908 5.99796 17.6075 5.84382 17.6075C5.19299 17.5742 4.52503 17.5243 3.87419 17.5409C3.72005 17.5409 3.5659 17.5742 3.42889 17.6574C3.25761 17.7572 3.25761 17.9236 3.44601 18.0068C3.51452 18.0401 3.60016 18.0568 3.66867 18.0568C4.11397 18.0401 4.55928 18.14 5.12448 18.0734Z" fill="#FFE83E"/>
<path d="M3.03496 16.9751C3.03496 17.2912 2.79518 17.4909 2.45264 17.4909C2.16147 17.4909 1.95595 17.2912 1.93882 17.025C1.93882 16.7754 2.24711 16.4758 2.52114 16.4758C2.81231 16.4758 3.03496 16.7088 3.03496 16.9751Z" fill="#1D262D"/>
<path d="M0.260354 26.6765C0.311736 27.0426 0.34599 27.3755 0.431626 27.6916C0.500135 27.9912 0.65428 28.2408 1.03108 28.274C1.49351 28.324 1.95595 28.324 2.40125 28.2574C2.72667 28.2075 2.82943 28.0411 2.69242 27.7415C2.57253 27.442 2.53827 27.1258 2.60678 26.8097C2.67529 26.5268 2.7438 26.2439 2.81231 25.9444C2.91507 25.5283 2.7438 25.312 2.29849 25.312C1.71617 25.312 1.13384 25.312 0.551516 25.312C0.277481 25.312 0.157591 25.4285 0.157591 25.6947C0.157591 25.8944 0.208972 26.0941 0.208972 26.2938C0.208972 26.5434 0.311736 26.5767 0.551516 26.5601C1.08246 26.5101 1.6134 26.4935 2.14435 26.5767C2.26424 26.5933 2.33275 26.6599 2.367 26.7597C2.38413 26.8762 2.38413 26.9761 2.28136 27.0593C2.16147 27.1591 2.04158 27.1924 1.90457 27.1924C1.6134 27.1924 1.32224 27.209 1.04821 27.209C0.979696 27.209 0.911188 27.2257 0.876933 27.1258C1.01395 27.0593 1.1681 27.0426 1.32224 27.0426C1.54489 27.0426 1.76755 27.0426 2.00733 27.026C2.11009 27.0094 2.26424 26.9927 2.24711 26.843C2.24711 26.6932 2.11009 26.6932 1.9902 26.6932C1.40788 26.6765 0.859806 26.6765 0.260354 26.6765Z" fill="#B3B3B3"/>
<path d="M74.6438 27.1424C74.13 27.1424 73.6333 27.1424 73.1537 27.1424C73.1195 27.3089 73.1023 27.4586 73.0681 27.6084C72.9824 27.9911 73.2051 28.274 73.6161 28.2907C73.8559 28.3073 74.0786 28.274 74.3184 28.2407C74.4896 28.2241 74.5924 28.1575 74.6609 28.0078C74.9007 27.4586 74.9349 26.8928 74.815 26.3271C74.7979 26.2439 74.7465 26.144 74.6438 26.1606C74.1813 26.2605 73.7018 26.1939 73.2393 26.3104C73.0338 26.3603 72.9482 26.5101 72.9996 26.7098C73.0338 26.8096 73.0681 26.9095 73.1023 26.9927C73.3764 26.9927 73.6504 27.0093 73.9073 26.9927C74.3869 26.9594 74.4554 26.9594 74.6438 27.1424Z" fill="#B3B3B3"/>
<path d="M0.825552 23.3817C0.825552 21.9173 0.825552 20.5029 0.825552 19.0219C0.568644 19.2548 0.551517 19.5377 0.53439 19.804C0.465881 20.8357 0.431626 21.8674 0.568644 22.8991C0.602898 23.0822 0.65428 23.2319 0.825552 23.3817Z" fill="#FFE83E"/>
<path d="M2.48689 17.2746C2.67529 17.2746 2.88082 17.1082 2.88082 16.9418C2.88082 16.7588 2.69242 16.609 2.48689 16.6257C2.28136 16.6257 2.11009 16.7921 2.11009 16.9751C2.12722 17.1249 2.29849 17.2746 2.48689 17.2746Z" fill="#FFE83E"/>
<path d="M73.2051 27.3588C73.5819 27.2922 73.9587 27.3422 74.3184 27.3255C74.3184 27.3588 74.3184 27.3754 74.3184 27.4087C73.9416 27.4254 73.5648 27.4587 73.2051 27.4753C73.2051 27.442 73.2051 27.4087 73.2051 27.3588Z" fill="#1D262D"/>
<path d="M74.1813 21.2018H40.1667C40.1667 22.9657 40.1667 24.713 40.1667 26.4935C40.2524 26.4935 40.3209 26.4935 40.3894 26.4935C42.359 26.4935 44.3115 26.5102 46.2811 26.5102C47.6856 26.5102 49.1071 26.5102 50.5116 26.5102C50.7 26.5102 50.7685 26.4436 50.8027 26.2772C50.9397 25.8112 51.1281 25.3453 51.3508 24.9126C51.9331 23.7977 52.721 22.8991 53.9541 22.4332C54.7591 22.1337 55.5983 22.0837 56.4376 22.0671C57.3967 22.0505 58.3387 22.1836 59.2807 22.3333C60.2398 22.4831 61.1304 22.7826 61.9183 23.3151C63.0829 24.0973 64.0249 25.0957 64.7443 26.2938C64.7956 26.3937 64.8299 26.4935 64.984 26.4769C66.0117 26.427 67.0393 26.4602 68.0669 26.4602C69.5741 26.4602 71.0813 26.4602 72.5885 26.4602C72.6741 26.4602 72.7769 26.5102 72.8283 26.4103C72.9311 26.2106 73.1366 26.1607 73.3421 26.1274C73.4963 26.0941 73.6504 26.1108 73.8045 26.0941C74.1642 26.0775 74.1642 26.0941 74.1642 25.728C74.1642 25.4784 74.1471 25.2122 74.1471 24.9626C74.1813 23.7145 74.1813 22.4498 74.1813 21.2018Z" fill="#E9164D"/>
<path d="M24.7009 26.1607C24.7009 26.2605 24.7009 26.3604 24.7009 26.4769C29.8048 26.4769 34.8915 26.4769 39.9783 26.4769C39.9783 24.713 39.9783 22.9491 39.9783 21.2018H24.7009C24.7009 22.8658 24.7009 24.5133 24.7009 26.1607Z" fill="#E9164D"/>
<path d="M1.0482 24.247C1.0482 24.5466 1.0482 24.8461 1.0482 25.1456C1.21948 25.1955 1.33937 25.1955 1.45926 25.1955C1.76755 25.1955 2.07584 25.1955 2.367 25.1789C2.88081 25.1789 3.06921 25.5117 3.01783 25.9777C2.98358 26.2106 2.89794 26.4436 2.84656 26.6599C2.76092 27.0593 2.69242 27.4753 2.91507 27.8414C3.41176 27.8414 3.89132 27.8414 4.37088 27.8414C4.38801 27.8081 4.38801 27.7748 4.38801 27.7416C4.54215 26.7598 4.81619 25.8112 5.27862 24.9293C5.82669 23.8476 6.59742 22.9657 7.77919 22.4831C8.61843 22.1337 9.50904 22.1004 10.3825 22.0837C11.3245 22.0671 12.2665 22.2002 13.2085 22.3333C14.1676 22.4831 15.0583 22.7826 15.8632 23.3151C17.0964 24.1472 18.0726 25.2122 18.8091 26.4769C20.6931 26.4769 22.5942 26.4769 24.4953 26.4769C24.4953 24.713 24.4953 22.9657 24.4953 21.2018H1.01395C1.03108 22.2169 1.03108 23.2319 1.0482 24.247Z" fill="#E9164D"/>
<path d="M39.3446 18.1066C39.396 18.3395 39.4474 18.5725 39.4816 18.8221C39.5159 19.0551 39.6358 19.0884 39.8242 19.0717C40.2695 19.0551 40.7148 19.0551 41.1601 19.0551C46.1612 19.0384 51.1795 19.0717 56.1807 19.0384C57.8077 19.0218 59.4348 19.0218 61.079 19.0218C65.3437 19.0218 69.5913 19.0218 73.8559 19.0218C73.9587 19.0218 74.0615 19.0551 74.1985 18.9719C74.1985 18.689 74.1985 18.4061 74.1985 18.1066H39.3446Z" fill="#EF5270"/>
<path d="M23.2279 15.7769H4.49077C4.38801 15.7769 4.3195 15.7103 4.3195 15.6105C4.3195 15.5107 4.38801 15.4441 4.49077 15.4441H23.2451C23.3478 15.4441 23.4163 15.5107 23.4163 15.6105C23.3992 15.6937 23.3307 15.7769 23.2279 15.7769Z" fill="#E9164D"/>
<path d="M59.9261 17.3328H41.1718C41.0691 17.3328 41.0006 17.2663 41.0006 17.1664C41.0006 17.0666 41.0691 17 41.1718 17H59.9261C60.0289 17 60.0974 17.0666 60.0974 17.1664C60.0974 17.2663 60.0117 17.3328 59.9261 17.3328Z" fill="#E9164D"/>
<path d="M73.462 17.1248H61.1647C61.0619 17.1248 60.9934 17.0582 60.9934 16.9584C60.9934 16.8586 61.0619 16.792 61.1647 16.792H73.462C73.5648 16.792 73.6333 16.8586 73.6333 16.9584C73.6333 17.0416 73.5648 17.1248 73.462 17.1248Z" fill="#E9164D"/>
<path d="M39.4474 16.2095C39.396 16.2095 39.3617 16.1763 39.3617 16.1263V8.82108C39.3617 8.27194 38.9336 8.10553 38.8651 8.08889H27.818C27.7666 8.08889 27.7324 8.05561 27.7324 8.00569C27.7324 7.95577 27.7666 7.92249 27.818 7.92249H38.8822H38.8993C38.8993 7.92249 39.533 8.10553 39.533 8.82108V16.1263C39.533 16.1763 39.4988 16.2095 39.4474 16.2095Z" fill="#E9164D"/>
<path d="M24.1357 21.1685H4.49077C4.43939 21.1685 4.40514 21.1352 4.40514 21.0853C4.40514 21.0354 4.43939 21.0021 4.49077 21.0021H24.1357C24.187 21.0021 24.2213 21.0354 24.2213 21.0853C24.2213 21.1352 24.187 21.1685 24.1357 21.1685Z" fill="#FF99A8"/>
<path d="M36.7927 21.2018H25.4202C25.3688 21.2018 25.3346 21.1685 25.3346 21.1186C25.3346 21.0687 25.3688 21.0354 25.4202 21.0354H36.7927C36.8441 21.0354 36.8783 21.0687 36.8783 21.1186C36.8783 21.1685 36.8441 21.2018 36.7927 21.2018Z" fill="#FF99A8"/>
<path d="M71.852 21.2018H40.9717C40.9203 21.2018 40.8861 21.1685 40.8861 21.1186C40.8861 21.0687 40.9203 21.0354 40.9717 21.0354H71.852C71.9034 21.0354 71.9377 21.0687 71.9377 21.1186C71.9377 21.1685 71.8863 21.2018 71.852 21.2018Z" fill="#FF99A8"/>
<path d="M2.41838 26.5101H2.40125C2.34987 26.4935 2.33274 26.4602 2.33274 26.4103C2.367 26.2439 2.40125 26.1607 2.43551 26.0941C2.46976 26.0275 2.48689 25.9776 2.50402 25.8611C2.53827 25.6781 2.41838 25.6448 2.367 25.6448H0.380244C0.328863 25.6448 0.294608 25.6115 0.294608 25.5616C0.294608 25.5117 0.328863 25.4784 0.380244 25.4784H2.40125C2.50402 25.495 2.72667 25.5949 2.69242 25.8778C2.67529 26.0275 2.64103 26.0941 2.60678 26.1607C2.57253 26.2272 2.53827 26.2938 2.50402 26.4436C2.50402 26.4935 2.46976 26.5101 2.41838 26.5101Z" fill="#E1ECF4"/>
<path d="M50.5287 27.026H19.203C19.1517 27.026 19.1174 26.9927 19.1174 26.9428C19.1174 26.8929 19.1517 26.8596 19.203 26.8596H50.5287C50.5801 26.8596 50.6143 26.8929 50.6143 26.9428C50.6143 26.9927 50.5801 27.026 50.5287 27.026Z" fill="#E1ECF4"/>
<path d="M72.5543 27.026H65.3094C65.2581 27.026 65.2238 26.9927 65.2238 26.9428C65.2238 26.8929 65.2581 26.8596 65.3094 26.8596H72.5543C72.6056 26.8596 72.6399 26.8929 72.6399 26.9428C72.6399 26.9927 72.6056 27.026 72.5543 27.026Z" fill="#E1ECF4"/>
<path d="M73.2051 26.9428C73.1708 26.9428 73.1366 26.9261 73.1195 26.8928C73.1023 26.8429 73.0338 26.6432 73.1195 26.5101C73.1537 26.4602 73.2051 26.4269 73.2736 26.4269C73.462 26.4103 74.5581 26.2605 74.5753 26.2605C74.6266 26.2605 74.6609 26.2771 74.678 26.3271C74.678 26.377 74.6609 26.4103 74.6095 26.4269C74.5581 26.4269 73.4791 26.5933 73.2907 26.5933C73.2565 26.6266 73.2736 26.7431 73.2907 26.8263C73.3079 26.8762 73.2736 26.9095 73.2393 26.9261C73.2222 26.9428 73.2051 26.9428 73.2051 26.9428Z" fill="#E1ECF4"/>
<path d="M54.6563 31.0031C54.6392 31.0031 54.6221 31.0031 54.6049 30.9865C52.7552 29.9048 52.4812 27.7083 52.4812 27.6916C52.4812 27.6417 52.5154 27.6084 52.5497 27.5918C52.6011 27.5918 52.6353 27.6251 52.6525 27.6584C52.6525 27.675 52.9094 29.7884 54.6906 30.8367C54.7248 30.8534 54.742 30.9033 54.7248 30.9532C54.7077 30.9865 54.6906 31.0031 54.6563 31.0031Z" fill="#E1ECF4"/>
<path d="M8.92672 31.0031C8.90959 31.0031 8.89246 31.0031 8.87533 30.9865C7.0256 29.9048 6.75156 27.7083 6.75156 27.6916C6.75156 27.6417 6.78582 27.6084 6.82007 27.5918C6.87145 27.5918 6.90571 27.6251 6.92283 27.6584C6.92283 27.675 7.17974 29.7884 8.96097 30.8367C8.99522 30.8534 9.01235 30.9033 8.99522 30.9532C8.9781 30.9865 8.94384 31.0031 8.92672 31.0031Z" fill="#E1ECF4"/>
</svg>
