<svg width="76" height="91" viewBox="0 0 76 91" fill="none" xmlns="http://www.w3.org/2000/svg">
<path d="M90.0798 56.1297L60.2123 75.2669C59.3212 75.8213 58.1246 75.5713 57.5366 74.6964L44.142 53.8092C43.5876 52.9181 43.8376 51.7215 44.7125 51.1336L74.58 31.9963C75.4711 31.442 76.6677 31.6919 77.2556 32.5668L90.6503 53.4541C91.2544 54.3625 91.0044 55.5591 90.0798 56.1297Z" fill="#69B95C"/>
<path d="M83.5385 42.309L50.4418 63.5354L51.146 64.6334L84.2427 43.407L83.5385 42.309Z" fill="#E9164D"/>
<path d="M65.0236 38.1194L63.8001 38.9041L79.3326 63.1227L80.5561 62.338L65.0236 38.1194Z" fill="#E9164D"/>
<path d="M47.5342 54.4061C47.9605 54.2003 48.1392 53.6879 47.9334 53.2616C47.7276 52.8353 47.2152 52.6565 46.7889 52.8623C46.3626 53.0681 46.1838 53.5806 46.3896 54.0069C46.5954 54.4332 47.1079 54.6119 47.5342 54.4061Z" fill="#F0F3F7"/>
<path d="M64.2961 62.0392C64.7224 61.8333 64.9011 61.3209 64.6953 60.8946C64.4895 60.4683 63.9771 60.2896 63.5508 60.4954C63.1245 60.7012 62.9457 61.2136 63.1515 61.6399C63.3573 62.0662 63.8698 62.245 64.2961 62.0392Z" fill="#F0F3F7"/>
<path d="M72.0657 58.2468C72.492 58.041 72.6707 57.5286 72.4649 57.1023C72.2591 56.676 71.7467 56.4972 71.3204 56.703C70.894 56.9088 70.7153 57.4213 70.9211 57.8476C71.1269 58.2739 71.6394 58.4526 72.0657 58.2468Z" fill="#F0F3F7"/>
<path d="M69.283 66.6253C69.4869 66.5269 69.5724 66.2818 69.4739 66.0779C69.3755 65.874 69.1304 65.7885 68.9265 65.887C68.7227 65.9854 68.6372 66.2305 68.7356 66.4344C68.834 66.6382 69.0791 66.7237 69.283 66.6253Z" fill="#F0F3F7"/>
<path d="M59.1585 45.4834C59.3624 45.385 59.4478 45.1399 59.3494 44.9361C59.251 44.7322 59.0059 44.6467 58.802 44.7451C58.5981 44.8435 58.5127 45.0886 58.6111 45.2925C58.7095 45.4964 58.9546 45.5819 59.1585 45.4834Z" fill="#F0F3F7"/>
<path d="M56.5455 58.415C56.7494 58.3165 56.8349 58.0715 56.7364 57.8676C56.638 57.6637 56.3929 57.5782 56.189 57.6766C55.9852 57.7751 55.8997 58.0201 55.9981 58.224C56.0965 58.4279 56.3416 58.5134 56.5455 58.415Z" fill="#F0F3F7"/>
<path d="M67.0949 40.4932C67.2988 40.3948 67.3843 40.1497 67.2859 39.9458C67.1874 39.7419 66.9424 39.6564 66.7385 39.7549C66.5346 39.8533 66.4491 40.0984 66.5476 40.3023C66.646 40.5062 66.8911 40.5916 67.0949 40.4932Z" fill="#F0F3F7"/>
<path d="M52.5379 48.1418C52.7418 48.0433 52.8273 47.7983 52.7289 47.5944C52.6304 47.3905 52.3854 47.305 52.1815 47.4034C51.9776 47.5019 51.8921 47.7469 51.9905 47.9508C52.089 48.1547 52.3341 48.2402 52.5379 48.1418Z" fill="#F0F3F7"/>
<path d="M52.9339 52.0475C53.1378 51.9491 53.2233 51.704 53.1249 51.5001C53.0264 51.2963 52.7814 51.2108 52.5775 51.3092C52.3736 51.4076 52.2881 51.6527 52.3865 51.8566C52.485 52.0605 52.73 52.146 52.9339 52.0475Z" fill="#F0F3F7"/>
<path d="M61.5071 55.2333C61.7109 55.1349 61.7964 54.8898 61.698 54.6859C61.5996 54.482 61.3545 54.3966 61.1506 54.495C60.9467 54.5934 60.8612 54.8385 60.9597 55.0424C61.0581 55.2463 61.3032 55.3318 61.5071 55.2333Z" fill="#F0F3F7"/>
<path d="M61.3674 72.5159C61.5713 72.4175 61.6568 72.1724 61.5583 71.9685C61.4599 71.7646 61.2148 71.6792 61.0109 71.7776C60.8071 71.876 60.7216 72.1211 60.82 72.325C60.9184 72.5289 61.1635 72.6143 61.3674 72.5159Z" fill="#F0F3F7"/>
<path d="M67.6332 58.152C67.837 58.0536 67.9225 57.8085 67.8241 57.6046C67.7257 57.4007 67.4806 57.3153 67.2767 57.4137C67.0728 57.5121 66.9873 57.7572 67.0858 57.9611C67.1842 58.165 67.4293 58.2505 67.6332 58.152Z" fill="#F0F3F7"/>
<path d="M74.091 44.4404C74.2949 44.3419 74.3803 44.0968 74.2819 43.893C74.1835 43.6891 73.9384 43.6036 73.7345 43.702C73.5306 43.8005 73.4452 44.0455 73.5436 44.2494C73.642 44.4533 73.8871 44.5388 74.091 44.4404Z" fill="#F0F3F7"/>
<path d="M71.6444 53.7738C71.8483 53.6754 71.9338 53.4303 71.8354 53.2265C71.7369 53.0226 71.4919 52.9371 71.288 53.0355C71.0841 53.134 70.9986 53.379 71.097 53.5829C71.1955 53.7868 71.4406 53.8723 71.6444 53.7738Z" fill="#F0F3F7"/>
<path d="M74.9656 35.4519C75.1694 35.3535 75.2549 35.1084 75.1565 34.9046C75.0581 34.7007 74.813 34.6152 74.6091 34.7136C74.4052 34.812 74.3197 35.0571 74.4182 35.261C74.5166 35.4649 74.7617 35.5504 74.9656 35.4519Z" fill="#F0F3F7"/>
<path d="M63.5201 45.8608C63.724 45.7623 63.8095 45.5173 63.7111 45.3134C63.6126 45.1095 63.3675 45.024 63.1637 45.1224C62.9598 45.2209 62.8743 45.4659 62.9727 45.6698C63.0712 45.8737 63.3162 45.9592 63.5201 45.8608Z" fill="#F0F3F7"/>
<path d="M57.5688 62.7627C57.7726 62.6643 57.8581 62.4192 57.7597 62.2153C57.6613 62.0115 57.4162 61.926 57.2123 62.0244C57.0084 62.1228 56.9229 62.3679 57.0214 62.5718C57.1198 62.7757 57.3649 62.8612 57.5688 62.7627Z" fill="#F0F3F7"/>
<path d="M55.3551 68.549C55.559 68.4506 55.6445 68.2055 55.5461 68.0016C55.4476 67.7977 55.2026 67.7122 54.9987 67.8107C54.7948 67.9091 54.7093 68.1542 54.8077 68.3581C54.9062 68.5619 55.1513 68.6474 55.3551 68.549Z" fill="#F0F3F7"/>
<path d="M59.5231 51.639C59.9494 51.4332 60.1282 50.9208 59.9224 50.4945C59.7165 50.0682 59.2041 49.8894 58.7778 50.0952C58.3515 50.3011 58.1728 50.8135 58.3786 51.2398C58.5844 51.6661 59.0968 51.8448 59.5231 51.639Z" fill="#F0F3F7"/>
<path d="M66.6163 49.7871C67.0426 49.5813 67.2213 49.0688 67.0155 48.6425C66.8097 48.2162 66.2972 48.0375 65.8709 48.2433C65.4446 48.4491 65.2659 48.9616 65.4717 49.3879C65.6775 49.8142 66.19 49.9929 66.6163 49.7871Z" fill="#F0F3F7"/>
<path d="M75.2718 63.8581C75.6981 63.6523 75.8768 63.1399 75.671 62.7136C75.4652 62.2873 74.9528 62.1085 74.5265 62.3144C74.1002 62.5202 73.9214 63.0326 74.1272 63.4589C74.333 63.8852 74.8455 64.0639 75.2718 63.8581Z" fill="#F0F3F7"/>
<path d="M73.9205 39.8878C74.3468 39.682 74.5255 39.1696 74.3197 38.7433C74.1139 38.3169 73.6015 38.1382 73.1752 38.344C72.7488 38.5498 72.5701 39.0623 72.7759 39.4886C72.9817 39.9149 73.4942 40.0936 73.9205 39.8878Z" fill="#F0F3F7"/>
<path d="M52.6503 59.2608C53.0766 59.055 53.2554 58.5426 53.0496 58.1163C52.8437 57.69 52.3313 57.5113 51.905 57.7171C51.4787 57.9229 51.3 58.4353 51.5058 58.8616C51.7116 59.2879 52.224 59.4667 52.6503 59.2608Z" fill="#F0F3F7"/>
<path d="M62.5095 68.2815C62.9358 68.0757 63.1146 67.5632 62.9087 67.1369C62.7029 66.7106 62.1905 66.5319 61.7642 66.7377C61.3379 66.9435 61.1592 67.4559 61.365 67.8822C61.5708 68.3085 62.0832 68.4873 62.5095 68.2815Z" fill="#F0F3F7"/>
<path d="M34.1908 28.6523C34.1353 29.0516 34.1133 29.4347 34.0578 29.8339C34.0381 30.0503 34.0184 30.2667 33.9154 30.482C33.6886 30.0121 33.4456 29.5087 33.2523 29.0227C33.2037 28.922 33.0544 28.8699 32.9202 28.9347C32.7859 28.9995 32.801 29.1164 32.8322 29.2669C33.0266 29.6696 33.2049 30.0388 33.3657 30.4577C33.0521 30.2367 32.7721 29.9994 32.5094 29.7124C32.4272 29.628 32.2605 29.6256 32.1761 29.7078C32.0916 29.79 32.1228 29.9404 32.1714 30.0411C32.5649 30.5133 33.0764 30.887 33.6562 31.1451C33.8021 31.4471 33.9641 31.7828 34.1099 32.0848C33.5104 32.0431 32.9804 31.8024 32.5696 31.3801C32.389 31.1775 32.0511 31.5062 32.2652 31.6925C32.7906 32.2665 33.5533 32.5604 34.3205 32.5211C34.4015 32.6889 34.4826 32.8567 34.5636 33.0245C34.677 33.2594 34.7904 33.4943 34.92 33.7628C34.3078 33.4376 33.713 33.0627 33.1517 32.6716C33.036 32.6033 32.9017 32.6681 32.867 32.7676C32.7987 32.8833 32.8635 33.0176 32.9631 33.0523C33.6725 33.5788 34.4328 34.0394 35.2603 34.4676C35.4547 34.8703 35.6318 35.3228 35.7926 35.7417C35.56 35.6885 35.3286 35.5519 35.1804 35.4166C34.8506 35.162 34.5046 34.8738 34.2257 34.5532C34.0451 34.3507 33.7072 34.6794 33.9213 34.8657C34.2662 35.2372 34.6284 35.5589 35.0578 35.8482C35.3216 36.0519 35.6364 36.1896 35.9697 36.1942C36.0334 36.4118 36.1144 36.5796 36.178 36.7972C36.1931 36.914 36.2417 37.0147 36.2567 37.1316C35.707 37.1073 35.1932 36.9002 34.765 36.5275C34.5509 36.3412 34.2466 36.6537 34.4607 36.84C34.9872 37.3307 35.6503 37.5899 36.3505 37.5829C36.4454 37.9509 36.5565 38.3525 36.6178 38.7367C36.1376 38.5134 35.692 38.1905 35.3309 37.7855C35.2488 37.701 35.0821 37.6987 34.9976 37.7809C34.9132 37.863 34.9109 38.0297 34.993 38.1141C35.4525 38.6372 36.0473 39.0122 36.6769 39.2876C36.7556 39.622 36.8007 39.9727 36.8794 40.3071C36.2996 40.0491 35.7881 39.6753 35.3784 39.1696C35.2963 39.0851 35.1805 39.0168 35.0463 39.0816C34.9456 39.1302 34.8935 39.2795 34.9583 39.4138C35.4826 40.0711 36.126 40.5467 36.9222 40.8244C36.9998 41.2422 37.0438 41.6762 37.1213 42.0939C36.5901 41.9366 36.0948 41.5963 35.7511 41.1415C35.6689 41.0571 35.5532 40.9888 35.419 41.0536C35.3183 41.1022 35.2662 41.2515 35.331 41.3857C35.7557 42.0083 36.4166 42.4342 37.1642 42.6112C37.2093 42.9619 37.2382 43.279 37.2834 43.6296C37.2498 43.6458 37.2163 43.662 37.2001 43.6285C37.1167 43.6273 37.067 43.61 37.0172 43.5926C36.8679 43.5405 36.7024 43.4549 36.5369 43.3693C36.2395 43.1818 35.9594 42.9446 35.7465 42.6749C35.6643 42.5904 35.5486 42.5222 35.4144 42.587C35.3137 42.6356 35.2616 42.7849 35.3264 42.9191C35.6042 43.323 36.0162 43.6621 36.4467 43.8681C36.6781 44.0046 37.0265 44.1261 37.31 44.1134C37.3262 44.1469 37.3251 44.2303 37.3413 44.2638C37.3702 44.5809 37.3829 44.8644 37.4119 45.1815C36.7302 45.0554 36.103 44.6133 35.7616 43.9919C35.632 43.7234 35.2454 43.9514 35.3751 44.2199C35.7813 44.9756 36.574 45.5033 37.4223 45.6317C37.4605 46.4823 37.4651 47.3491 37.4698 48.2159C37.3217 48.0805 37.1735 47.9451 37.0254 47.8097C37.0682 47.1269 37.0277 46.443 36.9038 45.7579C36.8888 45.641 36.7395 45.5889 36.6226 45.604C36.5057 45.619 36.4537 45.7683 36.4687 45.8852C36.5451 46.3863 36.5879 46.9036 36.5972 47.4371C36.3171 47.1998 36.0209 46.929 35.7744 46.6756C35.7825 46.0923 35.757 45.5253 35.6482 44.9571C35.6331 44.8402 35.4676 44.7545 35.367 44.8032C35.2327 44.868 35.198 44.9675 35.2131 45.0844C35.2293 45.1179 35.2119 45.1677 35.2281 45.2013C35.2281 45.2013 35.2281 45.2013 35.2443 45.2348L35.2605 45.2684C35.2594 45.3517 35.2918 45.4188 35.2744 45.4686C35.3056 45.619 35.2871 45.7521 35.3184 45.9026C35.3334 46.0194 35.3149 46.1525 35.33 46.2694C35.0337 45.9986 34.771 45.7116 34.4747 45.4408C34.3335 44.8055 34.1761 44.1366 34.0349 43.5013C34.0199 43.3844 33.8706 43.3323 33.7537 43.3473C33.6368 43.3624 33.5847 43.5117 33.5998 43.6286C33.6773 44.0463 33.7884 44.4479 33.866 44.8657C33.7838 44.7812 33.6855 44.6632 33.5697 44.5949L33.5535 44.5613C33.307 44.3079 33.1612 44.0058 33.0154 43.7038C32.8696 43.4018 32.7735 43.1171 32.6612 42.7988C33.2514 42.307 33.6275 41.6288 33.705 40.8465C33.7236 40.7134 33.5916 40.6116 33.4747 40.6266C33.3579 40.6417 33.2734 40.7238 33.2549 40.8569C33.197 41.4228 32.9228 41.9691 32.4842 42.3463C32.3719 42.0281 32.2261 41.726 32.0976 41.3742C32.6068 40.7146 32.9505 39.9693 33.0454 39.1372C33.0639 39.0041 33.0153 38.9034 32.866 38.8514C32.7665 38.8167 32.5987 38.8977 32.5801 39.0308C32.4876 39.6962 32.2457 40.3095 31.8881 40.8546C31.8557 40.7875 31.8233 40.7204 31.7909 40.6533C31.7111 40.4021 31.5814 40.1337 31.5016 39.8825C31.5525 39.8166 31.6034 39.7506 31.6208 39.7008C31.7573 39.4694 31.8939 39.2379 31.9969 39.0227C32.2364 38.576 32.4598 38.0957 32.6831 37.6154C32.7178 37.5159 32.6866 37.3654 32.587 37.3307C32.4875 37.296 32.3209 37.2937 32.3024 37.4268C32.1137 37.8075 31.9413 38.2218 31.7527 38.6026C31.667 38.7681 31.5641 38.9833 31.4784 39.1488C31.4275 39.2148 31.3928 39.3143 31.3419 39.3803C31.1648 38.9278 31.0213 38.4591 30.8442 38.0066C31.3187 37.4465 31.7932 36.8864 32.2676 36.3262C32.4539 36.1121 32.1415 35.8078 31.9552 36.0219C31.5316 36.516 31.1081 37.0102 30.6845 37.5044C30.5884 37.2197 30.4924 36.935 30.3963 36.6503C30.3639 36.5832 30.3477 36.5496 30.3489 36.4663C30.8048 36.0393 31.1948 35.5613 31.5026 34.9989C31.623 34.7338 31.2422 34.5452 31.1057 34.7767C30.8661 35.2234 30.5606 35.6192 30.2054 35.9976C30.1105 35.6296 29.982 35.2778 29.8871 34.9098C30.3257 34.5325 30.6821 34.0707 30.9228 33.5407C30.9575 33.4412 30.9263 33.2907 30.8268 33.256C30.7272 33.2213 30.5606 33.219 30.5421 33.3521C30.3696 33.7664 30.0977 34.146 29.7771 34.4249C29.6336 33.9562 29.5237 33.4713 29.4137 32.9864C29.9356 32.6103 30.3754 32.1497 30.6335 31.5699C30.7017 31.4542 30.6369 31.3199 30.5374 31.2852C30.4217 31.2169 30.2874 31.2817 30.2527 31.3813C30.0629 31.8453 29.7077 32.2238 29.32 32.5351C29.2251 32.1671 29.1637 31.7829 29.1024 31.3986C29.4762 30.8871 29.8338 30.342 30.2075 29.8305C30.2758 29.7148 30.211 29.5805 30.1115 29.5458C29.9483 29.2936 29.8141 29.3584 29.7458 29.4741C29.4738 29.8537 29.2181 30.2668 28.9126 30.6626C28.8674 30.312 28.8061 29.9278 28.761 29.5771C29.3882 28.8191 29.9159 28.0263 30.4112 27.1665C30.5477 26.935 30.1508 26.7128 30.0142 26.9443C29.6046 27.6387 29.1787 28.2995 28.7031 28.9429C28.7042 28.8596 28.6892 28.7427 28.6568 28.6756C28.6267 28.4418 28.6302 28.1919 28.6163 27.9917C28.6834 27.9592 28.7679 27.8771 28.8188 27.8111C29.0051 27.597 29.1254 27.332 29.262 27.1005C29.5687 26.6214 29.7758 26.1076 30.0165 25.5776C30.0512 25.478 30.02 25.3276 29.9204 25.2929C29.8209 25.2582 29.6543 25.2559 29.6358 25.3889C29.4633 25.8032 29.2574 26.2338 29.0352 26.6307C28.9322 26.846 28.813 27.0276 28.6938 27.2093C28.6764 27.2591 28.6255 27.3251 28.5919 27.3413C28.5804 26.9744 28.5514 26.6573 28.556 26.324C29.1648 25.6991 29.6415 24.9723 29.9528 24.1599C29.9875 24.0604 29.9563 23.9099 29.8568 23.8752C29.7572 23.8405 29.5906 23.8382 29.5721 23.9713C29.3302 24.5846 28.9888 25.1633 28.5653 25.6574C28.5884 25.1911 28.578 24.7409 28.6347 24.2583C28.6555 23.9586 28.2053 23.969 28.1845 24.2687C28.144 24.7849 28.1371 25.2848 28.1302 25.7848C27.82 25.3138 27.5434 24.8265 27.3675 24.2907C27.3189 24.1901 27.2367 24.1056 27.0863 24.1368C26.9694 24.1519 26.8838 24.3174 26.9324 24.418C27.2217 25.1888 27.5955 25.8773 28.1036 26.5011C28.1036 26.5011 28.1036 26.5011 28.1198 26.5347C28.1325 26.8182 28.1279 27.1515 28.1568 27.4686C27.68 26.9953 27.2379 26.4224 26.9798 25.8021C26.9312 25.7015 26.7484 25.6656 26.6477 25.7142C26.5135 25.779 26.5285 25.8959 26.5598 26.0463C26.9151 26.868 27.4555 27.5589 28.1476 28.1352C28.1476 28.1352 28.1638 28.1687 28.1973 28.1525C28.2251 28.5529 28.2691 28.9869 28.2969 29.3873C27.6708 28.8619 27.1801 28.1884 26.8236 27.4501C26.775 27.3494 26.5922 27.3135 26.4915 27.3621C26.3573 27.427 26.3723 27.5438 26.4036 27.6943C26.8237 28.6502 27.4961 29.4429 28.3212 30.0377C28.3802 30.5886 28.4728 31.1232 28.5654 31.6579C27.8398 31.0978 27.2496 30.3895 26.8607 29.5841C26.7311 29.3156 26.3446 29.5436 26.4742 29.8121C26.9603 30.8189 27.7484 31.6799 28.7066 32.2932L28.7228 32.3268C28.8166 32.7781 28.9103 33.2294 29.0376 33.6646C28.2958 33.0709 27.7067 32.2794 27.2855 31.4068C27.2369 31.3061 27.054 31.2702 26.9533 31.3188C26.8191 31.3836 26.8341 31.5005 26.8654 31.651C27.3503 32.7411 28.1708 33.6692 29.1777 34.3832C29.2888 34.7848 29.4161 35.2199 29.5434 35.6551C29.2946 35.5683 29.0816 35.2986 28.9509 35.1135C28.672 34.7929 28.4266 34.4562 28.2484 34.087C28.0852 33.8347 27.6987 34.0627 27.8619 34.315C28.106 34.7351 28.3838 35.1389 28.7287 35.5104C29.0076 35.831 29.3201 36.1353 29.7367 36.1411C29.9126 36.6769 30.0885 37.2127 30.2482 37.715C30.1163 37.6132 29.952 37.4442 29.8698 37.3597C29.6892 37.1572 29.5087 36.9547 29.3282 36.7522C29.0007 36.3309 28.6569 35.8761 28.3468 35.4051C28.1836 35.1528 27.7971 35.3808 27.9603 35.6331C28.3028 36.1712 28.6627 36.6596 29.0724 37.1653C29.2692 37.4014 29.4659 37.6375 29.6962 37.8573C29.8767 38.0599 30.0746 38.2126 30.3744 38.2334C30.3744 38.2334 30.3744 38.2334 30.4079 38.2172C30.5526 38.6026 30.6799 39.0377 30.8246 39.4231C30.3605 39.2333 29.9821 38.8781 29.805 38.4256C29.7564 38.3249 29.6742 38.2404 29.5238 38.2717C29.4567 38.3041 29.3895 38.3365 29.3884 38.4198C29.2715 38.4348 29.2206 38.5008 29.2021 38.6339C29.1951 39.1338 29.2715 39.6349 29.3479 40.136C28.8885 39.6129 28.4128 39.0563 27.9869 38.517C27.9707 38.4835 28.0043 38.4673 27.9881 38.4337C27.767 37.5472 27.7126 36.6631 27.8584 35.765C27.8769 35.632 27.8283 35.5313 27.679 35.4792C27.5795 35.4445 27.4117 35.5255 27.3932 35.6586C27.2833 36.3738 27.2567 37.0901 27.3469 37.7914C27.2486 37.6734 27.134 37.5218 27.0356 37.4038C26.9049 37.2186 26.7243 37.0161 26.5935 36.8309C26.6572 35.8484 26.7544 34.8497 26.818 33.8671C26.8365 33.7341 26.7046 33.6322 26.5877 33.6473C26.4708 33.6623 26.3863 33.7445 26.3678 33.8776C26.3065 34.6934 26.2452 35.5093 26.1839 36.3252C25.8401 35.8704 25.4802 35.382 25.1365 34.9272C25.1365 34.9272 25.1701 34.911 25.1539 34.8775C25.2314 34.0952 25.3425 33.2966 25.42 32.5143C25.4385 32.3812 25.3899 32.2806 25.2406 32.2285C25.1411 32.1938 24.9733 32.2748 24.9548 32.4079C24.8622 33.0733 24.8032 33.7225 24.7106 34.388C24.3345 33.866 23.9584 33.3441 23.5822 32.8222C23.5822 32.8222 23.566 32.7886 23.5996 32.7724C23.6598 32.0399 23.7871 31.2749 23.9305 30.5435C24.0011 30.2612 23.5695 30.1385 23.4989 30.4209C23.3739 31.0192 23.2489 31.6175 23.2073 32.217C22.9133 31.7795 22.6194 31.3421 22.3254 30.9046C22.3428 30.8549 22.3428 30.8549 22.3266 30.8213C22.286 30.1374 22.3289 29.4546 22.4214 28.7891C22.4399 28.6561 22.3913 28.5554 22.242 28.5033C22.1425 28.4686 21.9747 28.5496 21.9562 28.6827C21.8659 29.1815 21.8416 29.7312 21.8347 30.2311C21.5084 29.7266 21.1658 29.1884 20.8394 28.6839C20.8325 27.9837 20.9088 27.2847 21.0847 26.6205C21.1553 26.3381 20.7237 26.2154 20.6531 26.4978C20.513 26.9792 20.4726 27.4954 20.4159 27.9779C20.1879 27.5914 19.9599 27.2049 19.7481 26.8519C19.8268 25.9863 19.9216 25.1542 20.0339 24.2724C20.0524 24.1393 19.9205 24.0375 19.8036 24.0525C19.6705 24.034 19.6022 24.1497 19.5837 24.2828C19.5247 24.932 19.4495 25.5477 19.3905 26.1969C18.9507 25.4574 18.5283 24.6682 18.1221 23.9125C17.9762 23.6105 17.7969 23.3246 17.651 23.0226C17.5214 22.7541 17.1349 22.9821 17.2645 23.2506C17.8166 24.3083 18.4022 25.3498 18.9878 26.3914C18.3096 26.0153 17.6488 25.5894 16.9706 25.2133C16.7392 25.0767 16.517 25.4737 16.7484 25.6102C17.6083 26.1055 18.4681 26.6008 19.3106 27.1459C19.3604 27.1632 19.3604 27.1632 19.4102 27.1806C19.8013 27.8194 20.1925 28.4582 20.5837 29.097C19.8534 28.8702 19.1082 28.5265 18.4983 28.0347C18.3825 27.9664 18.283 27.9317 18.165 28.0301C18.0805 28.1122 18.0782 28.2789 18.1603 28.3634C18.9855 28.9582 19.9125 29.4211 20.8927 29.6513L20.9262 29.6351C21.057 29.8203 21.1704 30.0552 21.3012 30.2404C21.432 30.4255 21.5628 30.6107 21.66 30.8121C21.3082 30.9405 20.7967 30.5667 20.4819 30.429C19.9692 30.1386 19.423 29.8643 18.8941 29.5403C18.6626 29.4037 18.4404 29.8007 18.6719 29.9372C19.2841 30.2624 19.8963 30.5876 20.4911 30.9625C20.7724 31.1164 21.0374 31.2368 21.3533 31.2912C21.5362 31.3271 21.7202 31.2796 21.888 31.1986C22.2965 31.7876 22.6715 32.3929 23.1136 32.9657C22.0986 32.835 21.1531 32.5052 20.2933 32.0099C20.0456 31.8398 19.8234 32.2367 20.0711 32.4068C21.0791 33.0375 22.241 33.387 23.4399 33.4703C23.7339 33.9077 24.0452 34.2954 24.3391 34.7328C24.272 34.7652 24.1887 34.7641 24.0892 34.7294C23.9063 34.6935 23.6911 34.5905 23.5256 34.5049C23.1448 34.3162 22.7479 34.0941 22.4181 33.8395C22.3359 33.755 22.2028 33.7365 22.0848 33.8348C22.0003 33.917 21.998 34.0837 22.0801 34.1681C22.4921 34.5072 22.955 34.7803 23.4353 35.0037C23.7501 35.1414 24.2639 35.3485 24.6169 35.1367C24.993 35.6586 25.4027 36.1644 25.8124 36.6701C25.6955 36.6851 25.6122 36.684 25.5127 36.6492C25.2465 36.6122 24.9977 36.5254 24.7153 36.4548C24.2003 36.331 23.6865 36.1239 23.2062 35.9005C23.1067 35.8658 22.9562 35.8971 22.9215 35.9966C22.8868 36.0961 22.8845 36.2628 23.0176 36.2813C23.5974 36.5393 24.1945 36.7476 24.809 36.9062C25.1909 37.0115 25.7221 37.1689 26.1249 36.9744C26.4686 37.4292 26.8621 37.9014 27.2393 38.34C27.1896 38.3226 27.156 38.3388 27.1062 38.3215C26.9732 38.303 26.8898 38.3018 26.7567 38.2833C26.4906 38.2463 26.2418 38.1595 26.0092 38.1062C25.5277 37.9662 25.0475 37.7429 24.6181 37.4536C24.3704 37.2835 24.1483 37.6804 24.3959 37.8505C24.941 38.2081 25.5544 38.45 26.1851 38.642C26.5172 38.73 26.8331 38.7844 27.1329 38.8052C27.266 38.8237 27.4326 38.826 27.5668 38.7612C27.9603 39.2334 28.3376 39.672 28.7311 40.1441C27.98 40.2171 27.2162 40.0064 26.6052 39.5979C26.4894 39.5297 26.3552 39.5945 26.3205 39.694C26.2522 39.8097 26.317 39.944 26.4165 39.9787C27.2093 40.5064 28.2069 40.6869 29.1257 40.533C29.3387 40.8026 29.5852 41.056 29.7981 41.3257C29.731 41.3581 29.6477 41.3569 29.5806 41.3893L29.547 41.4055C29.5134 41.4217 29.4637 41.4044 29.4301 41.4206C29.3468 41.4194 29.297 41.4021 29.2137 41.4009C28.8642 41.3627 28.5668 41.1753 28.252 41.0376C28.1363 40.9693 28.002 41.0341 27.9673 41.1336C27.899 41.2493 27.9638 41.3836 28.0634 41.4183C28.1131 41.4357 28.1791 41.4866 28.2289 41.5039C28.1953 41.5201 28.1953 41.5201 28.1617 41.5363C28.0773 41.6185 28.075 41.7851 28.1571 41.8696C28.3874 42.0895 28.6339 42.3429 28.8469 42.6126C28.664 42.5767 28.4476 42.557 28.2486 42.4876C28.1155 42.4691 27.9824 42.4506 27.8331 42.3985C27.4061 41.9426 27.0461 41.4542 26.7198 40.9496C26.6712 40.8489 26.5219 40.7969 26.3876 40.8617C26.287 40.9103 26.2349 41.0596 26.2997 41.1938C26.5612 41.5641 26.8066 41.9009 27.0855 42.2215C26.8529 42.1682 26.6203 42.115 26.3715 42.0282L26.3553 41.9947C26.0277 41.5734 25.7176 41.1024 25.5243 40.6164C25.4757 40.5157 25.2929 40.4798 25.1922 40.5284C25.0579 40.5932 25.073 40.7101 25.1042 40.8606C25.2662 41.1962 25.4283 41.5318 25.6574 41.835C25.4086 41.7482 25.1598 41.6614 24.9272 41.6082C24.8774 41.5908 24.8612 41.5572 24.8277 41.5734C24.7779 41.5561 24.6784 41.5214 24.6286 41.504L24.6124 41.4704C24.1205 40.8803 23.6958 40.2576 23.3046 39.6188C23.1415 39.3666 22.7549 39.5946 22.9181 39.8468C23.2109 40.3676 23.5546 40.8224 23.8984 41.2772C23.5003 41.1383 23.1519 41.0168 22.7538 40.878C22.7538 40.878 22.7538 40.878 22.7376 40.8444C22.3974 40.1396 22.0073 39.4175 21.5328 38.7775C21.4507 38.6931 21.335 38.6248 21.2007 38.6896C21.1 38.7382 21.048 38.8875 21.1128 39.0217C21.4889 39.5437 21.7979 40.098 22.1069 40.6523C21.7586 40.5308 21.394 40.3757 21.0457 40.2542L21.0295 40.2207C20.6869 39.6825 20.4277 39.1456 20.1858 38.5589C20.1372 38.4582 20.055 38.3737 19.9046 38.4049C19.7877 38.42 19.702 38.5855 19.7507 38.6862C19.9277 39.1386 20.1384 39.5749 20.3328 39.9777C20.018 39.84 19.7194 39.7358 19.4382 39.5819C19.1975 38.9118 18.9394 38.2915 18.6987 37.6215C18.6501 37.5208 18.5679 37.4363 18.4175 37.4676C18.3006 37.4826 18.2149 37.6481 18.2635 37.7488C18.473 38.2684 18.6825 38.788 18.8422 39.2903C18.561 39.1364 18.2798 38.9825 17.9986 38.8285C17.9071 38.2106 17.7324 37.5914 17.4569 37.0209C17.4083 36.9202 17.259 36.8681 17.1248 36.933C16.9905 36.9978 17.0056 37.1146 17.0368 37.2651C17.2313 37.6678 17.3748 38.1365 17.4685 38.5878C17.0554 38.3321 16.6422 38.0763 16.2291 37.8206C16.0219 37.1343 15.7812 36.4643 15.574 35.778C15.478 35.4933 15.0428 35.6207 15.1389 35.9053C15.2986 36.4076 15.4583 36.9098 15.618 37.4121C15.3044 37.1911 15.0405 36.9874 14.7605 36.7502C14.6366 36.0651 14.4792 35.3962 14.2721 34.7099C14.176 34.4252 13.7409 34.5525 13.8369 34.8372C13.9804 35.3059 14.0904 35.7908 14.2003 36.2757C13.9862 36.0894 13.8057 35.8869 13.5916 35.7005C13.5916 35.7005 13.5916 35.7005 13.5754 35.667C13.3833 35.0976 13.2583 34.4958 13.2166 33.8952C13.2016 33.7783 13.1032 33.6603 12.9863 33.6753C12.8694 33.6904 12.7514 33.7887 12.7664 33.9056C13.0627 34.1764 13.1414 34.5109 13.2027 34.8951C13.006 34.659 12.8093 34.4229 12.5963 34.1533C12.5142 34.0688 12.3984 34.0005 12.2642 34.0653C12.1635 34.114 12.1114 34.2632 12.1762 34.3975C12.4378 34.7678 12.7167 35.0884 13.0454 35.4263C12.5964 35.3534 12.1161 35.13 11.7874 34.7921C11.5733 34.6058 11.269 34.9183 11.4831 35.1046C12.0258 35.6288 12.7723 35.8892 13.5222 35.8996C13.7687 36.153 13.999 36.3729 14.2628 36.5766C13.6287 36.6345 13.0141 36.4759 12.5026 36.1021C12.3869 36.0339 12.2527 36.0987 12.2179 36.1982C12.1497 36.3139 12.2145 36.4482 12.314 36.4829C13.0072 36.9759 13.9215 37.1552 14.7246 36.933C15.0706 37.2212 15.4502 37.4931 15.78 37.7477C14.9792 37.8033 14.1633 37.7419 13.366 37.5475C13.0836 37.477 12.9609 37.9086 13.2433 37.9792C14.2571 38.1933 15.2894 38.2743 16.3413 38.1388C16.3413 38.1388 16.3413 38.1388 16.3749 38.1226C16.788 38.3784 17.2012 38.6341 17.6479 38.8737C16.9941 39.148 16.2268 39.1873 15.5475 38.8946C15.4479 38.8598 15.2975 38.8911 15.2628 38.9906C15.2281 39.0901 15.2257 39.2568 15.3588 39.2753C16.2372 39.6375 17.2544 39.6016 18.1108 39.1468C18.1108 39.1468 18.1108 39.1468 18.1444 39.1306C18.4754 39.3019 18.7901 39.4396 19.1211 39.6108C19.0204 39.6594 18.9198 39.708 18.8364 39.7069C18.6524 39.7543 18.4349 39.818 18.2347 39.8319C17.8504 39.8932 17.4338 39.8875 17.0508 39.8655C16.9177 39.847 16.8158 39.9789 16.8309 40.0958C16.8124 40.2289 16.9281 40.2971 17.0612 40.3157C17.5438 40.3723 17.994 40.3619 18.4788 40.252C18.8631 40.1906 19.3144 40.0969 19.5516 39.8168C19.9821 40.0228 20.3964 40.1952 20.8605 40.385C20.3212 40.8109 19.6523 40.9683 18.9695 40.9255C18.8365 40.907 18.7346 41.0389 18.7497 41.1558C18.7647 41.2727 18.8469 41.3572 18.98 41.3757C19.8456 41.4543 20.6835 41.1326 21.3246 40.5748C21.8384 40.7819 22.336 40.9555 22.8337 41.1291C22.2458 41.4543 21.5931 41.6453 20.9427 41.6696C20.6592 41.6823 20.6696 42.1325 20.9531 42.1198C21.8199 42.1151 22.674 41.8269 23.3973 41.3536L23.447 41.3709C23.7954 41.4925 24.1935 41.6313 24.5754 41.7366C24.1032 42.1301 23.5477 42.5224 22.9147 42.497C22.6312 42.5097 22.6416 42.9599 22.9251 42.9472C23.7919 42.9425 24.4828 42.402 25.1066 41.894C25.4549 42.0155 25.8368 42.1208 26.2187 42.2261C25.8484 42.4877 25.4457 42.6821 25.0105 42.8094C24.7258 42.9055 24.8531 43.3406 25.1378 43.2445C25.7234 43.086 26.2777 42.777 26.7499 42.3835C26.9825 42.4367 27.2313 42.5235 27.4639 42.5767C27.6468 42.6126 27.8458 42.682 28.0622 42.7017C27.8597 42.8822 27.6086 42.9621 27.3575 43.042C26.9883 43.2202 26.6029 43.3649 26.2002 43.5593C26.0995 43.6079 26.0637 43.7907 26.1123 43.8914C26.1771 44.0257 26.294 44.0106 26.4444 43.9794C26.8633 43.8185 27.2661 43.6241 27.685 43.4632C28.0206 43.3012 28.3724 43.1727 28.5934 42.8591C29.0089 42.9482 29.4417 42.9875 29.8745 43.0269C29.6199 43.3567 29.2496 43.6182 28.8307 43.7791C28.73 43.8277 28.6617 43.9434 28.6768 44.0603C28.6918 44.1772 28.8573 44.2628 28.958 44.2142C29.5609 44.0059 30.0666 43.5962 30.3907 43.0674C30.8733 43.124 31.3732 43.131 31.8569 43.1044C32.0051 43.2398 32.1196 43.3914 32.2678 43.5267L32.2342 43.543C32.2007 43.5592 32.2007 43.5592 32.1671 43.5754C32.1335 43.5916 32.1671 43.5754 32.1335 43.5916C32.1 43.6078 32.0502 43.5904 32.0166 43.6066C31.9333 43.6054 31.85 43.6043 31.8164 43.6205C31.7829 43.6367 31.7331 43.6193 31.6834 43.602C31.6834 43.602 31.6498 43.6182 31.6336 43.5846L31.6 43.6008C31.4669 43.5823 31.3177 43.5302 31.1846 43.5117C31.1348 43.4944 31.1348 43.4944 31.085 43.477L31.0353 43.4597L30.9855 43.4423C30.9196 43.3914 30.8362 43.3902 30.7703 43.3393C30.6545 43.271 30.5203 43.3358 30.4856 43.4354C30.4173 43.5511 30.4821 43.6853 30.5816 43.72C31.1603 44.0614 31.909 44.1552 32.5617 43.9642L32.5953 43.948C33.0223 44.4039 33.4829 44.8437 33.9435 45.2834C33.8764 45.3159 33.7595 45.3309 33.66 45.2962C33.4436 45.2765 33.211 45.2233 33.0281 45.1874C32.5629 45.081 32.1312 44.9583 31.6996 44.8356C31.6001 44.8009 31.4323 44.8819 31.4137 45.015C31.3952 45.1481 31.4438 45.2488 31.5931 45.3009C32.0908 45.4744 32.6057 45.5983 33.1045 45.6885C33.4702 45.7603 33.9852 45.8841 34.322 45.6387C34.6182 45.9095 34.9145 46.1803 35.1772 46.4673C34.9423 46.5807 34.7409 46.6779 34.4898 46.7578C34.4562 46.774 34.44 46.7404 34.4065 46.7566C33.9239 46.6999 33.4089 46.5761 32.961 46.4199C32.8615 46.3852 32.7608 46.4338 32.7261 46.5333C32.3789 46.3285 31.9982 46.1399 31.6163 46.0346C31.3339 45.964 31.2112 46.3956 31.4936 46.4662C32.0248 46.6236 32.5213 46.8805 32.9333 47.2196C32.666 47.2659 32.4484 47.3295 32.1811 47.3758C31.6209 46.9014 31.0272 46.4431 30.3988 46.0844C30.1512 45.9142 29.929 46.3112 30.1767 46.4813C30.6558 46.788 31.1511 47.1282 31.5793 47.5008C31.2784 47.5633 30.9613 47.5923 30.6442 47.6212C30.1998 47.215 29.7056 46.7915 29.2612 46.3853C29.1791 46.3008 29.0124 46.2985 28.928 46.3806C28.8435 46.4628 28.8412 46.6295 28.9233 46.7139C29.2856 47.0357 29.6478 47.3574 30.01 47.6791C29.8098 47.693 29.5761 47.7231 29.3596 47.7034C29.2798 47.4523 29.0495 47.2324 28.8852 47.0634C28.5727 46.7591 28.2105 46.4374 27.8135 46.2152C27.648 46.1295 27.4802 46.2106 27.4293 46.2765C27.361 46.3922 27.4258 46.5265 27.5254 46.5612C27.8228 46.7487 28.1028 46.9859 28.3829 47.2231C28.531 47.3585 28.6294 47.4766 28.7775 47.612C28.7937 47.6455 28.7937 47.6455 28.8435 47.6629C28.5102 47.6583 28.1769 47.6537 27.8436 47.649C27.7939 47.6317 27.7603 47.6479 27.677 47.6467C27.2673 47.141 26.824 46.6515 26.2963 46.2441C26.2142 46.1597 26.0811 46.1412 25.963 46.2395C25.8786 46.3217 25.8762 46.4883 25.9584 46.5728C26.3542 46.8783 26.6991 47.2498 27.044 47.6213C26.8773 47.619 26.7442 47.6005 26.5776 47.5981L26.5614 47.5646C26.0498 47.1908 25.6228 46.7348 25.33 46.2141C25.1668 45.9618 24.7803 46.1898 24.9435 46.4421C25.1877 46.8621 25.4828 47.2163 25.8288 47.5044C25.6957 47.4859 25.5626 47.4674 25.4631 47.4327C25.4469 47.3991 25.4307 47.3656 25.4145 47.332C25.3659 47.2313 25.2999 47.1804 25.2513 47.0797C25.1692 46.9952 25.1206 46.8946 25.0384 46.8101C24.7433 46.456 24.4817 46.0856 24.2028 45.7651C24.1206 45.6806 24.0049 45.6123 23.8707 45.6771C23.77 45.7257 23.7179 45.875 23.7827 46.0093C23.9957 46.2789 24.2248 46.5821 24.4378 46.8517C24.5523 47.0033 24.6507 47.1214 24.7653 47.273C24.7815 47.3065 24.8474 47.3575 24.8637 47.391C24.4644 47.3355 24.0489 47.2464 23.667 47.1411C23.6508 47.1075 23.6508 47.1075 23.6346 47.074C23.1925 46.5011 22.784 45.9121 22.3928 45.2733C22.2297 45.021 21.8431 45.249 22.0063 45.5013C22.2991 46.022 22.6428 46.4768 23.0028 46.9652C22.6706 46.8772 22.3882 46.8067 22.0897 46.7025C22.0897 46.7025 22.0735 46.6689 22.0399 46.6852C22.0434 46.4352 21.8975 46.1331 21.7841 45.8982C21.6059 45.529 21.3941 45.1761 21.1823 44.8231C21.1337 44.7224 20.9844 44.6704 20.8502 44.7352C20.7495 44.7838 20.6974 44.9331 20.7622 45.0673C20.9416 45.3532 21.1372 45.6726 21.283 45.9746C21.364 46.1424 21.4289 46.2766 21.5099 46.4445C21.5261 46.478 21.5423 46.5116 21.5585 46.5451C21.2101 46.4236 20.9116 46.3195 20.5632 46.198L20.5135 46.1806C20.1038 45.6749 19.7786 45.087 19.4869 44.4829C19.4383 44.3822 19.289 44.3302 19.1548 44.395C19.0205 44.4598 19.0356 44.5767 19.0668 44.7271C19.2613 45.1298 19.4731 45.4828 19.701 45.8693C19.2705 45.6633 18.84 45.4574 18.4095 45.2514C18.3493 44.7838 18.2058 44.3151 17.9107 43.961C17.8285 43.8766 17.7128 43.8083 17.5786 43.8731C17.4779 43.9217 17.4258 44.071 17.4906 44.2052C17.5728 44.2897 17.6376 44.4239 17.6862 44.5246C17.7024 44.5582 17.7186 44.5917 17.7186 44.5917L17.7348 44.6253C17.7348 44.6253 17.7672 44.6924 17.751 44.6589C17.7348 44.6253 17.7672 44.6924 17.7672 44.6924L17.7834 44.726C17.7996 44.7595 17.8158 44.7931 17.832 44.8267C17.8482 44.8602 17.8471 44.9436 17.8633 44.9771C17.5161 44.7723 17.1527 44.5339 16.8055 44.3291C16.5579 44.159 16.3357 44.5559 16.5833 44.726C16.9467 44.9644 17.2939 45.1692 17.6411 45.3741C17.324 45.403 16.9734 45.4481 16.6563 45.4771C16.5394 45.4921 16.4213 45.5905 16.4364 45.7074C16.4514 45.8243 16.5498 45.9423 16.6667 45.9273C17.184 45.8844 17.7348 45.8254 18.2359 45.749C18.2695 45.7328 18.2695 45.7328 18.3031 45.7166C18.7995 45.9735 19.2798 46.1968 19.7601 46.4202L19.7265 46.4364C19.5761 46.4676 19.4094 46.4653 19.2763 46.4468C18.8597 46.441 18.4767 46.4191 18.06 46.4133C17.927 46.3948 17.8251 46.5267 17.8402 46.6436C17.8552 46.7605 17.9374 46.8449 18.0705 46.8635C18.5033 46.9028 18.9535 46.8924 19.3863 46.9317C19.5529 46.934 19.7531 46.9201 19.9371 46.8727C20.0876 46.8414 20.1721 46.7593 20.2901 46.6609C20.6882 46.7997 21.1025 46.9722 21.5006 47.111C21.4671 47.1272 21.4671 47.1272 21.4335 47.1434C21.2159 47.2071 20.9984 47.2708 20.7808 47.3344C20.363 47.412 19.9453 47.4895 19.4951 47.4999C19.2116 47.5127 19.222 47.9628 19.5055 47.9501C20.0228 47.9073 20.5737 47.8482 21.0921 47.7221C21.3097 47.6584 21.577 47.6121 21.8119 47.4987C21.9126 47.4501 21.9635 47.3841 22.048 47.302C22.3964 47.4235 22.7621 47.4952 23.1104 47.6167C22.4901 47.8748 21.8212 48.0322 21.1373 48.0727C20.8537 48.0855 20.8642 48.5356 21.1477 48.5229C22.0654 48.4523 23.019 48.1988 23.8418 47.7602C24.2075 47.832 24.5732 47.9037 24.9389 47.9754C24.3012 48.2833 23.5988 48.4569 22.8986 48.4639C22.6151 48.4766 22.6255 48.9268 22.9091 48.914C23.8927 48.8943 24.8463 48.6409 25.6541 48.0854C25.97 48.1398 26.2697 48.1606 26.603 48.1652C26.1818 48.4927 25.6784 48.7358 25.1264 48.8781C25.0095 48.8932 24.9574 49.0424 24.9725 49.1593C24.9875 49.2762 25.1368 49.3283 25.2537 49.3132C26.0059 49.157 26.6783 48.7496 27.2025 48.2069C27.4189 48.2265 27.6191 48.2126 27.802 48.2485L27.7684 48.2647C27.6504 48.3631 27.5323 48.4614 27.4479 48.5436C27.2453 48.7241 26.9931 48.8873 26.7581 49.0007C26.6575 49.0494 26.6054 49.1986 26.6702 49.3329C26.7188 49.4336 26.8681 49.4856 27.0023 49.4208C27.3888 49.1928 27.7256 48.9475 28.0462 48.6686C28.1642 48.5702 28.2996 48.4221 28.3852 48.2566C28.8354 48.2462 29.3192 48.2195 29.8029 48.1929C29.7184 48.2751 29.6675 48.341 29.583 48.4232C29.4141 48.5875 29.2289 48.7183 28.994 48.8317C28.5739 49.0759 28.1388 49.2032 27.6539 49.3132C27.537 49.3282 27.4849 49.4775 27.5 49.5944C27.515 49.7113 27.6643 49.7634 27.7812 49.7483C28.3158 49.6557 28.869 49.43 29.3562 49.1535C29.5749 49.0065 29.8272 48.8433 30.0297 48.6628C30.1651 48.5146 30.3341 48.3503 30.4197 48.1848C30.6535 48.1547 30.8872 48.1246 31.0875 48.1107L31.121 48.0945C31.1037 48.1443 31.0365 48.1767 30.9856 48.2426C30.9011 48.3248 30.8167 48.407 30.7322 48.4891C30.5632 48.6535 30.3445 48.8005 30.1593 48.9312C29.7555 49.209 29.2856 49.4358 28.8169 49.5793C28.5322 49.6754 28.6595 50.1105 28.9442 50.0145C29.5807 49.7899 30.1848 49.4983 30.7241 49.0724C30.9937 48.8595 31.2796 48.6801 31.4832 48.4162C31.5677 48.3341 31.6198 48.1848 31.6383 48.0517C31.9392 47.9892 32.2227 47.9764 32.5236 47.9139C31.982 48.5065 31.3259 48.9474 30.5551 49.2367C30.2705 49.3328 30.3978 49.7679 30.6824 49.6719C31.2356 49.4462 31.7228 49.1696 32.1776 48.8259C32.1603 48.8756 32.1927 48.9428 32.2089 48.9763C32.2737 49.1106 32.3906 49.0955 32.541 49.0643C33.3291 48.7252 34.1519 48.2866 34.4308 47.407C34.4308 47.407 34.4308 47.407 34.4644 47.3908C34.5141 47.4082 34.5477 47.392 34.5974 47.4093C34.8972 47.4302 35.1969 47.451 35.514 47.422C35.6309 47.407 35.764 47.4255 35.8982 47.3607C36.1783 47.5979 36.4248 47.8514 36.6886 48.055L36.7048 48.0886C36.8368 48.1904 36.9513 48.342 37.0833 48.4439C36.4329 48.4682 35.7675 48.3756 35.1541 48.1338C35.0546 48.0991 34.903 48.2136 34.8683 48.3132C34.8497 48.4462 34.9319 48.5307 35.0476 48.599C35.86 48.9103 36.7257 48.989 37.5439 48.8836C37.9061 49.2053 38.2521 49.4935 38.6144 49.8152C37.8969 49.8719 37.1817 49.762 36.5185 49.5028C36.419 49.4681 36.2674 49.5826 36.2327 49.6822C36.2142 49.8153 36.2964 49.8997 36.4121 49.968C37.2743 50.2967 38.1897 50.3927 39.0923 50.2052C40.5586 51.4423 42.0758 52.6134 43.6104 53.7348C43.8742 53.9384 44.1381 54.1421 44.4193 54.296C44.667 54.4661 44.8892 54.0692 44.6415 53.8991C42.8257 52.6238 41.0944 51.2664 39.3805 49.8592C39.3874 49.3592 39.3446 48.8419 39.2682 48.3408C39.2531 48.224 39.0877 48.1383 38.987 48.1869C38.8863 48.2355 38.818 48.3513 38.8331 48.4681C38.8481 48.585 38.8632 48.7019 38.8944 48.8524L38.9106 48.8859C38.9268 48.9195 38.9095 48.9692 38.9095 48.9692C38.9083 49.0526 38.9245 49.0861 38.9233 49.1694C38.9384 49.2863 38.9372 49.3697 38.9187 49.5027C38.7208 49.35 38.5067 49.1637 38.3088 49.0109C38.1769 48.9091 38.0785 48.791 37.9466 48.6892C37.964 48.6394 37.964 48.6394 37.9813 48.5897C37.9871 48.1731 37.9593 47.7726 37.9813 47.3896C38.5194 47.047 38.9592 46.5864 39.267 46.024C39.3873 45.759 39.0066 45.5703 38.87 45.8018C38.6479 46.1987 38.3597 46.5448 37.9894 46.8063C37.9766 46.5228 37.9477 46.2057 37.9685 45.906C38.5726 45.6143 39.1455 45.1722 39.5528 44.6445C39.6373 44.5623 39.6558 44.4293 39.5574 44.3112C39.4753 44.2267 39.3086 44.2244 39.2241 44.3066C38.8677 44.7684 38.4291 45.1456 37.9257 45.3887C37.8968 45.0716 37.9014 44.7383 37.8724 44.4212C38.4279 44.0289 38.9012 43.5521 39.2762 42.9572C39.3445 42.8415 39.2796 42.7073 39.1801 42.6725C39.0644 42.6043 38.9301 42.6691 38.8954 42.7686C38.6061 43.198 38.2173 43.5926 37.8296 43.9039C37.8018 43.5035 37.7567 43.1528 37.7289 42.7524C37.98 42.6726 38.2323 42.5094 38.4175 42.3786C38.7878 42.1171 39.1419 41.8219 39.4463 41.5095C39.6326 41.2954 39.3201 40.991 39.1338 41.2051C38.8468 41.4678 38.5598 41.7305 38.2566 41.9597C38.105 42.0743 37.9534 42.1888 37.7856 42.2698C37.752 42.286 37.6849 42.3184 37.6514 42.3346C37.6074 41.9007 37.5634 41.4667 37.4696 41.0154C38.1397 40.7746 38.7299 40.2828 39.0389 39.637C39.1071 39.5213 39.0423 39.3871 38.9428 39.3523C38.8271 39.2841 38.6766 39.3153 38.6581 39.4484C38.4174 39.9784 37.9615 40.4055 37.4257 40.5814C37.3805 40.2307 37.2856 39.8627 37.2405 39.5121C37.458 39.4484 37.6941 39.2517 37.8469 39.0538C38.1686 38.6916 38.4243 38.2784 38.6303 37.8479C38.7507 37.5829 38.3537 37.3607 38.2334 37.6257C38.0285 37.9729 37.8237 38.3201 37.5691 38.6499C37.5008 38.7656 37.399 38.8976 37.2648 38.9624C37.1976 38.9948 37.1641 39.011 37.1305 39.0272C37.0692 38.643 36.9743 38.275 36.8794 37.907C37.23 37.8618 37.5008 37.5655 37.6223 37.2172C37.7785 36.7693 37.885 36.3041 37.9915 35.8389C38.01 35.7058 37.9614 35.6051 37.8121 35.5531C37.7126 35.5183 37.5447 35.5993 37.5262 35.7324C37.4707 36.1317 37.3654 36.5136 37.2103 36.8781C37.1409 37.0772 37.002 37.4753 36.7359 37.4383C36.7035 37.3711 36.7046 37.2878 36.6884 37.2543C36.6248 37.0367 36.5611 36.8191 36.4974 36.6016C36.8168 36.406 36.9221 36.0241 37.0437 35.6757C37.1999 35.2279 37.3399 34.7464 37.4961 34.2986C37.5667 34.0162 37.1512 33.9271 37.0645 34.1759C36.9256 34.574 36.7867 34.9721 36.6976 35.3876C36.6618 35.5704 36.5923 35.7695 36.5067 35.935C36.4558 36.0009 36.4546 36.0843 36.4037 36.1502C36.3238 35.8991 36.2278 35.6144 36.1479 35.3633C36.0993 35.2626 36.0507 35.1619 36.0183 35.0948C36.0519 35.0786 36.0519 35.0786 36.0692 35.0288C36.2058 34.7974 36.2926 34.5486 36.3956 34.3333C36.5691 33.8357 36.6594 33.3369 36.6663 32.837C36.6848 32.7039 36.5529 32.602 36.436 32.6171C36.3191 32.6321 36.2347 32.7143 36.2161 32.8474C36.1745 33.4469 36.0333 34.0116 35.7926 34.5416C35.663 34.2732 35.5172 33.9711 35.4211 33.6864C35.928 33.1934 36.2219 32.4308 36.1316 31.7295C36.1166 31.6126 36.0182 31.4945 35.9013 31.5096C35.7845 31.5246 35.6664 31.623 35.6815 31.7399C35.7405 32.2908 35.5496 32.8381 35.2105 33.2501C35.0809 32.9817 34.9513 32.7132 34.8378 32.4783C35.1804 31.8163 35.1908 31.0664 35.1676 30.3327C35.1549 30.0491 34.7047 30.0596 34.7174 30.3431C34.7267 30.8766 34.736 31.4101 34.5624 31.9077C34.449 31.6728 34.3194 31.4043 34.2059 31.1694C34.4432 30.8893 34.5149 30.5236 34.5867 30.1579C34.626 29.7251 34.6653 29.2923 34.7047 28.8595C34.7232 28.7264 34.5913 28.6246 34.4744 28.6396C34.2938 28.4371 34.1758 28.5355 34.1908 28.6523ZM29.6985 38.8908C30.0261 39.312 30.5214 39.6523 31.0364 39.7761C31.1174 39.9439 31.1648 40.1279 31.2458 40.2957C31.3581 40.6139 31.4877 40.8824 31.6 41.2007C31.5826 41.2504 31.615 41.3175 31.681 41.3685C31.8419 41.7874 31.9865 42.1727 32.1474 42.5917C32.2446 42.793 32.3245 43.0442 32.4217 43.2455C32.3233 43.1275 32.2411 43.043 32.1092 42.9412C32.1104 42.8579 32.0282 42.7734 31.9449 42.7722C31.7643 42.5697 31.5838 42.3672 31.3859 42.2144C31.2609 41.6126 31.1521 41.0444 31.0271 40.4427C31.0121 40.3258 30.8628 40.2737 30.7459 40.2887C30.629 40.3038 30.5769 40.4531 30.592 40.57C30.6707 40.9044 30.7158 41.2551 30.7945 41.5895C30.5318 41.3025 30.2529 40.982 29.9902 40.695C29.849 40.0596 29.7402 39.4914 29.6985 38.8908ZM28.7439 41.6277C28.9429 41.6972 29.0922 41.7493 29.3086 41.7689C29.6245 41.8233 29.9752 41.7782 30.2772 41.6323C30.5237 41.8858 30.7864 42.1728 31.0329 42.4262C31.1313 42.5443 31.2297 42.6623 31.3119 42.7468C30.7286 42.7387 30.1789 42.7144 29.6465 42.6403C29.3514 42.2862 29.0563 41.9321 28.7439 41.6277ZM33.2527 47.024C33.3024 47.0414 33.3858 47.0425 33.4517 47.0934C33.4182 47.1096 33.3846 47.1258 33.3349 47.1085L33.3186 47.0749C33.2689 47.0576 33.2689 47.0576 33.2527 47.024ZM32.4831 48.4301C32.7701 48.1674 33.0236 47.9209 33.2446 47.6073C33.4286 47.5598 33.6462 47.4962 33.8302 47.4487C33.5733 47.9452 33.0027 48.2206 32.4831 48.4301Z" fill="#1B9200"/>
<path d="M68.0432 71.9416L28.2311 85.8238C27.2428 86.1768 26.1168 85.6445 25.7638 84.6562L16.0016 56.6355C15.6486 55.6472 16.181 54.5211 17.1693 54.1681L56.9813 40.2859C57.9696 39.9329 59.0957 40.4652 59.4486 41.4535L69.2108 69.4742C69.58 70.4961 69.0477 71.6221 68.0432 71.9416Z" fill="#E9164D"/>
<path d="M22.0768 54.8198L24.8428 58.4918L29.1975 56.9687L26.5614 60.7658L29.3609 64.4215L24.9459 63.0769L22.3097 66.8739L22.2402 62.2726L17.8251 60.928L22.1464 59.4211L22.0768 54.8198Z" fill="white"/>
<path d="M39.9454 63.2014L42.7449 66.8572L47.0661 65.3503L44.4635 69.1311L47.2132 72.7695L42.8144 71.4584L40.2118 75.2393L40.0925 70.6206L35.6937 69.3096L40.0484 67.7865L39.9454 63.2014Z" fill="white"/>
<path d="M52.2036 42.22L55.0031 45.8758L59.3243 44.3689L56.7055 48.1162L59.505 51.772L55.1062 50.4609L52.4538 54.2244L52.3843 49.6231L47.9855 48.312L52.3067 46.8051L52.2036 42.22Z" fill="white"/>
<path d="M59.4198 61.5381L62.2193 65.1938L66.5406 63.687L63.9379 67.4678L66.7039 71.1398L62.2889 69.7951L59.6863 73.576L59.5832 68.9909L55.1844 67.6798L59.5391 66.1567L59.4198 61.5381Z" fill="white"/>
<path d="M28.4723 73.2098L31.2382 76.8818L35.593 75.3587L32.9568 79.1558L35.7401 82.778L31.3413 81.4669L28.7387 85.2477L28.6356 80.6626L24.2206 79.318L28.5754 77.7949L28.4723 73.2098Z" fill="white"/>
<path d="M31.5085 50.1835L33.2108 52.424L35.8575 51.4773L34.2582 53.8219L35.9606 56.0624L33.2884 55.2419L31.6729 57.553L31.5953 54.7351L28.9232 53.9146L31.5861 53.0015L31.5085 50.1835Z" fill="white"/>
<path d="M44.1701 51.8093L45.8725 54.0497L48.5353 53.1366L46.9198 55.4477L48.6222 57.6881L45.9165 56.8839L44.301 59.195L44.257 56.3608L41.5512 55.5566L44.2141 54.6435L44.1701 51.8093Z" fill="white"/>
<path d="M55.6469 54.752L57.3493 56.9925L59.9959 56.0458L58.3966 58.3904L60.099 60.6308L57.4107 59.7768L55.8114 62.1215L55.7338 59.3036L53.0616 58.4831L55.7083 57.5364L55.6469 54.752Z" fill="white"/>
<path d="M28.977 65.6828L30.6794 67.9232L33.326 66.9765L31.7105 69.2876L33.4129 71.5281L30.7407 70.7076L29.1252 73.0187L29.0639 70.2343L26.3917 69.4139L29.0384 68.4672L28.977 65.6828Z" fill="white"/>
<path d="M49.6955 66.8536L51.3978 69.0941L54.0445 68.1473L52.4452 70.492L54.1476 72.7324L51.4419 71.9282L49.8599 74.2231L49.7823 71.4051L47.0766 70.6009L49.7395 69.6878L49.6955 66.8536Z" fill="white"/>
<path d="M40.4454 46.0594L34.4978 48.1321L45.5727 79.911L51.5202 77.8383L40.4454 46.0594Z" fill="#F0D7A9"/>
<path d="M64.0231 54.5835L20.5602 69.7302L21.063 71.1731L64.5259 56.0264L64.0231 54.5835Z" fill="#F0D7A9"/>
<path d="M37.0942 46.4109C36.9935 45.2595 36.8095 44.1068 36.5757 42.9368C36.4507 42.3351 36.3257 41.7333 36.1672 41.1477C36.1209 40.8804 36.0248 40.5957 35.9785 40.3284C35.9473 40.1779 35.9322 40.061 35.901 39.9106C35.8848 39.877 35.8686 39.8435 35.9021 39.8273C35.9021 39.8273 35.8871 39.7104 35.8859 39.7937C35.8871 39.7104 35.8547 39.6433 35.8558 39.5599C35.747 38.9917 35.688 38.4409 35.6625 37.8738C35.6324 37.64 35.6521 37.4236 35.6556 37.1737C35.6544 37.257 35.6567 37.0903 35.6556 37.1737L35.6729 37.1239C35.6903 37.0741 35.6914 36.9908 35.7088 36.9411C35.7273 36.808 35.7285 36.7246 35.747 36.5916C35.8002 36.3589 35.8199 36.1425 35.9067 35.8937C35.924 35.844 35.924 35.844 35.9414 35.7942C35.9414 35.7942 35.9761 35.6947 35.9587 35.7444C35.9414 35.7942 35.9761 35.6947 35.9761 35.6947C35.9935 35.6449 35.9935 35.6449 36.0108 35.5951C36.0455 35.4956 36.1138 35.3799 36.1323 35.2468C36.167 35.1473 36.2179 35.0813 36.2527 34.9818C36.27 34.932 36.3209 34.8661 36.3383 34.8163C36.3719 34.8001 36.3557 34.7665 36.3892 34.7503C36.4401 34.6844 36.3719 34.8001 36.4228 34.7341C36.542 34.5524 36.6947 34.3545 36.8637 34.1902C36.8972 34.174 36.9146 34.1242 36.9817 34.0918C36.9308 34.1578 37.0662 34.0097 36.9817 34.0918L37.0153 34.0756C37.0998 33.9935 37.2004 33.9449 37.2849 33.8627C37.3856 33.8141 37.4701 33.7319 37.5372 33.6995C37.5708 33.6833 37.6043 33.6671 37.6043 33.6671C37.6379 33.6509 37.6714 33.6347 37.5708 33.6833C37.6379 33.6509 37.705 33.6185 37.7386 33.6023C37.9399 33.5051 38.1239 33.4576 38.3415 33.394C38.2582 33.3928 38.4584 33.3789 38.3415 33.394C38.3751 33.3778 38.3751 33.3778 38.4248 33.3951C38.4584 33.3789 38.5417 33.3801 38.5753 33.3639C38.6922 33.3488 38.809 33.3338 38.8924 33.3349C38.9259 33.3187 39.0092 33.3199 39.0254 33.3534C39.0254 33.3534 38.9919 33.3696 38.9757 33.3361C38.9757 33.3361 39.0092 33.3199 39.0254 33.3534C39.059 33.3372 39.0752 33.3708 39.1088 33.3546C39.2083 33.3893 39.3252 33.3743 39.4247 33.409C39.4745 33.4263 39.5578 33.4275 39.574 33.4611C39.6238 33.4784 39.6238 33.4784 39.6735 33.4958C39.773 33.5305 39.8888 33.5988 39.9883 33.6335L40.0381 33.6508C40.0878 33.6682 40.1202 33.7353 40.17 33.7527C40.2522 33.8372 40.3679 33.9054 40.4339 33.9564C40.4501 33.9899 40.4998 34.0073 40.4998 34.0073C40.4339 33.9564 40.582 34.0918 40.4998 34.0073C40.516 34.0408 40.582 34.0918 40.5982 34.1253C40.6804 34.2098 40.729 34.3105 40.8111 34.395C40.8273 34.4285 40.8597 34.4956 40.8759 34.5292C40.8921 34.5628 40.9083 34.5963 40.9083 34.5963C40.8759 34.5292 40.957 34.697 40.9083 34.5963C40.957 34.697 41.0056 34.7977 41.0542 34.8984C41.1028 34.999 41.1178 35.1159 41.1664 35.2166C41.1826 35.2502 41.1815 35.3335 41.1977 35.367C41.2139 35.4006 41.2301 35.4342 41.1965 35.4504C41.1815 35.3335 41.2127 35.4839 41.2127 35.4839C41.2428 35.7177 41.2729 35.9515 41.2694 36.2014C41.2845 36.3183 41.266 36.4514 41.2475 36.5845C41.2486 36.5012 41.2637 36.6181 41.2637 36.6181C41.2799 36.6516 41.2463 36.6678 41.2625 36.7014C41.2614 36.7847 41.2602 36.868 41.2428 36.9178C41.1688 37.4501 41.0288 37.9316 40.8888 38.413C40.8714 38.4627 40.854 38.5125 40.8367 38.5623C40.8193 38.612 40.8193 38.612 40.802 38.6618C40.7672 38.7613 40.8193 38.612 40.7846 38.7116C40.7661 38.8446 40.6978 38.9604 40.6457 39.1097C40.559 39.3585 40.4386 39.6235 40.368 39.9059C39.573 41.945 38.5292 43.8973 37.4692 45.8161C37.3326 46.0476 37.1961 46.279 37.0595 46.5105C36.9403 46.6922 37.0699 46.9607 37.2354 47.0463C37.4507 47.1493 37.6521 47.0521 37.7713 46.8704C38.8822 44.8856 39.9931 42.9009 40.839 40.7958C41.0462 40.282 41.2533 39.7681 41.4443 39.2207C41.6352 38.6734 41.7926 38.1422 41.9002 37.5936C42.1143 36.5798 42.1131 35.4631 41.7103 34.4574C41.3064 33.5351 40.5669 32.7748 39.5705 32.5109C38.6401 32.298 37.6367 32.5341 36.8463 33.0399C35.0803 34.1821 34.6649 36.4932 34.8883 38.4131C35.0052 39.5982 35.3559 40.7531 35.5897 41.9231C35.6209 42.0735 35.6522 42.224 35.6834 42.3744C35.7159 42.4415 35.6985 42.4913 35.7309 42.5584C35.7471 42.592 35.7297 42.6418 35.7459 42.6753C35.7471 42.592 35.7783 42.7424 35.7448 42.7586C35.8073 43.0595 35.8536 43.3269 35.9161 43.6277C36.0249 44.196 36.1163 44.8139 36.1915 45.3984C36.2205 45.7154 36.2668 45.9828 36.2957 46.2999C36.3096 46.5001 36.4902 46.7026 36.7239 46.6725C36.9554 46.8091 37.1243 46.6447 37.0942 46.4109Z" fill="#6B2205"/>
<path d="M37.2726 45.6628C36.3166 43.6828 35.6454 41.6066 34.6049 39.7087C34.1015 38.7517 33.4974 37.8432 32.7417 37.0494C32.0519 36.3064 31.1955 35.5612 30.147 35.4466C29.1819 35.3332 28.1924 35.7695 27.549 36.494C26.872 37.2347 26.5908 38.2808 26.6938 39.2657C26.7957 40.3338 27.3153 41.3244 28.0548 42.0847C28.7608 42.8613 29.6693 43.4572 30.646 43.9375C31.6725 44.4351 32.7673 44.817 33.8274 45.2984C34.3076 45.5217 34.8215 45.7288 35.2844 46.0019C35.4001 46.0702 35.4996 46.1049 35.6154 46.1732C35.6651 46.1906 35.7311 46.2415 35.7473 46.275C35.7473 46.275 35.863 46.3433 35.7635 46.3086C35.8133 46.326 35.8295 46.3595 35.8792 46.3769C36.0771 46.5296 36.3086 46.6662 36.5065 46.8189C36.7044 46.9717 36.8849 47.1742 37.0492 47.3432C37.1974 47.4786 37.4809 47.4658 37.6001 47.2841C37.7529 47.0862 37.7054 46.9022 37.5411 46.7333C36.0296 45.1455 33.8887 44.4825 31.9664 43.6724C31.4526 43.4653 30.9723 43.2419 30.5094 42.9688C30.3937 42.9006 30.2942 42.8658 30.1784 42.7976C30.1287 42.7802 30.0627 42.7293 30.0465 42.6957C30.0303 42.6622 29.9805 42.6448 29.9805 42.6448C29.9643 42.6113 29.9308 42.6275 29.9146 42.5939C29.9643 42.6113 29.9643 42.6113 29.9146 42.5939C29.7167 42.4411 29.5014 42.3382 29.3371 42.1692C29.1392 42.0164 28.9251 41.8301 28.7608 41.6612C28.7446 41.6276 28.6786 41.5767 28.6624 41.5431C28.6624 41.5431 28.5802 41.4586 28.6462 41.5096C28.63 41.476 28.63 41.476 28.5802 41.4586C28.4981 41.3742 28.3997 41.2561 28.3511 41.1554C28.2203 40.9703 28.0733 40.7516 27.9599 40.5166C27.9599 40.5166 27.9113 40.416 27.9437 40.4831C27.9761 40.5502 27.9275 40.4495 27.9275 40.4495C27.8951 40.3824 27.8789 40.3488 27.8465 40.2817C27.7979 40.181 27.7493 40.0804 27.7342 39.9635C27.6856 39.8628 27.6706 39.7459 27.622 39.6452C27.5896 39.5781 27.6069 39.5283 27.5745 39.4612C27.5583 39.4277 27.5757 39.3779 27.5595 39.3443C27.5294 39.1106 27.4993 38.8768 27.5189 38.6604C27.5027 38.6268 27.5363 38.6106 27.5201 38.5771C27.5375 38.5273 27.5213 38.4937 27.5224 38.4104C27.5409 38.2773 27.5756 38.1778 27.5942 38.0447C27.6115 37.995 27.6289 37.9452 27.6462 37.8954C27.6115 37.995 27.6636 37.8457 27.6462 37.8954C27.6636 37.8457 27.6636 37.8457 27.6809 37.7959C27.7157 37.6964 27.7839 37.5807 27.8187 37.4811C27.836 37.4314 27.8696 37.4152 27.8869 37.3654C27.9205 37.3492 27.9043 37.3156 27.9378 37.2994C28.0223 37.2173 28.057 37.1177 28.1415 37.0356C28.226 36.9534 28.2769 36.8874 28.3614 36.8053C28.3105 36.8712 28.4123 36.7393 28.3614 36.8053L28.395 36.7891C28.4621 36.7567 28.4794 36.7069 28.5466 36.6745C28.6472 36.6259 28.6982 36.5599 28.7988 36.5113L28.8324 36.4951C28.866 36.4789 28.9169 36.4129 28.8324 36.4951C28.866 36.4789 28.9331 36.4465 28.9666 36.4303C29.0673 36.3817 29.1344 36.3493 29.2513 36.3342C29.2849 36.318 29.3856 36.2694 29.4018 36.303C29.4018 36.303 29.2849 36.318 29.3682 36.3192C29.4018 36.303 29.4515 36.3204 29.4851 36.3042C29.602 36.2891 29.6853 36.2903 29.8022 36.2752C29.8022 36.2752 29.8357 36.259 29.852 36.2926C29.852 36.2926 29.852 36.2926 29.8855 36.2764C29.9191 36.2602 29.9353 36.2937 29.8855 36.2764C29.9191 36.2602 30.0186 36.2949 30.0684 36.3122C30.2014 36.3308 30.301 36.3655 30.4005 36.4002C30.3345 36.3493 30.5 36.4349 30.4005 36.4002C30.4503 36.4175 30.4503 36.4175 30.5 36.4349C30.5498 36.4523 30.5995 36.4696 30.6655 36.5205C30.765 36.5553 30.8808 36.6235 30.9467 36.6744C30.9467 36.6744 31.1122 36.7601 31.0127 36.7254C31.0787 36.7763 31.1284 36.7936 31.1944 36.8446C31.3761 36.9638 31.5404 37.1327 31.7383 37.2855C31.8205 37.3699 31.9027 37.4544 31.9848 37.5389C32.001 37.5725 32.067 37.6234 32.0832 37.6569C32.0994 37.6905 32.1492 37.7079 32.1654 37.7414C32.1654 37.7414 32.2637 37.8595 32.2313 37.7923C32.3957 37.9613 32.5426 38.18 32.7232 38.3825C33.0345 38.7702 33.3284 39.2077 33.5888 39.6613C33.7358 39.88 33.8492 40.1149 33.9627 40.3499C33.9951 40.417 34.0113 40.4506 34.0437 40.5177C34.0599 40.5512 34.0761 40.5848 34.0923 40.6184C34.1409 40.719 34.0599 40.5512 34.1085 40.6519C34.1733 40.7862 34.2219 40.8868 34.2867 41.0211C34.5135 41.4909 34.7068 41.977 34.9336 42.4468C35.3538 43.4027 35.7403 44.3748 36.1604 45.3307C36.2738 45.5656 36.3872 45.8006 36.4845 46.0019C36.5817 46.2033 36.7634 46.3225 36.9809 46.2588C37.1997 46.1118 37.3698 45.8642 37.2726 45.6628Z" fill="#6B2205"/>
<path d="M37.5179 47.1996C36.2078 45.5147 34.1514 44.7694 32.1423 44.2082C31.0464 43.9097 29.9493 43.6944 28.8325 43.6956C27.7991 43.6979 26.7622 43.9502 25.8873 44.5382C25.0969 45.0439 24.4523 45.8517 24.2058 46.7983C24.0647 47.3631 24.0901 47.9302 24.1827 48.4648C24.2915 49.033 24.4501 49.6186 24.7429 50.1394C25.0357 50.6601 25.4974 51.0166 26.061 51.2411C26.5749 51.4482 27.1408 51.506 27.6916 51.447C28.7598 51.3452 29.7828 50.8926 30.6901 50.3719C31.1773 50.0953 31.6309 49.8349 32.1019 49.5247C32.6227 49.2319 33.1608 48.8893 33.6978 48.6301C33.9663 48.5005 34.2521 48.3211 34.5206 48.1915C34.6548 48.1267 34.7891 48.0619 34.9569 47.9808C34.9905 47.9646 35.024 47.9484 34.9569 47.9808C34.9905 47.9646 35.024 47.9484 35.0576 47.9322C35.1247 47.8998 35.2254 47.8512 35.2925 47.8188C35.863 47.5434 36.4 47.2841 36.9705 47.0087C37.239 46.8791 37.5237 46.783 37.7922 46.6534C37.9935 46.5562 38.1127 46.3745 38.0491 46.1569C37.9681 45.9891 37.754 45.8028 37.5526 45.9C35.3561 46.8363 33.2071 47.9566 31.1564 49.1949C30.7028 49.4553 30.2827 49.6995 29.8291 49.9599C29.8291 49.9599 29.7284 50.0085 29.7955 49.9761C29.762 49.9923 29.7284 50.0085 29.6948 50.0247C29.6277 50.0571 29.5942 50.0733 29.527 50.1057C29.4264 50.1543 29.2921 50.2191 29.1914 50.2677C28.9565 50.3811 28.7389 50.4448 28.4878 50.5247C28.3709 50.5397 28.2703 50.5883 28.1198 50.6196C28.0862 50.6358 28.0862 50.6358 28.0527 50.652C27.9856 50.6844 27.9358 50.667 27.8687 50.6994C27.6349 50.7295 27.3849 50.726 27.1512 50.7561C27.0343 50.7712 27.2345 50.7573 27.1176 50.7723C27.0841 50.7885 27.0679 50.755 27.0343 50.7712C26.9845 50.7538 26.9012 50.7527 26.8514 50.7353C26.7184 50.7168 26.6188 50.6821 26.4857 50.6636C26.436 50.6462 26.436 50.6462 26.3862 50.6289C26.2867 50.5941 26.4522 50.6798 26.3365 50.6115C26.2867 50.5941 26.2369 50.5768 26.171 50.5259C26.1212 50.5085 26.0714 50.4911 26.0055 50.4402C25.9557 50.4229 25.9557 50.4229 25.9395 50.3893C25.9233 50.3557 25.8735 50.3384 25.9233 50.3557C25.8076 50.2875 25.7254 50.203 25.6432 50.1185C25.5611 50.034 25.627 50.085 25.6432 50.1185C25.627 50.085 25.6108 50.0514 25.5611 50.034C25.5287 49.9669 25.4627 49.916 25.4465 49.8824C25.4141 49.8153 25.3817 49.7482 25.3493 49.6811C25.3007 49.5804 25.3817 49.7482 25.3331 49.6475C25.3169 49.614 25.3007 49.5804 25.3007 49.5804C25.2359 49.4461 25.1873 49.3455 25.156 49.195C25.0762 48.9439 24.9963 48.6928 24.95 48.4254C24.965 48.5423 24.9338 48.3919 24.9338 48.3919C24.9176 48.3583 24.935 48.3086 24.9188 48.275C24.8863 48.2079 24.9037 48.1581 24.9049 48.0748C24.8898 47.9579 24.8921 47.7913 24.8771 47.6744C24.8782 47.5911 24.8956 47.5413 24.8967 47.458C24.8817 47.3411 24.8956 47.5413 24.8805 47.4244C24.8643 47.3908 24.8979 47.3746 24.8817 47.3411C24.9002 47.208 24.9349 47.1085 24.9534 46.9754C24.9708 46.9256 24.9882 46.8759 25.0055 46.8261C24.9708 46.9256 25.0402 46.7266 25.0055 46.8261L25.0229 46.7763C25.0576 46.6768 25.0923 46.5773 25.127 46.4778C25.1617 46.3782 25.2462 46.2961 25.2809 46.1965C25.23 46.2625 25.2983 46.1468 25.2809 46.1965C25.3145 46.1803 25.2983 46.1468 25.3319 46.1306C25.3492 46.0808 25.4163 46.0484 25.4337 45.9986C25.5182 45.9165 25.5691 45.8505 25.6536 45.7683C25.6871 45.7521 25.738 45.6862 25.7716 45.67C25.8052 45.6538 25.8052 45.6538 25.8225 45.604C25.7554 45.6364 25.8734 45.538 25.8225 45.604C26.0077 45.4732 26.1431 45.3251 26.3444 45.2279C26.4451 45.1793 26.5296 45.0971 26.6303 45.0485C26.6638 45.0323 26.6638 45.0323 26.6974 45.0161C26.5967 45.0647 26.6638 45.0323 26.6974 45.0161C26.7645 44.9837 26.7981 44.9675 26.8652 44.9351C27.0666 44.8379 27.2841 44.7742 27.4681 44.7268C27.5017 44.7106 27.585 44.7117 27.6186 44.6955C27.6521 44.6793 27.6521 44.6793 27.7019 44.6967C27.7019 44.6967 27.7852 44.6978 27.7355 44.6805C27.6683 44.7129 27.769 44.6643 27.769 44.6643C27.8026 44.6481 27.8524 44.6654 27.8859 44.6492C27.9692 44.6504 28.0364 44.618 28.0861 44.6353C28.3534 44.589 28.6034 44.5925 28.8869 44.5798C29.02 44.5983 29.1369 44.5832 29.27 44.6017C29.3036 44.5855 29.3533 44.6029 29.3533 44.6029C29.4367 44.6041 29.4864 44.6214 29.5697 44.6226C30.1021 44.6966 30.6344 44.7707 31.1494 44.8945C31.6644 45.0183 32.1458 45.1583 32.6273 45.2983C32.7268 45.3331 32.8599 45.3516 32.9756 45.4198C33.0092 45.4036 33.0254 45.4372 33.0589 45.421C33.1584 45.4557 32.9594 45.3863 33.0925 45.4048C33.1422 45.4222 33.192 45.4395 33.2915 45.4742C33.5403 45.561 33.7394 45.6305 33.9882 45.7172C34.4523 45.907 34.8828 46.113 35.2959 46.3688C35.3457 46.3861 35.4117 46.437 35.4614 46.4544C35.3955 46.4035 35.4614 46.4544 35.4776 46.488C35.4938 46.5215 35.5274 46.5053 35.5436 46.5389C35.6593 46.6071 35.7415 46.6916 35.841 46.7263C36.0389 46.8791 36.2033 47.0481 36.4011 47.2008C36.4671 47.2517 36.4833 47.2853 36.5493 47.3362C36.5655 47.3698 36.6152 47.3871 36.6152 47.3871C36.6152 47.3871 36.6974 47.4716 36.6314 47.4207C36.599 47.3536 36.6476 47.4542 36.6476 47.4542C36.6639 47.4878 36.6801 47.5214 36.7136 47.5052C36.746 47.5723 36.7958 47.5896 36.8282 47.6568C36.9428 47.8084 37.1916 47.8952 37.3767 47.7644C37.5619 47.6336 37.6487 47.3848 37.5179 47.1996Z" fill="#6B2205"/>
<path d="M36.5164 47.3521C36.7004 47.3046 36.8844 47.2572 37.0684 47.2097C37.1019 47.1935 37.1355 47.1773 37.1853 47.1947C37.1853 47.1947 37.2686 47.1958 37.2188 47.1785C37.1853 47.1947 37.2188 47.1785 37.2524 47.1623C37.3357 47.1634 37.4364 47.1148 37.5197 47.116C37.9039 47.0546 38.2546 47.0095 38.6052 46.9643C39.3563 46.8914 40.09 46.8682 40.8226 46.9284C40.8723 46.9458 40.9059 46.9296 40.9556 46.9469C40.8723 46.9458 41.0054 46.9643 41.039 46.9481C41.1223 46.9492 41.2554 46.9677 41.3387 46.9689C41.5053 46.9712 41.6882 47.0071 41.871 47.043C42.2205 47.0811 42.5862 47.1529 42.9519 47.2246C43.3176 47.2964 43.6995 47.4017 44.0317 47.4896C44.1312 47.5243 44.181 47.5417 44.2805 47.5764C44.3302 47.5938 44.38 47.6111 44.4136 47.5949L44.4633 47.6123C44.4633 47.6123 44.5629 47.647 44.5131 47.6296C44.7121 47.6991 44.8614 47.7511 45.0605 47.8206C46.536 48.3911 47.9086 49.1768 49.332 49.8966C50.7393 50.5829 52.1974 51.2031 53.6579 51.6567C55.1184 52.1104 56.631 52.4147 58.162 52.5859C58.3449 52.6218 58.5451 52.6079 58.7279 52.6438C58.9443 52.6634 59.1457 52.5662 59.1989 52.3336C59.2348 52.1508 59.1052 51.8823 58.8888 51.8626C57.3739 51.7249 55.8278 51.4368 54.3499 51.033C53.968 50.9277 53.6197 50.8061 53.2378 50.7008L53.188 50.6835C53.1383 50.6661 53.0885 50.6488 53.0388 50.6314C52.9392 50.5967 52.8397 50.562 52.7402 50.5273C52.5411 50.4578 52.3918 50.4058 52.1928 50.3363C51.4799 50.0598 50.7508 49.7496 50.0391 49.3897C48.6156 48.6699 47.2095 47.9004 45.7514 47.2801C44.343 46.6772 42.8478 46.3231 41.2993 46.2016C39.7509 46.0802 38.2164 46.1589 36.7281 46.5049C36.5441 46.5524 36.3601 46.5998 36.1761 46.6473C35.9585 46.7109 35.8718 46.9598 35.9192 47.1438C36.1333 47.3301 36.2988 47.4157 36.5164 47.3521Z" fill="#6B2205"/>
<path d="M36.427 46.4849C35.7303 47.4419 35.2987 48.5194 35.0325 49.6824C34.7999 50.8293 34.7166 52.0282 34.8173 53.1797C34.8984 54.5476 35.2294 55.9189 35.5778 57.2405C35.9261 58.5621 36.3914 59.8687 36.7733 61.1741C36.9643 61.8268 37.1714 62.513 37.3624 63.1657C37.4411 63.5002 37.5198 63.8346 37.5985 64.169C37.6147 64.2026 37.5973 64.2524 37.6297 64.3195C37.6297 64.3195 37.6621 64.3866 37.6459 64.3531C37.6297 64.3195 37.6621 64.3866 37.6621 64.3866C37.661 64.4699 37.7096 64.5706 37.7084 64.6539C37.7397 64.8044 37.7536 65.0046 37.7848 65.155C37.8161 65.3055 37.83 65.5057 37.8612 65.6561C37.8751 65.8563 38.0556 66.0589 38.2894 66.0288C38.4896 66.0149 38.6921 65.8343 38.662 65.6006C38.4977 64.2315 38.1331 62.8764 37.735 61.5374C37.3531 60.232 36.904 58.959 36.5221 57.6536C36.3311 57.001 36.1402 56.3483 35.9828 55.6794C35.9504 55.6122 35.9515 55.5289 35.9527 55.4456C35.9365 55.412 35.9203 55.3785 35.9376 55.3287L35.9214 55.2952C35.9052 55.2616 35.9052 55.2616 35.9214 55.2952C35.8902 55.1447 35.8427 54.9607 35.845 54.7941C35.7663 54.4596 35.7374 54.1425 35.6922 53.7919C35.617 53.2074 35.5753 52.6068 35.6008 51.9738C35.6193 51.8407 35.6216 51.6741 35.6066 51.5572C35.5904 51.5236 35.6239 51.5074 35.6077 51.4739C35.6066 51.5572 35.6251 51.4241 35.6077 51.4739C35.6077 51.4739 35.5915 51.4403 35.6251 51.4241C35.6262 51.3408 35.6436 51.291 35.6447 51.2077C35.6818 50.9415 35.7026 50.6418 35.7396 50.3756C35.7766 50.1094 35.8472 49.8271 35.9178 49.5447C35.9363 49.4116 35.9884 49.2623 36.0405 49.113C36.0578 49.0633 36.0752 49.0135 36.0764 48.9302L36.0937 48.8804C36.1111 48.8306 36.1111 48.8306 36.1284 48.7809C36.3356 48.2671 36.5427 47.7532 36.8494 47.2741C36.8829 47.2579 36.8667 47.2243 36.9003 47.2081C36.9512 47.1422 36.8829 47.2579 36.9339 47.1919C36.9848 47.126 37.0021 47.0762 37.053 47.0102C37.1722 46.8285 37.1757 46.5786 36.994 46.4594C36.8297 46.2904 36.5797 46.287 36.427 46.4849Z" fill="#6B2205"/>
<path d="M37.6435 47.7183C38.2737 47.414 38.5379 46.6565 38.2337 46.0263C37.9294 45.3962 37.1719 45.1319 36.5418 45.4362C35.9116 45.7404 35.6473 46.4979 35.9516 47.1281C36.2558 47.7583 37.0133 48.0225 37.6435 47.7183Z" fill="#6B2205"/>
</svg>
