<svg width="111" height="30" viewBox="0 0 111 30" fill="none" xmlns="http://www.w3.org/2000/svg">
<path d="M56.7127 21.4135H53.2871V29.848H56.7127V21.4135Z" fill="#69B95C"/>
<path d="M41.4876 20.455C41.4876 20.2633 41.6779 20.1675 41.8682 20.1675C44.3422 20.8384 47.2921 20.2633 49.4807 18.9215C50.4322 18.3464 51.1935 17.3879 51.5741 16.3336C51.7644 15.8544 51.8595 15.2793 51.9547 14.7042C51.9547 14.4167 52.0499 14.1292 52.0499 13.8416C51.6692 14.4167 51.1935 14.8959 50.6225 15.1835C49.8613 15.5669 49.1952 15.1835 48.6243 14.6084C48.1485 15.471 47.1969 15.8544 46.2454 15.8544C45.389 15.8544 44.5326 15.3752 44.3422 14.5125C43.8665 14.9918 43.2955 15.1835 42.7246 14.6084C42.1537 14.0333 41.9634 12.979 42.1537 12.2122C42.1537 12.0205 42.344 12.0205 42.4391 12.0205C45.1035 12.7873 48.0533 12.8832 50.3371 11.0621C51.4789 10.1036 52.4305 8.57005 52.9063 7.03651L52.8111 7.13235C52.2402 7.41989 51.6692 7.03651 51.1935 6.55727C51.0031 7.32405 50.5274 7.89913 49.671 7.99497C48.8146 8.09082 47.9582 7.61159 47.3872 7.03651C47.1969 7.80328 46.7211 8.57005 45.8647 8.57005C44.818 8.57005 44.2471 7.03651 43.7713 6.26973C43.6762 6.07804 43.8665 5.88635 43.9616 5.88635C44.9132 5.7905 45.8647 5.40711 46.7211 5.11957C47.863 4.83203 48.9097 4.44865 49.9564 3.96941C51.7644 3.10679 53.382 1.86079 54.5239 0.231394C54.5239 0.135548 54.6191 0.039701 54.8094 0.039701C55.0948 -0.0561457 55.19 0.039701 55.19 0.135548C56.3319 1.76494 58.0447 2.9151 59.7575 3.87357C60.8042 4.3528 61.8509 4.73619 62.9928 5.11957C63.9443 5.40711 64.991 5.7905 65.9426 5.88635C66.1329 5.88635 66.3232 6.07804 66.1329 6.26973C65.562 7.03651 65.1814 8.37836 64.1346 8.57005C63.2782 8.6659 62.8025 7.80328 62.517 7.13235C61.9461 7.80328 61.0897 8.18667 60.2333 8.09082C59.472 7.99497 58.9962 7.32405 58.8059 6.65312C58.4253 7.13235 57.8544 7.41989 57.2834 7.2282C57.1883 7.2282 57.1883 7.13235 57.0931 7.13235C57.4737 8.47421 58.3301 9.81606 59.2817 10.7745C61.4703 13.0748 64.8007 12.979 67.6554 12.2122C67.7506 12.2122 67.9409 12.2122 67.9409 12.4039C68.1312 13.2665 67.9409 14.225 67.3699 14.8001C66.799 15.3752 66.2281 15.0876 65.7523 14.7042C65.562 15.471 64.7056 15.9502 63.8492 16.0461C62.8976 16.1419 61.8509 15.6627 61.4703 14.8001C60.9945 15.3752 60.3284 15.7586 59.472 15.3752C58.9011 15.0876 58.4253 14.6084 58.1398 14.0333C58.1398 14.225 58.1398 14.5125 58.235 14.7042C58.3301 15.2793 58.4253 15.8544 58.6156 16.3336C58.9962 17.4838 59.8526 18.3464 60.8042 19.0173C62.8976 20.455 65.9426 20.8384 68.4166 20.2633C68.607 20.2633 68.7021 20.3592 68.7973 20.5509C68.8924 21.701 68.1312 22.8512 67.2748 23.5221C66.6087 23.7138 66.1329 23.9055 65.6571 23.7138C65.3717 23.618 65.1814 23.4263 64.991 23.1387C64.7056 24.0014 63.9443 24.6723 62.8976 24.4806C62.0412 24.2889 61.7557 23.618 61.5654 22.8512C61.28 23.4263 60.709 23.8097 60.1381 23.9055C59.2817 24.0014 58.8059 23.5221 58.6156 22.8512C58.1398 23.618 57.3786 24.1931 56.427 24.2889C55.6658 24.3847 55.19 23.9055 54.9045 23.3304C54.6191 23.9055 54.1433 24.3847 53.382 24.2889C52.4305 24.2889 51.6692 23.618 51.1935 22.8512C51.0031 23.5221 50.5274 24.0014 49.7661 23.9055C49.1 23.8097 48.5291 23.4263 48.2436 22.8512C48.1485 23.618 47.7679 24.2889 46.9115 24.4806C45.8647 24.6723 45.1986 24.0014 44.818 23.1387C44.4374 23.7138 43.7713 24.0014 42.9149 23.5221C42.1537 22.947 41.3924 21.6052 41.4876 20.455Z" fill="#76BD66"/>
<path d="M64.1343 11.733C64.1343 11.733 64.0391 11.8288 63.7537 11.9247C63.6585 12.0205 63.4682 12.0205 63.2779 12.1164C63.0876 12.2122 62.8973 12.2122 62.7069 12.3081C61.8505 12.5956 60.6135 12.6915 59.4717 12.5956C58.2346 12.4998 57.0928 12.2122 56.1412 11.9247C55.6654 11.733 55.38 11.6372 55.0945 11.5413C54.809 11.4455 54.7139 11.3496 54.7139 11.3496" stroke="#F9F9F9" stroke-width="0.25" stroke-miterlimit="10"/>
<path d="M58.7104 13.4583C58.7104 13.8416 58.9959 14.1292 59.3765 14.1292C59.7571 14.1292 60.1377 13.8416 60.1377 13.5541C60.1377 13.1707 59.8523 12.8832 59.4716 12.8832C59.091 12.8832 58.8055 13.1707 58.7104 13.4583Z" fill="#F9F9F9"/>
<path d="M59.1862 13.0748C59.1862 13.1707 59.2813 13.3624 59.4716 13.3624C59.6619 13.3624 59.7571 13.2665 59.7571 13.1707V12.8831C59.7571 12.7873 59.6619 12.5956 59.4716 12.5956C59.3765 12.5956 59.1862 12.6914 59.1862 12.7873V13.0748Z" fill="#F9F9F9"/>
<path d="M62.136 13.3624C62.2312 13.65 62.6118 13.9375 62.9924 13.8417C63.373 13.7458 63.6585 13.3624 63.5634 13.0749C63.4682 12.8832 63.3731 12.7874 63.2779 12.6915C63.0876 12.5957 62.9924 12.5957 62.8021 12.6915C62.3263 12.6915 62.0409 13.0749 62.136 13.3624Z" fill="#F9F9F9"/>
<path d="M62.4215 12.8832C62.4215 12.9791 62.6118 13.0749 62.707 13.0749C62.8973 13.0749 62.8973 12.8832 62.8973 12.7874V12.404C62.8973 12.3081 62.707 12.2123 62.6118 12.2123C62.5167 12.2123 62.4215 12.404 62.4215 12.4998V12.8832Z" fill="#F9F9F9"/>
<path d="M55.38 12.5956C55.2848 12.8831 55.4751 13.2665 55.8557 13.4582C56.2364 13.554 56.617 13.3624 56.7121 13.0748C56.8073 12.7873 56.617 12.4039 56.2364 12.308C55.9509 12.2122 55.5703 12.308 55.38 12.5956Z" fill="#F9F9F9"/>
<path d="M55.9509 12.4039C55.9509 12.4998 55.9509 12.6915 56.1412 12.6915C56.3315 12.7873 56.4266 12.6915 56.5218 12.4998L56.617 12.2122C56.617 12.1164 56.617 11.9247 56.4266 11.9247C56.3315 11.9247 56.1412 11.9247 56.1412 12.1164L55.9509 12.4039Z" fill="#F9F9F9"/>
<path d="M54.7145 11.3496C54.7145 11.3496 54.6193 11.2538 54.3339 11.158C54.0484 11.0621 53.7629 10.8704 53.3823 10.5829C52.6211 10.1036 51.5744 9.43271 50.6228 8.57009C49.7664 7.70747 49.0052 6.74901 48.5294 5.98223C48.3391 5.59885 48.1487 5.21546 48.0536 5.02377C47.9584 4.73623 47.8633 4.64038 47.8633 4.64038" stroke="#F9F9F9" stroke-width="0.25" stroke-miterlimit="10"/>
<path d="M49.481 8.76181C49.1955 8.95351 49.2906 9.43274 49.5761 9.72028C49.8616 10.0078 50.3374 10.0078 50.5277 9.72028C50.718 9.43274 50.718 9.04935 50.4325 8.76181C50.147 8.57012 49.7664 8.57012 49.481 8.76181Z" fill="#F9F9F9"/>
<path d="M50.1471 8.76177C50.0519 8.85762 50.0519 9.04931 50.1471 9.14516C50.2422 9.241 50.4325 9.241 50.5277 9.14516L50.718 8.85762C50.8131 8.76177 50.8131 8.57008 50.718 8.47423C50.6228 8.37838 50.4325 8.37838 50.3374 8.47423L50.1471 8.76177Z" fill="#F9F9F9"/>
<path d="M52.1453 10.9662C51.955 11.2537 52.0502 11.6371 52.4308 11.8288C52.8114 12.0205 53.192 11.9246 53.3824 11.6371C53.5727 11.3496 53.3824 10.9662 53.0969 10.7745C52.7163 10.6786 52.3356 10.6786 52.1453 10.9662Z" fill="#F9F9F9"/>
<path d="M52.7162 10.8704C52.6211 10.9662 52.7162 11.1579 52.8114 11.2537C52.9065 11.3496 53.0969 11.2537 53.192 11.1579L53.3823 10.8704C53.4775 10.7745 53.3823 10.5828 53.2872 10.487C53.192 10.3911 53.0017 10.487 52.9065 10.5828L52.7162 10.8704Z" fill="#F9F9F9"/>
<path d="M47.4827 6.07802C47.1972 6.26972 47.1021 6.6531 47.2924 7.03649C47.4827 7.41988 47.9585 7.51572 48.2439 7.32403C48.5294 7.03649 48.5294 6.6531 48.3391 6.36556C48.1488 5.98218 47.7681 5.88633 47.4827 6.07802Z" fill="#F9F9F9"/>
<path d="M48.0536 6.1739C47.9585 6.26975 47.8633 6.36559 47.9585 6.55729C48.0536 6.65313 48.2439 6.74898 48.3391 6.65313L48.6246 6.46144C48.7197 6.36559 48.7197 6.26975 48.7197 6.07805C48.6246 5.98221 48.5294 5.88636 48.3391 5.98221L48.0536 6.1739Z" fill="#F9F9F9"/>
<path d="M63.564 19.5924C63.564 19.5924 63.4688 19.6882 63.1833 19.7841C63.0882 19.8799 62.8979 19.8799 62.7076 19.9758C62.5173 20.0716 62.3269 20.0716 62.1366 20.1675C61.2802 20.455 60.0432 20.5508 58.9013 20.455C57.6643 20.3591 56.5224 20.0716 55.5709 19.7841C55.0951 19.5924 54.8096 19.4965 54.5242 19.4007C54.2387 19.3048 54.1436 19.209 54.1436 19.209" stroke="#F9F9F9" stroke-width="0.25" stroke-miterlimit="10"/>
<path d="M58.1401 21.3176C58.1401 21.701 58.4255 21.9886 58.8062 21.9886C59.1868 21.9886 59.5674 21.701 59.5674 21.4135C59.5674 21.0301 59.2819 20.7426 58.9013 20.7426C58.5207 20.7426 58.2352 21.0301 58.1401 21.3176Z" fill="#F9F9F9"/>
<path d="M58.6158 20.9342C58.6158 21.03 58.711 21.2217 58.9013 21.2217C59.0916 21.2217 59.1868 21.1259 59.1868 21.03V20.7425C59.1868 20.6467 59.0916 20.455 58.9013 20.455C58.8062 20.455 58.6158 20.5508 58.6158 20.6467V20.9342Z" fill="#F9F9F9"/>
<path d="M61.5657 21.3176C61.6608 21.6052 62.0415 21.8927 62.4221 21.7969C62.8027 21.701 63.0882 21.3176 62.993 21.0301C62.8979 20.8384 62.8027 20.7426 62.7075 20.6467C62.5172 20.5509 62.4221 20.5509 62.2318 20.6467C61.756 20.6467 61.5657 20.9343 61.5657 21.3176Z" fill="#F9F9F9"/>
<path d="M61.9463 20.7426C61.9463 20.8384 62.1366 20.9343 62.2318 20.9343C62.4221 20.9343 62.4221 20.7426 62.4221 20.6467L62.3269 20.3592C62.3269 20.2633 62.1366 20.1675 62.0414 20.1675C61.9463 20.1675 61.8511 20.3592 61.8511 20.455L61.9463 20.7426Z" fill="#F9F9F9"/>
<path d="M54.8096 20.5509C54.7145 20.8384 54.9048 21.2218 55.2854 21.4135C55.6661 21.5093 56.0467 21.3176 56.1418 21.0301C56.237 20.7426 56.0467 20.3592 55.6661 20.2633C55.3806 20.0716 55 20.2633 54.8096 20.5509Z" fill="#F9F9F9"/>
<path d="M55.3806 20.2633C55.3806 20.3591 55.3806 20.5508 55.5709 20.5508C55.7612 20.6467 55.8563 20.5508 55.8563 20.3591L55.9515 20.0716C55.9515 19.9758 55.9515 19.7841 55.7612 19.7841C55.666 19.7841 55.4757 19.7841 55.4757 19.9757L55.3806 20.2633Z" fill="#F9F9F9"/>
<path d="M54.1432 19.209C54.1432 19.209 54.048 19.1132 53.7626 19.0173C53.4771 18.9215 53.1916 18.7298 52.811 18.4422C52.0498 17.963 51.0031 17.2921 50.0515 16.4295C49.1951 15.5668 48.4339 14.6084 47.9581 13.8416C47.7678 13.4582 47.5775 13.0748 47.4823 12.8831C47.3871 12.5956 47.292 12.4998 47.292 12.4998" stroke="#F9F9F9" stroke-width="0.25" stroke-miterlimit="10"/>
<path d="M48.9097 16.717C48.6242 16.9087 48.7194 17.3879 49.0048 17.6755C49.2903 17.963 49.7661 17.963 49.9564 17.6755C50.1467 17.3879 50.1467 17.0045 49.8612 16.717C49.5758 16.5253 49.1951 16.4295 48.9097 16.717Z" fill="#F9F9F9"/>
<path d="M49.5758 16.717C49.4806 16.8128 49.4806 17.0045 49.5758 17.1004C49.6709 17.1962 49.8612 17.1962 49.9564 17.1004L50.1467 16.8128C50.2419 16.717 50.2419 16.5253 50.1467 16.4294C50.0515 16.3336 49.8612 16.3336 49.7661 16.4294L49.5758 16.717Z" fill="#F9F9F9"/>
<path d="M51.574 18.9215C51.3837 19.209 51.4789 19.5924 51.8595 19.7841C52.2401 19.9758 52.6207 19.88 52.8111 19.5924C53.0014 19.3049 52.8111 18.9215 52.5256 18.7298C52.145 18.5381 51.7643 18.5381 51.574 18.9215Z" fill="#F9F9F9"/>
<path d="M52.1449 18.7299C52.0498 18.8257 52.1449 19.0174 52.2401 19.1132C52.3353 19.2091 52.5256 19.1132 52.6207 19.0174L52.811 18.7299C52.9062 18.634 52.811 18.4423 52.7159 18.3465C52.6207 18.2506 52.4304 18.3465 52.3353 18.4423L52.1449 18.7299Z" fill="#F9F9F9"/>
<path d="M46.9114 13.9375C46.6259 14.1292 46.5308 14.5126 46.7211 14.896C46.9114 15.2794 47.3872 15.3752 47.6726 15.1835C47.9581 14.9918 47.9581 14.6084 47.7678 14.2251C47.5775 13.9375 47.1969 13.7458 46.9114 13.9375Z" fill="#F9F9F9"/>
<path d="M47.4824 14.1292C47.3872 14.2251 47.292 14.3209 47.3872 14.5126C47.4823 14.6085 47.6727 14.7043 47.7678 14.6085L48.0533 14.4168C48.1484 14.3209 48.1484 14.2251 48.1484 14.0334C48.0533 13.9375 47.9581 13.8417 47.7678 13.9375L47.4824 14.1292Z" fill="#F9F9F9"/>
<path d="M11.8948 22.7554H9.80133V28.9854H11.8948V22.7554Z" fill="#76BD66"/>
<path d="M17.1283 25.5349C15.6058 24.3848 14.2737 22.9471 13.3221 21.2218C14.1785 21.4135 15.1301 21.7011 15.9865 21.6052C16.2719 21.6052 16.3671 21.2218 16.1768 21.0301C14.9398 19.4966 13.1318 18.5381 12.1802 16.717C13.2269 16.9087 14.1785 17.1004 15.2252 17.0046C15.5107 17.0046 15.701 16.5253 15.4155 16.3336C14.464 15.8544 13.6076 15.0876 12.8463 14.3209C12.4657 13.9375 12.0851 13.6499 11.7996 13.2666C11.6093 13.0749 11.1335 12.4039 10.8481 12.4039C10.5626 12.4039 10.3723 12.7873 10.182 12.979C9.80134 13.3624 9.32556 13.7458 8.94494 14.225C8.08854 15.0876 7.23214 15.8544 6.18543 16.3336C5.89996 16.5253 6.09027 17.0046 6.37574 17.0046C7.42245 17.1004 8.46916 16.9087 9.42072 16.717C8.46916 18.5381 6.66121 19.4966 5.42418 21.0301C5.23387 21.2218 5.42418 21.6052 5.61449 21.6052C6.56605 21.7011 7.42245 21.4135 8.27885 21.2218C7.42245 23.0429 5.99512 24.4806 4.47262 25.5349C4.18716 25.7266 4.28231 26.2058 4.66294 26.2058C5.70965 26.2058 6.75636 26.0142 7.70792 25.7266C7.61276 26.0142 7.42245 26.3017 7.32729 26.5892C7.13698 26.8768 7.42245 27.1643 7.61276 27.0685C8.94494 26.7809 9.8965 26.0142 10.7529 25.0557C11.7045 26.11 12.656 26.7809 13.893 27.0685C14.1785 27.1643 14.3688 26.8768 14.1785 26.5892C13.9882 26.3017 13.893 26.0142 13.7979 25.7266C14.7494 26.0142 15.7962 26.3017 16.8429 26.2058C17.2235 26.2058 17.4138 25.7266 17.1283 25.5349Z" fill="#76BD66"/>
<path d="M23.3129 22.8512H20.6486V29.4646H23.3129V22.8512Z" fill="#E9164D"/>
<path d="M32.543 22.0844C32.543 21.9886 32.4479 21.8927 32.2576 21.8927C30.3544 22.372 27.9756 21.9886 26.2628 20.9343C25.5015 20.455 24.9306 19.7841 24.5499 18.9215C24.3596 18.5381 24.2645 18.0589 24.2645 17.6755C24.2645 17.4838 24.1693 17.2921 24.1693 17.0045C24.4548 17.4838 24.8354 17.8672 25.216 18.0589C25.8821 18.3464 26.3579 18.0589 26.7385 17.5796C27.1192 18.2505 27.8804 18.5381 28.6416 18.5381C29.3077 18.5381 29.9738 18.1547 30.1641 17.4838C30.5448 17.8672 31.0205 17.963 31.4963 17.5796C31.9721 17.1004 32.0672 16.2378 31.9721 15.6627C31.9721 15.5668 31.7818 15.471 31.6866 15.471C29.5932 16.0461 27.3095 16.1419 25.5015 14.7042C24.5499 13.9374 23.7887 12.7873 23.5032 11.5413C23.5032 11.5413 23.5984 11.5413 23.5984 11.6371C24.0742 11.9247 24.5499 11.6371 24.8354 11.2537C25.0257 11.8288 25.3112 12.3081 25.9773 12.4039C26.6434 12.4997 27.3095 12.1164 27.7852 11.6371C27.9756 12.2122 28.3562 12.7873 29.0223 12.7873C29.8787 12.7873 30.2593 11.5413 30.6399 10.9662C30.7351 10.8704 30.6399 10.6787 30.4496 10.6787C29.6884 10.5828 29.0223 10.2953 28.261 10.1036C27.4046 9.81604 26.5482 9.62435 25.6918 9.14512C24.2645 8.47419 23.0275 7.51572 22.0759 6.17387C22.0759 6.07802 21.9807 5.98218 21.8856 5.98218C21.7904 5.98218 21.6953 6.07802 21.6953 6.17387C20.8389 7.41988 19.5067 8.37834 18.0794 9.04927C17.3181 9.43266 16.4617 9.7202 15.6053 10.0077C14.8441 10.1994 14.0828 10.5828 13.2264 10.6787C13.1313 10.6787 12.941 10.8704 13.0361 10.9662C13.4167 11.5413 13.7974 12.5956 14.6538 12.6914C15.3198 12.7873 15.7005 12.1164 15.8908 11.5413C16.3666 12.0205 16.9375 12.4039 17.6987 12.3081C18.3648 12.2122 18.7454 11.733 18.8406 11.1579C19.1261 11.5413 19.6019 11.733 20.0776 11.6371C20.1728 11.6371 20.1728 11.6371 20.2679 11.5413C19.9825 12.5956 19.3164 13.6499 18.5551 14.4167C16.8423 16.1419 14.2731 16.1419 11.9894 15.471C11.8942 15.471 11.7991 15.471 11.7039 15.6627C11.6088 16.3336 11.7039 17.1004 12.1797 17.5796C12.5603 18.0589 13.1313 17.8672 13.5119 17.4838C13.7022 18.1547 14.3683 18.4422 15.0344 18.5381C15.7956 18.6339 16.5569 18.2505 16.9375 17.5796C17.3181 18.0589 17.7939 18.3464 18.46 18.0589C18.9358 17.8672 19.2212 17.4838 19.5067 17.0045C19.5067 17.1962 19.5067 17.3879 19.5067 17.4838C19.5067 17.963 19.4115 18.3464 19.2212 18.7298C18.9358 19.5924 18.2697 20.3592 17.5084 20.8384C15.8908 21.8927 13.4167 22.2761 11.5136 21.7969C11.4185 21.7969 11.2281 21.8927 11.2281 21.9886C11.133 22.8512 11.7039 23.8097 12.4652 24.3847C12.7506 24.5764 13.1313 24.7681 13.5119 24.5764C13.7022 24.4806 13.8925 24.3847 13.9877 24.193C14.2731 24.864 14.8441 25.439 15.6053 25.2474C16.2714 25.1515 16.4617 24.5764 16.652 24.0013C16.9375 24.3847 17.3181 24.7681 17.7939 24.7681C18.46 24.864 18.8406 24.4806 19.0309 23.9055C19.4115 24.4806 19.9825 24.9598 20.7437 25.0557C21.3147 25.0557 21.6953 24.7681 21.8856 24.2889C22.0759 24.7681 22.4565 25.0557 23.0275 25.0557C23.7887 25.0557 24.3596 24.5764 24.7403 23.9055C24.9306 24.3847 25.3112 24.7681 25.8821 24.7681C26.3579 24.7681 26.8337 24.3847 27.1192 23.9055C27.2143 24.4806 27.4998 25.0557 28.1659 25.1515C28.9271 25.3432 29.498 24.7681 29.7835 24.0972C30.069 24.5764 30.6399 24.7681 31.2108 24.3847C32.0672 24.0013 32.6382 23.0429 32.543 22.0844Z" fill="#E9164D"/>
<path d="M14.8441 15.2794C14.8441 15.2794 14.9392 15.2794 15.1295 15.3752C15.2247 15.3752 15.3198 15.4711 15.5101 15.4711C15.6053 15.5669 15.7956 15.5669 15.9859 15.6628C16.652 15.8545 17.6036 15.9503 18.5551 15.8545C19.5067 15.7586 20.4582 15.5669 21.1243 15.2794C21.505 15.1835 21.7904 15.0877 21.9807 14.9918C22.171 14.896 22.2662 14.896 22.2662 14.896" stroke="#F9F9F9" stroke-width="0.25" stroke-miterlimit="10"/>
<path d="M19.0309 16.6212C19.0309 16.9087 18.8406 17.1004 18.5551 17.1963C18.2697 17.1963 17.9842 17.0046 17.9842 16.7171C17.9842 16.4295 18.1745 16.2378 18.46 16.2378C18.7454 16.142 19.0309 16.3337 19.0309 16.6212Z" fill="#F9F9F9"/>
<path d="M18.7454 16.3337C18.7454 16.4296 18.6503 16.5254 18.5551 16.5254C18.46 16.5254 18.3648 16.4296 18.3648 16.3337V16.0462C18.3648 15.9503 18.46 15.8545 18.5551 15.8545C18.6503 15.8545 18.7454 15.9503 18.7454 16.0462V16.3337Z" fill="#F9F9F9"/>
<path d="M16.3666 16.5254C16.3666 16.8129 15.9859 16.9088 15.7005 16.9088C15.415 16.8129 15.2247 16.5254 15.3199 16.2378C15.3199 16.142 15.415 16.0461 15.6053 15.9503C15.7005 15.8545 15.8908 15.8545 15.9859 15.9503C16.2714 16.0461 16.4617 16.3337 16.3666 16.5254Z" fill="#F9F9F9"/>
<path d="M16.1763 16.142C16.1763 16.2378 16.0811 16.3337 15.8908 16.2378C15.7957 16.2378 15.7005 16.142 15.7005 15.9503L15.7957 15.6628C15.7957 15.5669 15.8908 15.4711 16.0811 15.5669C16.1763 15.5669 16.2714 15.6628 16.2714 15.7586L16.1763 16.142Z" fill="#F9F9F9"/>
<path d="M21.6953 15.9504C21.7905 16.2379 21.6001 16.5254 21.3147 16.6213C21.0292 16.7171 20.7437 16.5254 20.6486 16.3338C20.5534 16.0462 20.7437 15.8545 21.0292 15.7587C21.3147 15.6628 21.6001 15.7587 21.6953 15.9504Z" fill="#F9F9F9"/>
<path d="M21.2196 15.7586C21.2196 15.8545 21.2196 15.9503 21.0292 16.0462C20.9341 16.0462 20.8389 16.0462 20.7438 15.9503L20.6486 15.6628C20.6486 15.5669 20.6486 15.4711 20.7438 15.3752C20.8389 15.3752 20.9341 15.3752 21.0292 15.4711L21.2196 15.7586Z" fill="#F9F9F9"/>
<path d="M22.171 14.896C22.171 14.896 22.2662 14.8001 22.4565 14.7043C22.6468 14.6084 22.9323 14.5126 23.2177 14.3209C23.8838 13.9375 24.6451 13.3624 25.3112 12.6915C25.9772 12.0206 26.6433 11.2538 26.9288 10.6787C27.1191 10.3912 27.2143 10.1036 27.3094 9.91193C27.4046 9.72024 27.4046 9.62439 27.4046 9.62439" stroke="#F9F9F9" stroke-width="0.25" stroke-miterlimit="10"/>
<path d="M26.2627 12.979C26.4531 13.1707 26.4531 13.5541 26.1676 13.7457C25.9773 13.9374 25.5967 13.9374 25.4063 13.7457C25.216 13.5541 25.3112 13.2665 25.5015 12.979C25.787 12.7873 26.0724 12.7873 26.2627 12.979Z" fill="#F9F9F9"/>
<path d="M25.787 12.979C25.8821 13.0749 25.8821 13.1707 25.787 13.2666C25.6918 13.3624 25.5966 13.3624 25.5015 13.2666L25.3112 13.0749C25.216 12.979 25.216 12.8832 25.3112 12.7873C25.4063 12.6915 25.5015 12.6915 25.5966 12.7873L25.787 12.979Z" fill="#F9F9F9"/>
<path d="M24.2645 14.7042C24.4548 14.8959 24.3596 15.2793 24.0741 15.3751C23.7887 15.5668 23.5032 15.471 23.3129 15.1835C23.2177 14.9918 23.3129 14.6084 23.5032 14.5125C23.7887 14.4167 24.0741 14.4167 24.2645 14.7042Z" fill="#F9F9F9"/>
<path d="M23.7887 14.6084C23.8838 14.7042 23.7887 14.8001 23.6935 14.8959C23.5984 14.9918 23.5032 14.8959 23.4081 14.8001L23.3129 14.6084C23.2178 14.5125 23.3129 14.4167 23.4081 14.3208C23.5032 14.225 23.5984 14.3208 23.6935 14.4167L23.7887 14.6084Z" fill="#F9F9F9"/>
<path d="M27.8804 10.7745C28.1658 10.8704 28.1658 11.2538 27.9755 11.5413C27.7852 11.8289 27.4997 11.9247 27.2143 11.733C27.024 11.5413 26.9288 11.2538 27.1191 10.9662C27.3094 10.7745 27.6901 10.6787 27.8804 10.7745Z" fill="#F9F9F9"/>
<path d="M27.4046 10.9662C27.4998 11.0621 27.4998 11.1579 27.4998 11.2537C27.4046 11.3496 27.3095 11.3496 27.2143 11.3496L27.024 11.2537C26.9288 11.1579 26.9288 11.0621 26.9288 10.9662C27.024 10.8704 27.1191 10.8704 27.2143 10.8704L27.4046 10.9662Z" fill="#F9F9F9"/>
<path d="M15.3198 21.4135C15.3198 21.4135 15.415 21.4135 15.6053 21.5094C15.7004 21.5094 15.7956 21.6052 15.9859 21.6052C16.0811 21.7011 16.2714 21.7011 16.4617 21.7969C17.1278 21.9886 18.0793 22.0844 19.0309 22.0844C19.9825 21.9886 20.934 21.7969 21.6001 21.5094C21.9807 21.4135 22.2662 21.3177 22.4565 21.2218C22.6468 21.126 22.742 21.126 22.742 21.126" stroke="#F9F9F9" stroke-width="0.25" stroke-miterlimit="10"/>
<path d="M19.5067 22.8512C19.5067 23.1387 19.3164 23.3304 19.0309 23.4263C18.7454 23.4263 18.46 23.2346 18.46 22.947C18.46 22.6595 18.6503 22.4678 18.9357 22.4678C19.2212 22.372 19.5067 22.5636 19.5067 22.8512Z" fill="#F9F9F9"/>
<path d="M19.126 22.5637C19.126 22.6596 19.0309 22.7554 18.9357 22.7554C18.8406 22.7554 18.7454 22.6596 18.7454 22.5637V22.2762C18.7454 22.1803 18.8406 22.0845 18.9357 22.0845C19.0309 22.0845 19.126 22.1803 19.126 22.2762V22.5637Z" fill="#F9F9F9"/>
<path d="M16.8423 22.7554C16.8423 23.0429 16.4617 23.1387 16.1762 23.1387C15.8908 23.0429 15.7005 22.7554 15.7956 22.4678C15.7956 22.372 15.8908 22.2761 16.0811 22.1803C16.1762 22.0844 16.3666 22.0844 16.4617 22.1803C16.652 22.2761 16.8423 22.4678 16.8423 22.7554Z" fill="#F9F9F9"/>
<path d="M16.5569 22.372C16.5569 22.4678 16.4617 22.5637 16.2714 22.4678C16.1763 22.4678 16.0811 22.372 16.0811 22.1803L16.1763 21.8928C16.1763 21.7969 16.2714 21.7011 16.4617 21.7969C16.5569 21.7969 16.6521 21.8928 16.6521 21.9886L16.5569 22.372Z" fill="#F9F9F9"/>
<path d="M22.0759 22.1803C22.1711 22.4679 21.9808 22.7554 21.6953 22.8513C21.4098 22.9471 21.1244 22.8513 21.0292 22.5637C20.9341 22.2762 21.1244 21.9886 21.4098 21.9886C21.6953 21.797 21.9808 21.8928 22.0759 22.1803Z" fill="#F9F9F9"/>
<path d="M21.6953 21.9886C21.6953 22.0845 21.6953 22.1803 21.6002 22.2762C21.505 22.2762 21.4099 22.2762 21.3147 22.1803L21.2195 21.8928C21.2195 21.7969 21.2195 21.7011 21.3147 21.6052C21.4099 21.6052 21.505 21.6052 21.6002 21.7011L21.6953 21.9886Z" fill="#F9F9F9"/>
<path d="M22.6468 21.1259C22.6468 21.1259 22.7419 21.0301 22.9323 20.9342C23.1226 20.8384 23.408 20.7425 23.6935 20.5509C24.3596 20.1675 25.1208 19.5924 25.7869 18.9215C26.453 18.2505 27.1191 17.4838 27.4046 16.9087C27.5949 16.6211 27.69 16.3336 27.7852 16.1419C27.8804 15.9502 27.8804 15.8544 27.8804 15.8544" stroke="#F9F9F9" stroke-width="0.25" stroke-miterlimit="10"/>
<path d="M26.7385 19.209C26.9288 19.4006 26.9288 19.6882 26.6434 19.9757C26.4531 20.1674 26.0724 20.1674 25.8821 19.9757C25.6918 19.784 25.787 19.4965 25.9773 19.209C26.2627 19.0173 26.5482 19.0173 26.7385 19.209Z" fill="#F9F9F9"/>
<path d="M26.2627 19.209C26.3579 19.3049 26.3579 19.4007 26.2627 19.4966C26.1676 19.5924 26.0724 19.5924 25.9773 19.4966L25.7869 19.3049C25.6918 19.209 25.6918 19.1132 25.7869 19.0173C25.8821 18.9215 25.9773 18.9215 26.0724 19.0173L26.2627 19.209Z" fill="#F9F9F9"/>
<path d="M24.6451 20.8385C24.8354 21.0302 24.7402 21.4136 24.4548 21.5094C24.1693 21.7011 23.8838 21.6053 23.6935 21.4136C23.5984 21.2219 23.6935 20.8385 23.8838 20.7426C24.1693 20.6468 24.5499 20.6468 24.6451 20.8385Z" fill="#F9F9F9"/>
<path d="M24.1693 20.7426C24.2645 20.8385 24.1693 20.9343 24.0742 21.0302C23.979 21.126 23.8838 21.0302 23.7887 20.9343L23.6935 20.7426C23.5984 20.6468 23.6935 20.551 23.7887 20.4551C23.8838 20.3593 23.979 20.4551 24.0742 20.551L24.1693 20.7426Z" fill="#F9F9F9"/>
<path d="M28.3561 17.0046C28.6416 17.1004 28.6416 17.4838 28.4513 17.7713C28.261 18.0589 27.9755 18.1547 27.69 17.963C27.4997 17.7713 27.4046 17.4838 27.5949 17.2921C27.7852 17.0046 28.0707 16.9087 28.3561 17.0046Z" fill="#F9F9F9"/>
<path d="M27.8804 17.1004C27.9755 17.1962 27.9755 17.2921 27.9755 17.3879C27.8804 17.4838 27.7852 17.4837 27.6901 17.4837L27.4998 17.3879C27.4046 17.2921 27.4046 17.1962 27.4046 17.1004C27.4998 17.0045 27.5949 17.0045 27.6901 17.0045L27.8804 17.1004Z" fill="#F9F9F9"/>
<path d="M27.2145 29.9439C25.9775 29.0813 24.5502 28.3145 23.1228 27.8353C22.1713 27.5478 21.2197 27.7395 20.3633 27.9311C19.4118 28.1228 18.5554 28.5062 17.6038 28.7938C16.5571 29.0813 15.4152 29.273 14.2734 29.3688C13.1315 29.4647 11.9896 29.4647 10.8478 29.273C9.80104 29.0813 8.84948 28.7938 7.89792 28.3145C7.04152 27.9311 6.18512 27.4519 5.13841 27.2602C4.0917 27.0685 2.94983 27.4519 1.90311 27.8353C1.33218 28.027 0.761246 28.3145 0.380623 28.6979C0.190311 28.9855 0 29.4647 0 29.9439H27.2145Z" fill="#EDEDED"/>
<path d="M100.199 22.7554H98.1055V28.9854H100.199V22.7554Z" fill="#E9164D"/>
<path d="M92.8715 25.5349C94.394 24.3848 95.7262 22.9471 96.6778 21.2218C95.8213 21.4135 94.8698 21.7011 94.0134 21.6052C93.7279 21.6052 93.6328 21.2218 93.8231 21.0301C95.0601 19.4966 96.8681 18.5381 97.8196 16.717C96.7729 16.9087 95.8213 17.1004 94.7746 17.0046C94.4892 17.0046 94.2989 16.5253 94.5843 16.3336C95.5359 15.8544 96.3923 15.0876 97.1535 14.3209C97.5342 13.9375 97.9148 13.6499 98.2002 13.2666C98.3906 13.0749 98.8663 12.4039 99.1518 12.4039C99.4373 12.4039 99.6276 12.7873 99.8179 12.979C100.199 13.3624 100.674 13.7458 101.055 14.225C101.911 15.0876 102.768 15.8544 103.814 16.3336C104.1 16.5253 103.91 17.0046 103.624 17.0046C102.577 17.1004 101.531 16.9087 100.579 16.717C101.531 18.5381 103.339 19.4966 104.576 21.0301C104.766 21.2218 104.671 21.6052 104.385 21.6052C103.434 21.7011 102.577 21.4135 101.721 21.2218C102.577 23.0429 104.005 24.4806 105.527 25.5349C105.813 25.7266 105.718 26.2058 105.337 26.2058C104.29 26.2058 103.243 26.0142 102.292 25.7266C102.387 26.0142 102.577 26.3017 102.673 26.5892C102.863 26.8768 102.577 27.1643 102.387 27.0685C101.055 26.7809 100.103 26.0142 99.247 25.0557C98.2954 26.11 97.3438 26.7809 96.1068 27.0685C95.8214 27.1643 95.631 26.8768 95.8213 26.5892C96.0117 26.3017 96.1068 26.0142 96.202 25.7266C95.2504 26.0142 94.2037 26.3017 93.157 26.2058C92.7764 26.2058 92.6812 25.7266 92.8715 25.5349Z" fill="#76BD66"/>
<path d="M89.3511 22.8512H86.6867V29.4646H89.3511V22.8512Z" fill="#E9164D"/>
<path d="M77.4566 22.0844C77.4566 21.9886 77.5518 21.8927 77.7421 21.8927C79.6452 22.372 82.0241 21.9886 83.7369 20.9343C84.4981 20.455 85.0691 19.7841 85.4497 18.9215C85.64 18.5381 85.7352 18.0589 85.7352 17.6755C85.7352 17.4838 85.8303 17.2921 85.8303 17.0045C85.5449 17.4838 85.1642 17.8672 84.7836 18.0589C84.1175 18.3464 83.6417 18.0589 83.2611 17.5796C82.8805 18.2505 82.1193 18.5381 81.358 18.5381C80.6919 18.5381 80.0258 18.1547 79.8355 17.4838C79.4549 17.8672 78.9791 17.963 78.5033 17.5796C78.0276 17.1004 77.9324 16.2378 78.0276 15.6627C78.0276 15.5668 78.2179 15.471 78.313 15.471C80.4065 16.0461 82.6902 16.1419 84.4982 14.7042C85.4497 13.9374 86.211 12.7873 86.4964 11.5413C86.4964 11.5413 86.4013 11.5413 86.4013 11.6371C85.9255 11.9247 85.4497 11.6371 85.1642 11.2537C84.9739 11.8288 84.6885 12.3081 84.0224 12.4039C83.3563 12.4997 82.6902 12.1164 82.2144 11.6371C82.0241 12.2122 81.6435 12.7873 80.9774 12.7873C80.121 12.7873 79.7404 11.5413 79.3597 10.9662C79.2646 10.8704 79.3597 10.6787 79.5501 10.6787C80.3113 10.5828 80.9774 10.2953 81.7386 10.1036C82.595 9.81604 83.4514 9.62435 84.3078 9.14512C85.7352 8.47419 86.9722 7.51572 87.9238 6.17387C87.9238 6.07802 88.0189 5.98218 88.1141 5.98218C88.2092 5.98218 88.3044 6.07802 88.3044 6.17387C89.1608 7.41988 90.493 8.37834 91.9203 9.04927C92.6815 9.43266 93.5379 9.7202 94.3943 10.0077C95.1556 10.1994 95.9168 10.5828 96.7732 10.6787C96.8684 10.6787 97.0587 10.8704 96.9635 10.9662C96.5829 11.5413 96.2023 12.5956 95.3459 12.6914C94.6798 12.7873 94.2992 12.1164 94.1089 11.5413C93.6331 12.0205 93.0622 12.4039 92.3009 12.3081C91.6348 12.2122 91.2542 11.733 91.1591 11.1579C90.8736 11.5413 90.3978 11.733 89.922 11.6371C89.8269 11.6371 89.8269 11.6371 89.7317 11.5413C90.0172 12.5956 90.6833 13.6499 91.4445 14.4167C93.1573 16.1419 95.7265 16.1419 98.0103 15.471C98.1054 15.471 98.2006 15.471 98.2957 15.6627C98.3909 16.3336 98.2957 17.1004 97.82 17.5796C97.4393 18.0589 96.8684 17.8672 96.4878 17.4838C96.2975 18.1547 95.6314 18.4422 94.9653 18.5381C94.204 18.6339 93.4428 18.2505 93.0622 17.5796C92.6815 18.0589 92.2058 18.3464 91.5397 18.0589C91.0639 17.8672 90.7784 17.4838 90.493 17.0045C90.493 17.1962 90.493 17.3879 90.493 17.4838C90.493 17.963 90.5881 18.3464 90.7784 18.7298C91.0639 19.5924 91.73 20.3592 92.4912 20.8384C94.1089 21.8927 96.5829 22.2761 98.486 21.7969C98.5812 21.7969 98.7715 21.8927 98.7715 21.9886C98.8667 22.8512 98.2957 23.8097 97.5345 24.3847C97.249 24.5764 96.8684 24.7681 96.4878 24.5764C96.2975 24.4806 96.1071 24.3847 96.012 24.193C95.7265 24.864 95.1556 25.439 94.3943 25.2474C93.7283 25.1515 93.5379 24.5764 93.3476 24.0013C93.0622 24.3847 92.6815 24.7681 92.2058 24.7681C91.5397 24.864 91.159 24.4806 90.9687 23.9055C90.5881 24.4806 90.0172 24.9598 89.2559 25.0557C88.685 25.0557 88.3044 24.7681 88.1141 24.2889C87.9238 24.7681 87.5431 25.0557 86.9722 25.0557C86.211 25.0557 85.64 24.5764 85.2594 23.9055C85.0691 24.3847 84.6885 24.7681 84.1175 24.7681C83.6417 24.7681 83.166 24.3847 82.8805 23.9055C82.7853 24.4806 82.4999 25.0557 81.8338 25.1515C81.0725 25.3432 80.5016 24.7681 80.2161 24.0972C79.9307 24.5764 79.3597 24.7681 78.7888 24.3847C77.9324 24.0013 77.3615 23.0429 77.4566 22.0844Z" fill="#E9164D"/>
<path d="M95.1555 15.2794C95.1555 15.2794 95.0603 15.2794 94.87 15.3752C94.7749 15.3752 94.6797 15.4711 94.4894 15.4711C94.3942 15.5669 94.2039 15.5669 94.0136 15.6628C93.3475 15.8545 92.396 15.9503 91.4444 15.8545C90.4929 15.7586 89.5413 15.5669 88.8752 15.2794C88.4946 15.1835 88.2091 15.0877 88.0188 14.9918C87.8285 14.896 87.7333 14.896 87.7333 14.896" stroke="#F9F9F9" stroke-width="0.25" stroke-miterlimit="10"/>
<path d="M90.9686 16.6212C90.9686 16.9087 91.1589 17.1004 91.4444 17.1963C91.7299 17.1963 92.0153 17.0046 92.0153 16.7171C92.0153 16.4295 91.825 16.2378 91.5396 16.2378C91.2541 16.142 90.9686 16.3337 90.9686 16.6212Z" fill="#F9F9F9"/>
<path d="M91.3492 16.3337C91.3492 16.4296 91.4444 16.5254 91.5396 16.5254C91.6347 16.5254 91.7299 16.4296 91.7299 16.3337V16.0462C91.7299 15.9503 91.6347 15.8545 91.5396 15.8545C91.4444 15.8545 91.3492 15.9503 91.3492 16.0462V16.3337Z" fill="#F9F9F9"/>
<path d="M93.633 16.5254C93.633 16.8129 94.0136 16.9088 94.2991 16.9088C94.5846 16.8129 94.7749 16.5254 94.6797 16.2378C94.6797 16.142 94.5846 16.0461 94.3943 15.9503C94.2991 15.8545 94.1088 15.8545 94.0137 15.9503C93.7282 16.0461 93.5379 16.3337 93.633 16.5254Z" fill="#F9F9F9"/>
<path d="M93.9185 16.142C93.9185 16.2378 94.0137 16.3337 94.204 16.2378C94.2991 16.2378 94.3943 16.142 94.3943 15.9503L94.204 15.8544C94.204 15.7586 94.1088 15.6627 93.9185 15.7586C93.8234 15.7586 93.7282 15.8544 93.7282 15.9503L93.9185 16.142Z" fill="#F9F9F9"/>
<path d="M88.3043 15.9504C88.2091 16.2379 88.3994 16.5254 88.6849 16.6213C88.9704 16.7171 89.2559 16.5254 89.351 16.3338C89.4462 16.0462 89.2558 15.8545 88.9704 15.7587C88.7801 15.6628 88.3995 15.7587 88.3043 15.9504Z" fill="#F9F9F9"/>
<path d="M88.7801 15.7586C88.7801 15.8545 88.7801 15.9503 88.9704 16.0462C89.0656 16.0462 89.1607 16.0462 89.2559 15.9503L89.351 15.6628C89.351 15.5669 89.351 15.4711 89.2559 15.3752C89.1607 15.3752 89.0656 15.3752 88.9704 15.4711L88.7801 15.7586Z" fill="#F9F9F9"/>
<path d="M87.8285 14.896C87.8285 14.896 87.7333 14.8001 87.543 14.7043C87.3527 14.6084 87.0672 14.5126 86.7818 14.3209C86.1157 13.9375 85.3544 13.3624 84.6883 12.6915C84.0222 12.0206 83.3562 11.2538 83.0707 10.6787C82.8804 10.3912 82.7852 10.1036 82.6901 9.91193C82.5949 9.72024 82.5949 9.62439 82.5949 9.62439" stroke="#F9F9F9" stroke-width="0.25" stroke-miterlimit="10"/>
<path d="M83.7368 12.979C83.5465 13.1707 83.5464 13.5541 83.8319 13.7457C84.0222 13.9374 84.4029 13.9374 84.5932 13.7457C84.7835 13.5541 84.6883 13.2665 84.498 12.979C84.2125 12.7873 83.9271 12.7873 83.7368 12.979Z" fill="#F9F9F9"/>
<path d="M84.2125 12.979C84.1174 13.0749 84.1174 13.1707 84.2125 13.2666C84.3077 13.3624 84.4029 13.3624 84.498 13.2666L84.6883 13.0749C84.7835 12.979 84.7835 12.8832 84.6883 12.7873C84.5932 12.6915 84.498 12.6915 84.4028 12.7873L84.2125 12.979Z" fill="#F9F9F9"/>
<path d="M85.8302 14.7042C85.6399 14.8959 85.7351 15.2793 86.0205 15.3751C86.306 15.5668 86.5915 15.471 86.7818 15.1835C86.8769 14.9918 86.7818 14.6084 86.5915 14.5125C86.2108 14.4167 85.9254 14.4167 85.8302 14.7042Z" fill="#F9F9F9"/>
<path d="M86.2109 14.6084C86.1157 14.7042 86.2109 14.8001 86.306 14.8959C86.4012 14.9918 86.4963 14.8959 86.5915 14.8001L86.6866 14.6084C86.7818 14.5125 86.6866 14.4167 86.5915 14.3208C86.4963 14.225 86.4012 14.3208 86.306 14.4167L86.2109 14.6084Z" fill="#F9F9F9"/>
<path d="M82.1192 10.7745C81.8337 10.8704 81.8337 11.2538 82.024 11.5413C82.2143 11.8289 82.4998 11.9247 82.7852 11.733C82.9756 11.5413 83.0707 11.2538 82.8804 10.9662C82.6901 10.7745 82.4046 10.6787 82.1192 10.7745Z" fill="#F9F9F9"/>
<path d="M82.5949 10.9662C82.4998 11.0621 82.4998 11.1579 82.4998 11.2537C82.5949 11.3496 82.6901 11.3496 82.7852 11.3496L82.9755 11.2537C83.0707 11.1579 83.0707 11.0621 83.0707 10.9662C82.9755 10.8704 82.8804 10.8704 82.7852 10.8704L82.5949 10.9662Z" fill="#F9F9F9"/>
<path d="M94.7749 21.4135C94.7749 21.4135 94.6797 21.4135 94.4894 21.5094C94.3942 21.5094 94.2991 21.6052 94.1088 21.6052C94.0136 21.7011 93.8233 21.7011 93.633 21.7969C92.9669 21.9886 92.0153 22.0844 91.0638 22.0844C90.1122 21.9886 89.1607 21.7969 88.4946 21.5094C88.114 21.4135 87.8285 21.3177 87.6382 21.2218C87.4479 21.126 87.3527 21.126 87.3527 21.126" stroke="#F9F9F9" stroke-width="0.25" stroke-miterlimit="10"/>
<path d="M90.4929 22.8512C90.4929 23.1387 90.6832 23.3304 90.9686 23.4263C91.2541 23.4263 91.5396 23.2346 91.5396 22.947C91.5396 22.6595 91.3493 22.4678 91.0638 22.4678C90.7783 22.372 90.588 22.5636 90.4929 22.8512Z" fill="#F9F9F9"/>
<path d="M90.8735 22.5637C90.8735 22.6596 90.9686 22.7554 91.0638 22.7554C91.1589 22.7554 91.2541 22.6596 91.2541 22.5637V22.2762C91.2541 22.1803 91.1589 22.0845 91.0638 22.0845C90.9686 22.0845 90.8735 22.1803 90.8735 22.2762V22.5637Z" fill="#F9F9F9"/>
<path d="M93.1572 22.7554C93.1572 23.0429 93.5378 23.1387 93.8233 23.1387C94.1088 23.0429 94.2991 22.7554 94.2039 22.4678C94.2039 22.372 94.1088 22.2761 93.9185 22.1803C93.8233 22.0844 93.633 22.0844 93.5379 22.1803C93.3475 22.2761 93.1572 22.4678 93.1572 22.7554Z" fill="#F9F9F9"/>
<path d="M93.4427 22.372C93.4427 22.4678 93.5378 22.5637 93.7282 22.4678C93.8233 22.4678 93.9185 22.372 93.9185 22.1803L93.8233 21.9886C93.8233 21.8927 93.7282 21.7969 93.5378 21.8927C93.4427 21.8927 93.3475 21.9886 93.3475 22.0844L93.4427 22.372Z" fill="#F9F9F9"/>
<path d="M87.9237 22.1803C87.8285 22.4679 88.0188 22.7554 88.3043 22.8513C88.5898 22.9471 88.8752 22.8513 88.9704 22.5637C89.0655 22.2762 88.8752 21.9886 88.5898 21.9886C88.3043 21.797 88.0188 21.8928 87.9237 22.1803Z" fill="#F9F9F9"/>
<path d="M88.3043 21.9886C88.3043 22.0845 88.3043 22.1803 88.4946 22.2762C88.5898 22.2762 88.6849 22.2762 88.7801 22.1803L88.8753 21.8928C88.8753 21.7969 88.8753 21.7011 88.7801 21.6052C88.6849 21.6052 88.5898 21.6052 88.4946 21.7011L88.3043 21.9886Z" fill="#F9F9F9"/>
<path d="M87.3527 21.1259C87.3527 21.1259 87.2575 21.0301 87.0672 20.9342C86.8769 20.8384 86.5915 20.7425 86.306 20.5509C85.6399 20.1675 84.8787 19.5924 84.2126 18.9215C83.5465 18.2505 82.8804 17.4838 82.5949 16.9087C82.4046 16.6211 82.3095 16.3336 82.2143 16.1419C82.1191 15.9502 82.1191 15.8544 82.1191 15.8544" stroke="#F9F9F9" stroke-width="0.25" stroke-miterlimit="10"/>
<path d="M83.261 19.209C83.0707 19.4006 83.0707 19.6882 83.3561 19.9757C83.5465 20.1674 83.9271 20.1674 84.1174 19.9757C84.3077 19.784 84.2126 19.4965 84.0222 19.209C83.8319 19.0173 83.4513 19.0173 83.261 19.209Z" fill="#F9F9F9"/>
<path d="M83.7368 19.209C83.6416 19.3049 83.6416 19.4007 83.7368 19.4966C83.8319 19.5924 83.9271 19.5924 84.0222 19.4966L84.2126 19.3049C84.3077 19.209 84.3077 19.1132 84.2126 19.0173C84.1174 18.9215 84.0222 18.9215 83.9271 19.0173L83.7368 19.209Z" fill="#F9F9F9"/>
<path d="M85.3544 20.8385C85.1641 21.0302 85.2593 21.4136 85.5448 21.5094C85.8302 21.7011 86.1157 21.6053 86.306 21.4136C86.4012 21.2219 86.306 20.8385 86.1157 20.7426C85.8302 20.6468 85.5448 20.6468 85.3544 20.8385Z" fill="#F9F9F9"/>
<path d="M85.8302 20.7426C85.7351 20.8385 85.8303 20.9343 85.9254 21.0302C86.0206 21.126 86.1157 21.0302 86.2109 20.9343L86.306 20.7426C86.4012 20.6468 86.306 20.551 86.2109 20.4551C86.1157 20.3593 86.0206 20.4551 85.9254 20.551L85.8302 20.7426Z" fill="#F9F9F9"/>
<path d="M81.7385 17.0046C81.4531 17.1004 81.4531 17.4838 81.6434 17.7713C81.8337 18.0589 82.1192 18.1547 82.4046 17.963C82.5949 17.7713 82.6901 17.4838 82.4998 17.2921C82.2143 17.0046 81.9288 16.9087 81.7385 17.0046Z" fill="#F9F9F9"/>
<path d="M82.1191 17.1004C82.024 17.1962 82.024 17.2921 82.024 17.3879C82.1191 17.4838 82.2143 17.4837 82.3095 17.4837L82.4998 17.3879C82.5949 17.2921 82.5949 17.1962 82.5949 17.1004C82.4998 17.0045 82.4046 17.0045 82.3095 17.0045L82.1191 17.1004Z" fill="#F9F9F9"/>
<path d="M82.7852 29.9439C84.0222 29.0813 85.4495 28.3145 86.8769 27.8353C87.8284 27.5478 88.78 27.7395 89.6364 27.9311C90.5879 28.1228 91.4443 28.5062 92.3959 28.7938C93.4426 29.0813 94.5845 29.273 95.7263 29.3688C96.8682 29.4647 98.0101 29.4647 99.1519 29.273C100.199 29.0813 101.15 28.7938 102.102 28.3145C102.958 27.9311 103.815 27.4519 104.861 27.2602C105.908 27.0685 107.05 27.4519 108.097 27.8353C108.668 28.027 109.238 28.3145 109.619 28.6979C109.905 28.9855 110.095 29.4647 110.095 29.9439H82.7852Z" fill="white"/>
</svg>
