<svg width="200.347412" height="56.536865" viewBox="0 0 200.347 56.5369" fill="none" xmlns="http://www.w3.org/2000/svg" xmlns:xlink="http://www.w3.org/1999/xlink">
	<desc>
			Created with Pixso.
	</desc>
	<defs>
		<clipPath id="clip1_4">
			<rect id="Frame" rx="0.000000" width="41.908337" height="25.502207" transform="translate(0.500000 7.548584) rotate(-6.757015)" fill="white" fill-opacity="0"/>
		</clipPath>
	</defs>
	<rect id="Frame" rx="0.000000" width="41.908337" height="25.502207" transform="translate(0.500000 7.548584) rotate(-6.757015)" fill="#FFFFFF" fill-opacity="0"/>
	<g clip-path="url(#clip1_4)">
		<path id="Vector" d="M41.42 12.35C43.07 13.55 44.46 15.39 44.37 17.44C44.32 19.54 42.7 21.23 41.15 22.56C37.03 26.03 31.49 28.22 26.35 29.91C23.71 30.79 20.93 31.44 18.12 31.46C16.11 31.47 13.74 31.34 12.38 29.75C11.19 31.07 9.3 31.77 7.4 31.58C4.58 31.28 2.08 28.9 2.35 26.1C2.67 23.11 5.38 21.9 8.17 21.98C6.59 15.17 11.59 8.34 18 5.55C21.63 3.94 25.59 3.92 29.25 5.36C32.59 6.68 35.28 9 37.6 11.59C37.98 11.39 38.4 11.27 38.87 11.28C39.82 11.36 40.68 11.83 41.42 12.35ZM41.7 21.57C43.51 19.83 44.65 17.59 43.43 15.22C42.44 13.31 39.99 11.05 37.72 12.05C37.7 12.09 37.66 12.09 37.63 12.1C37.41 12.19 37.22 12.33 37 12.49C33.41 15.3 30.24 18.51 26.1 20.65C24.17 21.64 22.08 22.43 19.9 22.75C17.43 23.11 14.88 22.78 12.64 24C13.3 24.81 13.66 25.85 13.6 27C13.54 27.93 13.17 28.77 12.65 29.46L12.69 29.49C14.44 31.57 18.29 31.21 20.77 30.89C23.67 30.48 26.48 29.54 29.17 28.49C33.6 26.76 38.27 24.84 41.7 21.57ZM36.37 12.5C36.64 12.28 36.95 12.02 37.23 11.83C32.51 6.53 25.51 2.65 18.14 5.91C14.89 7.35 12.08 9.68 10.29 12.63C8.51 15.51 7.99 18.76 8.38 22.02C8.58 22.03 8.75 22.04 8.92 22.05C8.99 22.07 9.03 22.1 9.06 22.13C9.71 22.18 10.3 22.36 10.83 22.62C11.17 18.09 13.91 12.93 19.27 12.62C19.54 12.59 19.58 12.96 19.32 12.99C17.39 13.13 15.86 13.85 14.65 14.95C15.33 17.54 15.35 20.27 14.86 22.91C16.72 22.49 18.78 22.63 20.65 22.25C24.02 21.56 27.08 19.87 29.8 17.92C32.11 16.22 34.2 14.31 36.37 12.5ZM14.46 22.95C14.95 20.32 14.92 17.74 14.47 15.13C12.49 17.05 11.42 19.94 11 22.63C11 22.66 11 22.66 10.97 22.67C11.58 22.98 12.09 23.36 12.52 23.85C13.11 23.43 13.78 23.16 14.46 22.98L14.46 22.95ZM13.17 27.11C13.44 24.57 11.42 22.77 9.02 22.32C8.99 22.36 8.93 22.4 8.86 22.38C7.37 22.33 5.83 22.29 4.52 23.14C3.49 23.81 2.86 24.99 2.73 26.19C2.49 28.7 4.76 30.84 7.28 31.18C10.01 31.56 12.86 29.82 13.17 27.11Z" fill="#1D1D1B" fill-opacity="1.000000" fill-rule="nonzero"/>
		<path id="Vector" d="M43.43 15.22C44.65 17.59 43.51 19.83 41.7 21.57C38.27 24.84 33.6 26.79 29.17 28.49C26.45 29.55 23.67 30.48 20.77 30.89C18.29 31.25 14.41 31.58 12.69 29.49C12.68 29.46 12.65 29.46 12.65 29.46C13.2 28.76 13.54 27.93 13.6 27C13.7 25.84 13.3 24.81 12.64 23.99C14.88 22.78 17.46 23.1 19.9 22.72C22.08 22.4 24.16 21.61 26.09 20.62C30.23 18.47 33.41 15.27 37 12.46C37.22 12.3 37.41 12.19 37.63 12.06C37.66 12.06 37.69 12.06 37.72 12.02C39.99 11.05 42.44 13.31 43.43 15.22Z" fill="#F6F6F6" fill-opacity="1.000000" fill-rule="nonzero"/>
		<path id="Vector" d="M37.26 11.82C36.95 12.02 36.67 12.24 36.4 12.5C34.24 14.31 32.15 16.24 29.83 17.92C27.11 19.89 24.02 21.56 20.68 22.25C18.82 22.63 16.75 22.49 14.89 22.9C15.38 20.27 15.36 17.53 14.68 14.94C15.9 13.84 17.42 13.12 19.35 12.99C19.62 12.96 19.58 12.61 19.31 12.61C13.94 12.93 11.2 18.09 10.86 22.61C10.3 22.36 9.71 22.18 9.09 22.12C9.09 22.09 9.02 22.04 8.95 22.05C8.78 22.03 8.58 22.03 8.41 22.01C8.06 18.75 8.58 15.54 10.32 12.63C12.12 9.68 14.93 7.34 18.18 5.91C25.51 2.65 32.51 6.53 37.26 11.82Z" fill="#E9164D" fill-opacity="1.000000" fill-rule="nonzero"/>
		<path id="Vector" d="M9.02 22.32C11.42 22.77 13.48 24.56 13.17 27.11C12.86 29.85 10.02 31.59 7.25 31.19C4.76 30.84 2.49 28.7 2.77 26.18C2.9 25.02 3.49 23.84 4.55 23.14C5.86 22.28 7.37 22.33 8.89 22.37C8.93 22.4 8.99 22.36 9.02 22.32Z" fill="#F6F6F6" fill-opacity="1.000000" fill-rule="nonzero"/>
		<g opacity="0.500000">
			<path id="Vector" d="M28.54 18.87C28.41 18.91 28.28 18.96 28.15 19.01C27.09 19.67 25.99 20.31 24.84 20.83C26.12 20.3 27.39 19.64 28.54 18.87Z" fill="#1D1D1B" fill-opacity="1.000000" fill-rule="nonzero"/>
			<path id="Vector" d="M9.73 13.65C9.84 13.42 9.95 13.21 10.09 13C9.96 13.02 9.86 12.97 9.75 12.95C9.42 13.53 9.13 14.17 8.86 14.77C9.11 14.36 9.44 13.97 9.73 13.65Z" fill="#1D1D1B" fill-opacity="1.000000" fill-rule="nonzero"/>
			<path id="Vector" d="M41.42 12.35C40.68 11.83 39.82 11.36 38.88 11.31C38.41 11.3 37.99 11.42 37.61 11.62C35.29 9.03 32.6 6.71 29.25 5.39C25.59 3.92 21.64 3.97 18 5.55C16.21 6.33 14.57 7.42 13.11 8.73C13.46 8.57 13.84 8.39 14.19 8.26C15.39 7.32 16.74 6.52 18.14 5.88C25.5 2.62 32.5 6.5 37.26 11.79C36.95 11.99 36.67 12.21 36.4 12.46C35.51 13.21 34.6 13.98 33.72 14.75C34.24 14.37 34.8 14.02 35.41 13.76C35.93 13.31 36.48 12.87 37.03 12.45C37.25 12.3 37.44 12.18 37.66 12.06C37.69 12.06 37.72 12.05 37.75 12.02C40.02 11.05 42.47 13.3 43.46 15.19C44.68 17.56 43.54 19.79 41.73 21.53C38.3 24.8 33.63 26.76 29.2 28.46C26.48 29.51 23.7 30.45 20.8 30.85C18.32 31.21 14.44 31.54 12.71 29.46C12.71 29.43 12.68 29.43 12.68 29.43C13.06 28.94 13.35 28.33 13.51 27.71L13.22 25.23C13.21 25.14 13.2 25.04 13.22 24.94C13 24.75 12.86 24.45 12.83 24.16C12.79 24.1 12.71 24.02 12.67 23.96C12.73 23.92 12.8 23.91 12.86 23.87C12.88 23.78 12.94 23.67 12.99 23.57C12.87 23.65 12.71 23.73 12.58 23.81C12.16 23.32 11.64 22.9 11.03 22.63L11.06 22.59C11.48 19.9 12.54 16.98 14.53 15.09C14.98 17.71 15.02 20.28 14.52 22.91C14.53 22.94 14.53 22.94 14.53 22.98C14.34 23.03 14.17 23.08 14.01 23.13C14.85 23.1 15.64 23 16.47 22.94C16.39 22.85 16.35 22.76 16.34 22.67C15.88 22.72 15.41 22.78 14.96 22.89C15.45 20.26 15.43 17.53 14.75 14.93C15.48 14.27 16.29 13.76 17.26 13.43C17.34 13.26 17.45 13.09 17.56 12.91C13.38 14.14 11.23 18.6 10.93 22.61C10.43 22.38 9.88 22.22 9.33 22.16C9.24 22.23 9.12 22.31 9.02 22.36L9.06 22.38C9.09 22.38 9.09 22.35 9.12 22.34C11.52 22.79 13.58 24.58 13.28 27.13C12.97 29.87 10.12 31.61 7.35 31.21L7.32 31.21C6.86 31.26 6.39 31.26 5.95 31.24C6.44 31.44 6.96 31.57 7.5 31.63C9.41 31.82 11.3 31.12 12.49 29.8C13.85 31.39 16.21 31.52 18.22 31.51C21.04 31.49 23.82 30.85 26.46 29.96C31.6 28.27 37.14 26.09 41.26 22.61C42.81 21.28 44.42 19.59 44.47 17.49C44.43 15.39 43.04 13.55 41.42 12.35Z" fill="#1D1D1B" fill-opacity="1.000000" fill-rule="nonzero"/>
			<path id="Vector" d="M43.43 15.22C42.44 13.31 39.99 11.05 37.72 12.05C37.7 12.09 37.66 12.09 37.63 12.1C37.41 12.19 37.22 12.33 37 12.49C36.45 12.9 35.93 13.35 35.38 13.79C36.34 13.36 37.39 13.17 38.4 13.5C42.03 14.66 40.09 19.28 38.34 21.17C35.69 24.03 31.87 25.76 28.15 26.93C23.75 28.34 19.03 29.25 14.38 28.78C13.9 28.74 13.52 28.31 13.47 27.87L13.45 27.75C13.29 28.37 12.99 28.98 12.62 29.47L12.65 29.5C14.41 31.58 18.26 31.22 20.73 30.89C23.64 30.48 26.45 29.55 29.14 28.5C33.56 26.76 38.23 24.84 41.67 21.57C43.51 19.83 44.65 17.56 43.43 15.22Z" fill="#FFFFFF" fill-opacity="1.000000" fill-rule="nonzero"/>
			<path id="Vector" d="M17.9 12.37C15.73 12.15 13.29 13.07 11.85 14.54C10.59 15.81 8.19 18.99 9.47 20.74C9.83 21.27 9.66 21.83 9.27 22.17C9.85 22.23 10.37 22.39 10.86 22.61C11.13 18.61 13.28 14.15 17.47 12.93C17.61 12.72 17.72 12.55 17.9 12.37Z" fill="#E9164D" fill-opacity="1.000000" fill-rule="nonzero"/>
			<path id="Vector" d="M16.24 22.68C16.23 22.58 16.19 22.52 16.21 22.4C16.08 19.36 15.72 16.06 17.19 13.4C16.22 13.74 15.38 14.29 14.68 14.91C15.36 17.5 15.38 20.23 14.89 22.87C15.32 22.82 15.78 22.73 16.24 22.68Z" fill="#E9164D" fill-opacity="1.000000" fill-rule="nonzero"/>
			<path id="Vector" d="M13.91 10.71C13.5 10.91 13.06 11.13 12.65 11.4C13.1 11.18 13.54 10.97 14.03 10.82C13.99 10.76 13.95 10.73 13.91 10.71Z" fill="#E9164D" fill-opacity="1.000000" fill-rule="nonzero"/>
			<path id="Vector" d="M24.88 20.83C26.02 20.31 27.12 19.67 28.18 19C27.67 19.19 27.15 19.38 26.64 19.54C26.14 19.91 25.68 20.29 25.18 20.6C25.03 20.71 24.91 20.79 24.75 20.87C24.75 20.87 24.81 20.87 24.88 20.83Z" fill="#E9164D" fill-opacity="1.000000" fill-rule="nonzero"/>
			<path id="Vector" d="M21.1 7.06C24.23 7.16 27.04 8.52 29.47 10.3C31.31 11.67 33.23 13.79 32.06 16.09C32.52 15.69 33.01 15.31 33.5 14.94C33.57 14.9 33.63 14.86 33.69 14.82C34.57 14.05 35.46 13.31 36.37 12.53C36.65 12.31 36.95 12.05 37.23 11.86C32.51 6.53 25.51 2.65 18.14 5.91C16.74 6.52 15.39 7.32 14.2 8.29C16.37 7.39 18.74 6.95 21.1 7.06Z" fill="#E9164D" fill-opacity="1.000000" fill-rule="nonzero"/>
			<path id="Vector" d="M10.09 12.97C9.98 13.18 9.84 13.42 9.73 13.62C9.85 13.48 9.97 13.34 10.09 13.23C10.21 13.12 10.33 12.98 10.45 12.87C10.32 12.95 10.19 12.99 10.09 12.97Z" fill="#E9164D" fill-opacity="1.000000" fill-rule="nonzero"/>
			<path id="Vector" d="M9.02 22.32C8.99 22.36 8.99 22.36 8.96 22.36C10.02 22.87 10.97 23.52 11.65 24.43C12.81 25.98 12.76 28.12 11.28 29.5C10.28 30.41 8.77 31.01 7.25 31.19L7.28 31.18C10.04 31.55 12.89 29.82 13.21 27.11C13.48 24.56 11.42 22.74 9.02 22.32Z" fill="#FFFFFF" fill-opacity="1.000000" fill-rule="nonzero"/>
		</g>
		<path id="Vector" d="M20.07 8.29C18.91 8.68 17.63 8.64 16.42 8.95C15.48 9.19 14.59 9.61 13.79 10.18C12.21 11.29 10.48 12.83 9.78 14.6C9.73 14.73 9.9 14.78 9.99 14.67C11.03 12.99 12.84 11.53 14.59 10.5C15.57 9.94 16.6 9.62 17.69 9.46C18.58 9.33 19.56 9.4 20.38 8.95C20.79 8.75 20.55 8.11 20.07 8.29Z" fill="#FFFFFF" fill-opacity="1.000000" fill-rule="nonzero"/>
	</g>
	<path id="Vector" d="M181.37 36.47L181.45 34.41L183.45 33.94L181.79 33.11L181.69 31.37L180.32 33.08L178.57 32.51L179.92 34.06L178.55 35.77L180.65 35.04L181.37 36.47Z" fill="#EF3167" fill-opacity="1.000000" fill-rule="nonzero"/>
	<path id="Vector" d="M170.46 25.2L166.79 25.28L165.91 21.79L164.46 24.67L161.42 25.1L164.44 27.26L163.57 30.4L166.28 28.01L169.34 30.26L167.92 26.61L170.46 25.2Z" fill="#EF3167" fill-opacity="1.000000" fill-rule="nonzero"/>
	<path id="Vector" d="M176.22 9.45C176.41 9.81 176.32 10.3 175.96 10.48C175.61 10.67 175.16 10.45 174.98 10.09C174.8 9.73 174.88 9.24 175.24 9.06C175.59 8.88 176 9.01 176.22 9.45Z" fill="#E9164D" fill-opacity="1.000000" fill-rule="nonzero"/>
	<path id="Vector" d="M199.4 42.08C199.58 42.44 199.45 42.84 199.19 42.98C198.92 43.11 198.51 42.98 198.33 42.63C198.15 42.27 198.28 41.87 198.55 41.73C198.82 41.59 199.22 41.72 199.4 42.08Z" fill="#E9164D" fill-opacity="1.000000" fill-rule="nonzero"/>
	<path id="Vector" d="M184.87 42.65C185.05 43.01 184.97 43.5 184.61 43.68C184.26 43.87 183.81 43.65 183.62 43.29C183.44 42.93 183.53 42.44 183.88 42.26C184.24 42.08 184.69 42.3 184.87 42.65Z" fill="#E9164D" fill-opacity="1.000000" fill-rule="nonzero"/>
	<path id="Vector" d="M180.71 48.14C180.85 48.41 180.81 48.77 180.54 48.91C180.27 49.04 179.96 48.87 179.82 48.6C179.69 48.33 179.73 47.97 180 47.84C180.26 47.7 180.58 47.88 180.71 48.14Z" fill="#E9164D" fill-opacity="1.000000" fill-rule="nonzero"/>
	<path id="Vector" d="M192.93 27.87C193.16 28.32 192.98 28.85 192.63 29.04C192.27 29.22 191.73 29.04 191.5 28.6C191.28 28.15 191.45 27.61 191.81 27.43C192.16 27.25 192.7 27.42 192.93 27.87Z" fill="#E9164D" fill-opacity="1.000000" fill-rule="nonzero"/>
	<path id="Vector" d="M182.29 27.92C182.46 28.26 182.36 28.66 182.07 28.81C181.77 28.96 181.39 28.81 181.22 28.46C181.04 28.12 181.14 27.72 181.43 27.57C181.73 27.41 182.11 27.57 182.29 27.92Z" fill="#E9164D" fill-opacity="1.000000" fill-rule="evenodd"/>
	<path id="Vector" d="M184.42 15.6C184.6 15.96 184.47 16.36 184.2 16.5C183.93 16.63 183.53 16.5 183.35 16.14C183.17 15.79 183.3 15.39 183.56 15.25C183.92 15.07 184.23 15.24 184.42 15.6Z" fill="#E9164D" fill-opacity="1.000000" fill-rule="nonzero"/>
	<path id="Vector" d="M173.27 19.72C173.5 20.16 173.37 20.79 173.01 20.97C172.57 21.2 172.12 20.98 171.85 20.45C171.62 20 171.75 19.37 172.1 19.19C172.46 19.01 173.04 19.27 173.27 19.72Z" fill="#E9164D" fill-opacity="1.000000" fill-rule="nonzero"/>
	<path id="Vector" d="M173.64 36.49C173.91 37.02 173.78 37.65 173.34 37.88C172.89 38.1 172.31 37.84 172.03 37.31C171.76 36.77 171.89 36.14 172.34 35.92C172.69 35.74 173.36 35.95 173.64 36.49Z" fill="#E9164D" fill-opacity="1.000000" fill-rule="nonzero"/>
	<path id="Vector" d="M155.86 12.67C156.09 13.11 155.91 13.65 155.55 13.83C155.2 14.02 154.71 13.93 154.43 13.4C154.21 12.95 154.38 12.41 154.74 12.23C155.09 12.05 155.63 12.22 155.86 12.67Z" fill="#E9164D" fill-opacity="1.000000" fill-rule="nonzero"/>
	<path id="Vector" d="M161.2 30.6C161.43 31.05 161.25 31.58 160.89 31.77C160.54 31.95 160 31.77 159.77 31.33C159.55 30.88 159.72 30.35 160.08 30.16C160.43 29.98 160.97 30.16 161.2 30.6Z" fill="#E9164D" fill-opacity="1.000000" fill-rule="nonzero"/>
</svg>
