<svg width="204" height="30" viewBox="0 0 204 30" fill="none" xmlns="http://www.w3.org/2000/svg">
<path d="M19.1375 9.43938C17.1424 8.52454 14.9278 8.06543 12.4939 8.06543C10.3874 8.06543 8.47327 8.40639 6.75161 9.08492C5.02658 9.76683 3.58511 10.7357 2.42383 11.9982C1.26255 13.2608 0.455734 14.7428 0 16.4476L5.88065 16.4746C6.17097 15.6407 6.67397 14.9217 7.39302 14.3242C8.10869 13.7267 8.92226 13.2709 9.83035 12.9637C10.7384 12.6565 11.6162 12.5012 12.4702 12.5012C13.4492 12.5012 14.4214 12.6734 15.3835 13.0177C16.3457 13.3621 17.193 13.8718 17.9289 14.5436C18.6648 15.2154 19.178 16.0053 19.4683 16.91H10.9207V20.4209H19.4953C19.0767 21.7982 18.2159 22.8751 16.9094 23.6448C15.603 24.4178 14.1244 24.8027 12.4736 24.8027C11.022 24.8027 9.7122 24.4718 8.54079 23.8102C7.36939 23.1485 6.51193 22.1898 5.96843 20.9374H0.00675306C0.496245 22.6624 1.32332 24.1444 2.48459 25.3867C3.64587 26.629 5.08059 27.5877 6.78537 28.2595C8.49016 28.9313 10.3975 29.2655 12.5006 29.2655C15.0426 29.2655 17.3044 28.8064 19.2927 27.8915C21.2811 26.9767 22.8272 25.7108 23.9345 24.0938C25.0417 22.4801 25.5954 20.6741 25.5954 18.6756C25.5954 16.6771 25.0181 14.8474 23.867 13.2304C22.7158 11.6168 21.1393 10.3508 19.1442 9.43263L19.1375 9.43938Z" fill="#EF3167"/>
<path d="M48.561 9.42598C47.2646 8.86222 45.7725 8.58203 44.0846 8.58203H29.3594V28.7255H35.0206V22.1933H44.5741C47.1499 22.1933 49.1416 21.6093 50.5493 20.4379C51.9536 19.2665 52.6592 17.5853 52.6592 15.3877V15.2796C52.6592 13.9563 52.3014 12.7883 51.5823 11.7823C50.8666 10.7763 49.8573 9.98974 48.561 9.42936V9.42598ZM46.8731 17.2241C46.5017 17.5954 46.046 17.8216 45.5126 17.906C44.9792 17.9904 44.2095 18.0275 43.2137 18.0275H34.9936V12.7208C37.333 12.7208 39.0176 12.7174 40.0438 12.7073C41.07 12.6971 41.7891 12.6938 42.2077 12.6938H43.2137C44.1758 12.6938 44.932 12.7376 45.4856 12.8288C46.0392 12.9199 46.5017 13.1596 46.8731 13.5512C47.2444 13.9428 47.4301 14.564 47.4301 15.4147C47.4301 16.2654 47.2444 16.8528 46.8731 17.2241Z" fill="#EF3167"/>
<path d="M75.3756 9.52044C73.4345 8.60559 71.247 8.14648 68.8164 8.14648C66.3858 8.14648 64.3164 8.60559 62.3382 9.52044C60.36 10.4353 58.7936 11.7046 57.6425 13.3182C56.4913 14.9352 55.9141 16.7379 55.9141 18.7364C55.9141 20.7349 56.4947 22.5072 57.656 24.1141C58.8172 25.7209 60.3836 26.9801 62.3517 27.8983C64.3198 28.8132 66.477 29.2723 68.8164 29.2723C71.1558 29.2723 73.4345 28.8132 75.3756 27.8983C77.3167 26.9835 78.8425 25.7243 79.9498 24.1276C81.0571 22.5308 81.6107 20.7349 81.6107 18.7364C81.6107 16.7379 81.0571 14.9116 79.9498 13.3047C78.8425 11.6978 77.3167 10.4387 75.3756 9.52044ZM74.724 22.0143C74.0691 22.9291 73.2184 23.6313 72.1652 24.1107C71.1119 24.59 69.9979 24.8331 68.8164 24.8331C67.6349 24.8331 66.4905 24.5934 65.4271 24.1107C64.3671 23.6313 63.513 22.9224 62.8682 21.9873C62.2234 21.0522 61.9027 19.9517 61.9027 18.679C61.9027 17.4063 62.2201 16.3396 62.8547 15.4112C63.4894 14.4862 64.3367 13.7841 65.4001 13.3013C66.4601 12.822 67.6011 12.5789 68.8164 12.5789C70.0317 12.5789 71.1119 12.8254 72.1652 13.3148C73.2184 13.8043 74.0691 14.5166 74.724 15.4517C75.3756 16.3868 75.703 17.4806 75.703 18.733C75.703 19.9854 75.3756 21.0961 74.724 22.0143Z" fill="#EF3167"/>
<path d="M86.3293 21.8658C85.8398 23.2465 84.9047 23.9352 83.5273 23.9352V28.7255C84.8507 28.5634 85.7824 28.4318 86.3158 28.3305C86.8491 28.2326 87.5851 27.8984 88.5202 27.338C89.4553 26.7743 90.1946 25.9235 90.7381 24.7791C91.555 22.909 92.1863 21.059 92.6285 19.2259C93.0741 17.3929 93.486 15.2526 93.8674 12.8018H101.517V28.7255H107.151V8.58203H88.7497C88.4054 13.4094 87.5986 17.8385 86.3259 21.8658H86.3293Z" fill="#EF3167"/>
<path d="M120.888 8.58203L109.947 28.7255H115.747L117.843 24.8602H129.902L131.998 28.7255H137.798L126.884 8.58203H120.895H120.888ZM120.071 20.7214L123.883 13.7268L127.667 20.7214H120.071Z" fill="#EF3167"/>
<path d="M146.689 22.2473V8.58203H141.055V28.7255H146.689L159.483 15.0602V28.7255H165.144V8.58203H159.483L146.689 22.2473Z" fill="#EF3167"/>
<path d="M202.261 14.5032C201.1 13.2609 199.49 12.2853 197.43 11.5764C195.371 10.8675 193.062 10.5062 190.503 10.486H189.413V8.58203H183.752V10.486H182.634C180.167 10.5062 177.871 10.8776 175.748 11.6034C173.624 12.3292 171.926 13.3082 170.657 14.5437C169.388 15.7792 168.753 17.1566 168.753 18.6824C168.753 20.2083 169.394 21.562 170.67 22.8077C171.95 24.05 173.661 25.0357 175.802 25.7615C177.942 26.4873 180.248 26.8519 182.715 26.8519H183.748V28.7288H189.409V26.8519H190.5C193.059 26.8519 195.364 26.4941 197.414 25.775C199.463 25.0593 201.076 24.077 202.244 22.8347C203.416 21.5924 204 20.2083 204 18.6824C204 17.1566 203.419 15.7489 202.258 14.5032H202.261ZM183.752 22.6018H182.989C180.919 22.6018 179.059 22.2946 177.408 21.6768C175.758 21.059 174.931 20.0631 174.931 18.6824C174.931 17.3017 175.758 16.2519 177.408 15.6341C179.059 15.0163 180.919 14.7091 182.989 14.7091H183.752V22.6018ZM195.783 21.6903C194.294 22.2979 192.508 22.6018 190.419 22.6018H189.413V14.7091H190.392C192.441 14.7091 194.227 15.0129 195.742 15.6206C197.258 16.2282 198.014 17.2511 198.014 18.6824C198.014 20.1138 197.272 21.0826 195.783 21.6903Z" fill="#EF3167"/>
<path d="M158.636 4.17316C160.081 3.60265 161.553 3.09628 163.285 2.35023C160.263 0.301114 156.168 0.625191 152.945 1.69195C149.616 2.7452 147.668 4.07189 144.009 4.18329C147.699 8.77101 154.281 5.82056 158.636 4.16979V4.17316Z" fill="#EF3167"/>
</svg>
